<?xml version="1.0" encoding="utf-8"?>
<!-- Generator: Adobe Illustrator 27.2.0, SVG Export Plug-In . SVG Version: 6.00 Build 0)  -->
<svg version="1.1" id="Camada_1" xmlns="http://www.w3.org/2000/svg" xmlns:xlink="http://www.w3.org/1999/xlink" x="0px" y="0px"
	 viewBox="0 0 782.5 203" style="enable-background:new 0 0 782.5 203;" xml:space="preserve">
<style type="text/css">
	.st0{fill:#FCDA97;}
	.st1{fill:#F9CB6E;}
	.st2{fill:#FEC94A;}
	.st3{enable-background:new    ;}
	.st4{fill:#FFFFFF;}
</style>
<g>
	<path class="st0" d="M683.5,3.2c5,0,9.7,0,14.3,0c0.5,0,1,0.4,1.3,0.7c10.1,12.4,20.2,24.8,30.3,37.2c0.1,0.1,0.2,0.3,0.3,0.5
		c-2.3,2.8-4.7,5.7-7,8.6c-7.8,9.5-15.5,19.1-23.3,28.6c-0.7,0.8-1.4,1.2-2.5,1.2c-4.3-0.1-8.7,0-13.5,0
		c10.5-13,20.9-25.6,31.3-38.4C704.4,28.9,694.1,16.2,683.5,3.2z"/>
</g>
<g>
	<path class="st1" d="M710.6,80.1c10.6-13,20.9-25.7,31.3-38.4c-10.4-12.8-20.7-25.4-31.2-38.4c1.5,0,2.5,0,3.6,0
		c3.4,0,6.8,0,10.2,0c0.6,0,1.4,0.3,1.8,0.7c10.1,12.4,20.2,24.8,30.3,37.2c0.1,0.1,0.2,0.3,0.3,0.5c-3.8,4.7-7.6,9.3-11.4,14
		c-6.2,7.7-12.5,15.3-18.7,23c-0.8,1-1.7,1.4-3,1.4C719.5,80,715.2,80.1,710.6,80.1z"/>
</g>
<g>
	<path class="st2" d="M733.7,80.1c10.6-13,20.9-25.7,31.3-38.4c-10.4-12.8-20.7-25.4-31.2-38.4c1.5,0,2.5,0,3.6,0
		c3.4,0,6.8,0,10.2,0c0.6,0,1.4,0.3,1.8,0.7c10.1,12.4,20.2,24.8,30.3,37.2c0.1,0.1,0.2,0.3,0.3,0.5c-3.8,4.7-7.6,9.3-11.4,14
		c-6.2,7.7-12.5,15.3-18.7,23c-0.8,1-1.7,1.4-3,1.4C742.6,80,738.3,80.1,733.7,80.1z"/>
</g>
<g>
	<g class="st3">
		<path class="st2" d="M587.9,104h52.3c2.6,0,4.9,0.6,6.9,1.6c2,1.1,3.6,2.5,4.9,4.3c1.3,1.8,2.3,3.8,3,6.1c0.7,2.3,1,4.7,1,7.2
			c0,2.6-0.4,5.3-1.2,7.8c-0.8,2.6-2,5.1-3.5,7.5s-3.4,4.5-5.7,6.5c-2.2,1.9-4.8,3.5-7.7,4.6c3.9,1.2,6.9,3.4,9,6.5
			c2.2,3.1,3.2,7.1,3.2,11.8c0,5.3-1.1,9.8-3.2,13.5c-2.1,3.7-4.9,6.8-8.4,9.2s-7.6,4.1-12.3,5.3c-4.7,1.1-9.5,1.7-14.5,1.7H568
			L587.9,104z M616.5,176c2.1,0,4-0.9,5.7-2.6c1.7-1.7,2.6-4.1,2.6-7.2c0-1.8-0.4-3.2-1.1-4.3c-0.7-1.1-1.8-1.6-3.1-1.6h-19
			l-3.3,15.7L616.5,176L616.5,176z M621.4,140.3c0.9,0,1.8-0.2,2.7-0.5s1.8-0.8,2.5-1.5s1.4-1.6,1.8-2.8c0.5-1.2,0.7-2.7,0.7-4.5
			s-0.4-3-1.1-3.8c-0.7-0.8-1.7-1.2-2.8-1.2H609l-3.2,14.4L621.4,140.3L621.4,140.3L621.4,140.3z"/>
		<path class="st2" d="M675.9,104H737l-4.7,22.4h-35.5l-3.3,15.6h28.7l-4.4,20.8H689l-7.4,34.8H656L675.9,104z"/>
	</g>
	<g class="st3">
		<path class="st2" d="M61.2,103.2h7.9L86,196.8h-9.8l-5.1-29.3H31.6l-17.4,29.3H4.3L61.2,103.2z M70.5,160.3L62.9,114l-27.8,46.3
			H70.5z"/>
		<path class="st2" d="M119.2,103.2h36.9c3.3,0,6.2,0.7,8.8,2c2.6,1.4,4.8,3.2,6.5,5.5c1.8,2.3,3.1,4.9,4.1,7.8s1.5,6,1.5,9
			c0,4.2-0.9,8.4-2.6,12.5c-1.8,4.1-4.1,7.8-7.1,11.1s-6.5,6-10.4,8c-4,2-8.1,3-12.5,3h-28.5l-7.4,34.5h-9.1L119.2,103.2z
			 M145.4,154.1c3,0,5.8-0.7,8.6-2.2c2.7-1.5,5.1-3.4,7.1-5.9c2-2.4,3.6-5.2,4.7-8.2c1.2-3.1,1.8-6.2,1.8-9.4c0-2.4-0.3-4.6-1-6.7
			s-1.6-3.9-2.8-5.4s-2.7-2.7-4.4-3.6s-3.6-1.3-5.6-1.3h-27.2l-9.1,42.7L145.4,154.1L145.4,154.1z"/>
		<path class="st2" d="M214.1,197.5c-5.3,0-10-1.1-14-3.2c-4.1-2.2-7.5-5-10.4-8.6c-2.8-3.6-4.9-7.7-6.4-12.3
			c-1.5-4.7-2.2-9.5-2.2-14.5c0-7.1,1.5-14.1,4.5-20.8c3-6.8,7-12.8,11.9-18.1c5-5.3,10.6-9.5,17-12.7s13-4.7,19.8-4.7
			c5.3,0,9.9,1.1,14,3.3c4,2.2,7.4,5.1,10.2,8.7c2.8,3.6,4.9,7.7,6.3,12.4c1.5,4.7,2.2,9.5,2.2,14.5c0,7.1-1.5,14-4.4,20.8
			c-2.9,6.7-6.9,12.7-11.8,17.9c-4.9,5.2-10.6,9.4-16.9,12.6C227.6,195.9,221,197.5,214.1,197.5z M216,189.2
			c5.8,0,11.2-1.4,16.3-4.2s9.5-6.5,13.3-11s6.8-9.6,9-15.2c2.2-5.6,3.3-11.1,3.3-16.7c0-4.1-0.6-8.1-1.7-11.9
			c-1.1-3.8-2.8-7.1-4.9-10c-2.2-2.9-4.8-5.1-8-6.8c-3.2-1.7-6.7-2.5-10.7-2.5c-5.8,0-11.3,1.4-16.3,4.2c-5.1,2.8-9.6,6.5-13.4,10.9
			c-3.8,4.5-6.8,9.5-9,15.1s-3.3,11.2-3.3,16.8c0,4.1,0.5,8.1,1.6,11.9c1.1,3.8,2.7,7.1,4.9,10s4.9,5.1,8,6.8S211.8,189.2,216,189.2
			z"/>
		<path class="st2" d="M302.1,197.6c-14,0-25-4.5-33-13.6l6.2-7.5c2.4,3.6,6,6.7,11,9.2s10.9,3.8,17.7,3.8c8,0,14.3-1.6,19-4.9
			c4.7-3.3,7-8.1,7-14.3c0-2.3-0.5-4.2-1.5-5.9c-1-1.6-2.5-3.1-4.5-4.4c-2-1.3-4.4-2.4-7.2-3.3c-2.8-0.9-6.1-1.9-9.8-2.8
			c-3.8-1-7.1-2-10.1-3.1c-2.9-1.1-5.4-2.4-7.4-3.9s-3.6-3.3-4.6-5.3c-1.1-2.1-1.6-4.5-1.6-7.3c0-4.9,1-9.3,3-13.3
			c2-3.9,4.7-7.2,8.1-10c3.4-2.7,7.4-4.8,12.1-6.3s9.6-2.2,15-2.2c5.9,0,11,0.9,15.4,2.8s8,4.5,10.9,8l-5.9,7.4
			c-1.8-3-4.6-5.4-8.4-7.3c-3.9-1.8-8.4-2.8-13.7-2.8c-4.6,0-8.5,0.5-11.8,1.6s-6,2.5-8.2,4.4c-2.2,1.8-3.7,4-4.7,6.5
			s-1.5,5.2-1.5,8.1c0,2.1,0.4,3.9,1.3,5.4s2.2,2.8,4,3.9c1.8,1.1,4,2.1,6.6,2.9c2.6,0.8,5.7,1.7,9.2,2.6c3.9,1,7.4,2,10.5,3.1
			c3.2,1.1,5.9,2.5,8.1,4.1s4,3.6,5.2,5.9c1.2,2.3,1.8,5.1,1.8,8.3c0,5-1,9.4-3,13.2s-4.7,6.9-8.1,9.4s-7.4,4.4-12.1,5.7
			C312.4,197,307.4,197.6,302.1,197.6z"/>
		<path class="st2" d="M388.7,111.4h-31.4l1.7-8.2h72.1l-1.7,8.2h-31.5l-18.2,85.4h-9.1L388.7,111.4z"/>
		<path class="st2" d="M462.6,103.2h7.9l16.9,93.6h-9.8l-5.1-29.3h-39.4l-17.4,29.3h-9.9L462.6,103.2z M472,160.3l-7.6-46.3
			l-27.8,46.3H472z"/>
		<path class="st2" d="M527.6,197.6c-14,0-25-4.5-33-13.6l6.2-7.5c2.4,3.6,6,6.7,11,9.2s10.9,3.8,17.7,3.8c8,0,14.3-1.6,19-4.9
			c4.7-3.3,7-8.1,7-14.3c0-2.3-0.5-4.2-1.5-5.9c-1-1.6-2.5-3.1-4.5-4.4c-2-1.3-4.4-2.4-7.2-3.3s-6.1-1.9-9.8-2.8
			c-3.8-1-7.1-2-10.1-3.1c-2.9-1.1-5.4-2.4-7.4-3.9s-3.6-3.3-4.6-5.3c-1.1-2.1-1.6-4.5-1.6-7.3c0-4.9,1-9.3,3-13.3
			c2-3.9,4.7-7.2,8.1-10c3.4-2.7,7.4-4.8,12.1-6.3s9.6-2.2,15-2.2c5.9,0,11,0.9,15.4,2.8c4.3,1.9,8,4.5,10.9,8l-5.9,7.4
			c-1.8-3-4.6-5.4-8.4-7.3c-3.9-1.8-8.4-2.8-13.7-2.8c-4.6,0-8.5,0.5-11.8,1.6s-6,2.5-8.2,4.4c-2.2,1.8-3.7,4-4.7,6.5
			s-1.5,5.2-1.5,8.1c0,2.1,0.4,3.9,1.3,5.4c0.9,1.5,2.2,2.8,4,3.9c1.8,1.1,4,2.1,6.6,2.9c2.6,0.8,5.7,1.7,9.2,2.6
			c3.9,1,7.4,2,10.5,3.1c3.2,1.1,5.9,2.5,8.1,4.1c2.2,1.6,4,3.6,5.2,5.9c1.2,2.3,1.8,5.1,1.8,8.3c0,5-1,9.4-3,13.2s-4.7,6.9-8.1,9.4
			c-3.4,2.5-7.4,4.4-12.1,5.7C538,197,533,197.6,527.6,197.6z"/>
	</g>
</g>
<g>
	<g class="st3">
		<path class="st2" d="M774.2,194l-7.1-1.5v-6l7.1,1.5V194z"/>
		<path class="st2" d="M774.6,174.7c0,1.5-0.2,2.8-0.7,3.9s-1.1,2-1.9,2.7c-0.8,0.7-1.7,1.3-2.7,1.6c-1,0.4-2.1,0.5-3.3,0.5
			c-1.6,0-3.1-0.3-4.6-0.9c-1.5-0.6-2.9-1.5-4-2.7c-1.2-1.2-2.1-2.6-2.9-4.2c-0.7-1.6-1.1-3.5-1.1-5.5c0-2.4,0.5-4.3,1.6-5.7
			c1-1.4,2.4-2.3,4-2.8l2.2,7.6c-1,0.4-1.5,1.1-1.5,2.1c0,0.5,0.1,1.1,0.4,1.6s0.7,1,1.1,1.4c0.5,0.4,1.1,0.7,1.8,1
			c0.7,0.2,1.4,0.3,2.3,0.3c1,0,1.8-0.2,2.3-0.6c0.6-0.4,0.9-1,0.9-1.7c0-1-0.5-1.9-1.5-2.8l2.2-6.7c1.6,1.2,3,2.7,4,4.5
			C774.1,170.2,774.6,172.3,774.6,174.7z"/>
		<path class="st2" d="M774.6,153.2c0,1.5-0.2,2.8-0.7,3.9s-1.1,2-1.8,2.7c-0.8,0.7-1.7,1.3-2.7,1.6s-2.1,0.5-3.3,0.5
			c-1.6,0-3.1-0.3-4.7-0.9c-1.5-0.6-2.9-1.5-4.1-2.6c-1.2-1.1-2.1-2.5-2.9-4.2c-0.7-1.6-1.1-3.5-1.1-5.5c0-1.5,0.2-2.8,0.7-3.9
			c0.5-1.1,1.1-2,1.8-2.7c0.8-0.7,1.7-1.3,2.7-1.6s2.1-0.5,3.3-0.5c1.6,0,3.1,0.3,4.7,0.9c1.5,0.6,2.9,1.5,4.1,2.6
			c1.2,1.2,2.1,2.5,2.9,4.2S774.6,151.1,774.6,153.2z M768.4,151.8c0-0.6-0.1-1.1-0.4-1.6c-0.3-0.5-0.7-1-1.2-1.4s-1.1-0.7-1.8-0.9
			s-1.4-0.3-2.2-0.3c-1,0-1.8,0.2-2.3,0.6c-0.6,0.4-0.9,1-0.9,1.7c0,0.6,0.1,1.1,0.4,1.6c0.3,0.5,0.7,1,1.2,1.4s1.1,0.7,1.8,0.9
			s1.4,0.3,2.2,0.3c1,0,1.8-0.2,2.3-0.6C768.1,153.2,768.4,152.6,768.4,151.8z"/>
		<path class="st2" d="M753.8,135.3v-6.6l3,0.7c-1.1-0.9-2-2-2.5-3.4c-0.6-1.4-0.9-2.8-0.9-4.2c0-0.9,0.1-1.6,0.3-2.1
			c0.2-0.6,0.5-1,0.8-1.4s0.7-0.6,1.1-0.8c0.4-0.2,0.9-0.3,1.3-0.3c-1.1-0.9-2-2-2.6-3.4c-0.6-1.3-0.9-2.7-0.9-4.2
			c0-0.9,0.1-1.7,0.4-2.3c0.3-0.6,0.6-1,1-1.4c0.4-0.3,0.9-0.6,1.4-0.7s1.1-0.2,1.7-0.2c0.2,0,0.6,0,1,0.1c0.5,0,1.1,0.1,1.8,0.3
			l13.4,2.9v7.4l-11.5-2.4c-0.4-0.1-0.8-0.1-1.1-0.1c-0.6,0-1,0.1-1.3,0.4c-0.3,0.2-0.4,0.5-0.4,0.9c0,0.3,0.1,0.5,0.2,0.9
			c0.2,0.3,0.4,0.6,0.6,1c0.3,0.3,0.6,0.6,0.9,0.9c0.3,0.3,0.7,0.6,1.1,0.8l11.4,2.4v7.4l-11.5-2.4c-0.4-0.1-0.8-0.1-1.1-0.1
			c-0.6,0-1,0.1-1.3,0.4c-0.3,0.2-0.4,0.5-0.4,0.9c0,0.3,0.1,0.5,0.2,0.9c0.2,0.3,0.4,0.6,0.6,1c0.3,0.3,0.6,0.6,0.9,0.9
			c0.4,0.3,0.7,0.5,1.1,0.8l11.4,2.4v7.4L753.8,135.3z"/>
	</g>
</g>
<g class="st3">
	<path class="st4" d="M73.7,47.1c2.9,0,5.1,0.7,6.5,2.2s2.2,3.6,2.2,6.2c0,2.7-0.7,4.8-2.2,6.2c-1.5,1.5-3.7,2.2-6.5,2.2H65v11.7
		h-3.8V47.1H73.7L73.7,47.1z M72.4,60.8c2.2,0,3.7-0.4,4.7-1.3s1.5-2.2,1.5-3.9s-0.5-3-1.5-3.9s-2.6-1.3-4.7-1.3H65v10.5L72.4,60.8
		L72.4,60.8z"/>
	<path class="st4" d="M86,61.1c0.4-1.3,1.1-2.5,1.9-3.4s1.9-1.7,3.2-2.3s2.7-0.8,4.3-0.8c1.6,0,3.1,0.3,4.3,0.8s2.3,1.3,3.1,2.3
		s1.5,2.1,1.9,3.4c0.4,1.3,0.6,2.7,0.6,4.3c0,1.5-0.2,2.9-0.6,4.2c-0.4,1.3-1.1,2.4-1.9,3.4s-1.9,1.7-3.1,2.3
		c-1.2,0.6-2.7,0.8-4.3,0.8c-1.6,0-3.1-0.3-4.3-0.8S88.8,74,88,73.1s-1.5-2.1-1.9-3.4s-0.6-2.7-0.6-4.2S85.6,62.4,86,61.1z
		 M89.5,68.7c0.3,1,0.8,1.8,1.4,2.4s1.3,1.1,2.1,1.5s1.6,0.5,2.5,0.5s1.7-0.2,2.5-0.5s1.5-0.9,2.1-1.5s1-1.5,1.4-2.4
		c0.3-1,0.5-2.1,0.5-3.3s-0.2-2.4-0.5-3.3s-0.8-1.8-1.4-2.5s-1.3-1.2-2.1-1.5s-1.6-0.5-2.5-0.5s-1.7,0.2-2.5,0.5s-1.5,0.9-2.1,1.5
		s-1,1.5-1.4,2.5c-0.3,1-0.5,2.1-0.5,3.3C89,66.6,89.2,67.8,89.5,68.7z"/>
	<path class="st4" d="M126.4,75.7l-4.2-16.4h-0.1L118,75.7h-3.7L107.6,55h3.8l4.7,16.9h0.1l4.2-16.9h3.7l4.3,16.9h0.1l4.6-16.9h3.5
		L130,75.7H126.4z"/>
	<path class="st4" d="M154.5,74.4c-1.5,1.2-3.5,1.8-5.8,1.8c-1.6,0-3.1-0.3-4.3-0.8s-2.2-1.3-3.1-2.2c-0.8-1-1.5-2.1-1.9-3.4
		s-0.6-2.8-0.7-4.4c0-1.6,0.2-3,0.7-4.3s1.1-2.4,2-3.4s1.9-1.7,3.1-2.2c1.2-0.5,2.5-0.8,3.9-0.8c1.8,0,3.4,0.4,4.6,1.1
		s2.2,1.7,2.9,2.9s1.2,2.5,1.5,3.8c0.3,1.4,0.4,2.7,0.3,4h-15.5c0,0.9,0.1,1.8,0.3,2.6c0.2,0.8,0.6,1.5,1.2,2.2
		c0.5,0.6,1.2,1.1,2,1.5s1.8,0.6,2.9,0.6c1.4,0,2.6-0.3,3.5-1s1.5-1.7,1.8-3h3.4C157,71.5,156,73.2,154.5,74.4z M153.7,61.1
		c-0.3-0.7-0.7-1.3-1.2-1.9s-1.1-0.9-1.8-1.2s-1.5-0.5-2.3-0.5c-0.9,0-1.7,0.1-2.4,0.5c-0.7,0.3-1.3,0.7-1.8,1.3
		c-0.5,0.5-0.9,1.1-1.2,1.9s-0.5,1.5-0.5,2.3h11.9C154.2,62.6,154,61.8,153.7,61.1z"/>
	<path class="st4" d="M164.4,55v4.4h0.1c0.8-1.7,1.8-2.9,3-3.7s2.7-1.2,4.6-1.1v3.6c-1.4,0-2.5,0.2-3.5,0.6c-1,0.4-1.7,0.9-2.3,1.6
		s-1,1.6-1.3,2.6s-0.4,2.2-0.4,3.5v9.2h-3.4V55H164.4z"/>
	<path class="st4" d="M188.6,74.4c-1.5,1.2-3.5,1.8-5.8,1.8c-1.7,0-3.1-0.3-4.3-0.8s-2.2-1.3-3.1-2.2c-0.8-1-1.5-2.1-1.9-3.4
		s-0.6-2.8-0.7-4.4c0-1.6,0.2-3,0.7-4.3s1.1-2.4,2-3.4s1.9-1.7,3.1-2.2c1.2-0.5,2.5-0.8,3.9-0.8c1.8,0,3.4,0.4,4.6,1.1
		s2.2,1.7,2.9,2.9s1.2,2.5,1.5,3.8c0.3,1.4,0.4,2.7,0.3,4h-15.5c0,0.9,0.1,1.8,0.3,2.6c0.2,0.8,0.6,1.5,1.2,2.2
		c0.5,0.6,1.2,1.1,2,1.5s1.8,0.6,2.9,0.6c1.4,0,2.6-0.3,3.5-1s1.5-1.7,1.8-3h3.4C191.1,71.5,190.1,73.2,188.6,74.4z M187.8,61.1
		c-0.3-0.7-0.7-1.3-1.2-1.9s-1.1-0.9-1.8-1.2s-1.5-0.5-2.3-0.5c-0.9,0-1.7,0.1-2.4,0.5c-0.7,0.3-1.3,0.7-1.8,1.3s-0.9,1.1-1.2,1.9
		s-0.5,1.5-0.5,2.3h11.9C188.3,62.6,188.1,61.8,187.8,61.1z"/>
	<path class="st4" d="M210.5,75.7v-2.8h-0.1c-0.6,1.1-1.4,2-2.6,2.5s-2.5,0.8-4,0.8c-1.6,0-3-0.3-4.2-0.9s-2.2-1.4-3-2.4
		s-1.4-2.1-1.8-3.4s-0.6-2.7-0.6-4.2s0.2-2.9,0.6-4.2s1-2.4,1.8-3.4s1.8-1.8,3-2.3s2.6-0.9,4.1-0.9c0.5,0,1.1,0.1,1.7,0.2
		s1.2,0.3,1.8,0.5s1.2,0.6,1.7,1s1,0.9,1.4,1.5h0.1V47.1h3.4v28.6H210.5L210.5,75.7z M198.3,68.4c0.2,0.9,0.6,1.7,1.2,2.5
		s1.2,1.3,2,1.7s1.8,0.6,2.9,0.6c1.2,0,2.1-0.2,2.9-0.7s1.5-1.1,2-1.8s0.9-1.6,1.1-2.5s0.3-1.9,0.3-2.8c0-1-0.1-2-0.4-2.9
		c-0.2-0.9-0.6-1.8-1.1-2.5s-1.2-1.3-2-1.7s-1.8-0.7-3-0.7c-1.1,0-2.1,0.2-2.9,0.7s-1.4,1.1-1.9,1.8s-0.8,1.6-1,2.6s-0.3,1.9-0.3,3
		C197.9,66.5,198,67.4,198.3,68.4z"/>
	<path class="st4" d="M233.8,47.1v10.7h0.1c0.6-1.1,1.4-2,2.6-2.5s2.5-0.8,4-0.8c1.6,0,3,0.3,4.2,0.9c1.2,0.6,2.2,1.4,3,2.4
		s1.4,2.2,1.8,3.5s0.6,2.7,0.6,4.2s-0.2,2.9-0.6,4.2s-1,2.4-1.8,3.4s-1.8,1.7-3,2.3s-2.6,0.8-4.1,0.8c-0.5,0-1.1-0.1-1.7-0.2
		s-1.2-0.3-1.9-0.5s-1.2-0.6-1.7-1s-1-0.9-1.4-1.5h-0.1v2.8h-3.4V47.1H233.8L233.8,47.1z M246,62.4c-0.2-0.9-0.6-1.7-1.2-2.5
		c-0.5-0.7-1.2-1.3-2-1.7s-1.8-0.6-2.9-0.6c-1.2,0-2.1,0.2-2.9,0.7s-1.5,1.1-2,1.8s-0.9,1.6-1.1,2.5c-0.2,0.9-0.3,1.9-0.3,2.8
		c0,1,0.1,2,0.4,2.9c0.2,0.9,0.6,1.8,1.1,2.5s1.2,1.3,2,1.7s1.8,0.7,3,0.7s2.2-0.2,2.9-0.7c0.8-0.4,1.4-1.1,1.9-1.8
		c0.5-0.8,0.8-1.6,1-2.6s0.3-1.9,0.3-3C246.4,64.2,246.3,63.3,246,62.4z"/>
	<path class="st4" d="M262.2,78.5c-0.4,1-0.8,1.9-1.2,2.6s-0.8,1.3-1.3,1.7c-0.5,0.4-1,0.8-1.6,1s-1.2,0.3-2,0.3
		c-0.4,0-0.8,0-1.2-0.1s-0.8-0.1-1.2-0.3v-3.1c0.3,0.1,0.6,0.2,1,0.3s0.7,0.1,1,0.1c0.7,0,1.3-0.2,1.7-0.5c0.5-0.3,0.8-0.8,1.1-1.4
		l1.4-3.5L251.8,55h3.8l6,16.9h0.1l5.8-16.9h3.6L262.2,78.5z"/>
</g>
<g id="Layer_2_00000162312889844565335150000008119296067158155935_">
	<g id="Layer_1-2_00000032629741788532465560000017188803208126106287_">
		<path class="st4" d="M296.9,77.5l-2.8,2.8l-17-14.2l17-14.2l2.8,2.8L283.1,66L296.9,77.5z"/>
		<path class="st4" d="M319.4,52v27.9h-6.4V52h-9v-5.2h24.6V52H319.4z"/>
		<path class="st4" d="M350.6,64.2c0-0.8,0-1.6-0.1-2.4c-0.1-0.6-0.3-1.2-0.7-1.7c-0.3-0.4-0.6-0.7-1.1-0.9l-1.3-0.3
			c-0.9,0-1.8,0.4-2.8,1.1c-1,0.7-2,1.9-3.2,3.7v16.2h-6.4V54.2h5.6l0.3,3.7c0.4-0.6,0.9-1.2,1.5-1.7l1.7-1.3l2.1-0.9l2.7-0.3
			c1.2,0,2.4,0.2,3.5,0.7c1,0.4,1.9,1.1,2.5,2c0.7,0.9,1.2,2,1.5,3.3c0.3,1.3,0.4,2.9,0.4,4.6L350.6,64.2z"/>
		<path class="st4" d="M378.6,79.8v-3.3l-1.7,1.6l-2,1.2l-2.3,0.8l-2.8,0.3c-1.3,0-2.5-0.2-3.5-0.5c-0.9-0.3-1.8-0.9-2.5-1.6
			c-0.7-0.7-1.3-1.6-1.6-2.5c-0.4-1-0.5-2.1-0.5-3.2c0-1.2,0.3-2.3,0.8-3.3c0.6-1.1,1.4-2,2.4-2.7c1.1-0.7,2.4-1.3,4-1.7
			c1.6-0.4,3.5-0.7,5.6-0.7h3.3v-1.6c0-0.6-0.1-1.2-0.3-1.7c-0.2-0.5-0.5-1-0.9-1.3c-0.5-0.4-1-0.6-1.6-0.8l-2.4-0.3
			c-1.5,0-3,0.2-4.5,0.5c-1.5,0.3-2.9,0.8-4.2,1.5v-5.2c1.4-0.5,2.8-0.9,4.2-1.2c1.7-0.3,3.3-0.5,5-0.5c1.9,0,3.6,0.2,4.9,0.5
			c1.3,0.4,2.4,0.9,3.3,1.6c0.9,0.7,1.6,1.6,2,2.7c0.4,1.1,0.7,2.3,0.7,3.8v17.7H378.6z M377.7,68.6H374l-2.7,0.3
			c-0.6,0.2-1.2,0.4-1.7,0.8c-0.4,0.3-0.8,0.7-1.1,1.2c-0.2,0.5-0.3,1-0.3,1.5c0,1.1,0.4,1.9,1.1,2.4c0.7,0.5,1.6,0.8,2.8,0.8
			s2-0.3,2.7-0.9c0.6-0.6,1.6-1.5,3.1-2.7L377.7,68.6z"/>
		<path class="st4" d="M407,79.8V76l-1.7,1.9l-1.9,1.3l-2.1,0.9l-2.5,0.3c-1.5,0-2.8-0.3-4-0.9c-1.2-0.6-2.2-1.5-2.9-2.7
			c-0.8-1.2-1.4-2.5-1.9-4.1c-0.4-1.7-0.7-3.5-0.7-5.3c0-2.4,0.4-4.4,1.1-6.1c0.7-1.7,1.6-3.1,2.8-4.2c1.2-1.2,2.7-2,4.2-2.5
			c1.7-0.6,3.5-0.8,5.3-0.8h2l1.7,0.3v-9.8h6.1v35.7H407z M395.8,67.2c0,1.2,0.1,2.4,0.3,3.6c0.2,1,0.4,1.8,0.8,2.5
			c0.3,0.6,0.8,1.1,1.5,1.5c0.6,0.3,1.2,0.4,1.9,0.4c1.1,0,2-0.4,2.9-1.3c0.9-0.9,1.9-2,3.1-3.5V59.1l-1.9-0.4h-2
			c-0.9,0-1.8,0.2-2.7,0.7c-0.8,0.4-1.5,1-2,1.7c-0.6,0.8-1.1,1.7-1.3,2.7c-0.3,1.1-0.4,2.3-0.4,3.5H395.8z"/>
		<path class="st4" d="M441.8,65c0,0.4,0,1,0,1.6c0,0.6,0,1.2-0.1,1.9h-17c0,1,0.2,2,0.5,2.9c0.3,0.8,0.8,1.5,1.5,2.1
			c0.7,0.6,1.4,1,2.3,1.3c0.9,0.3,1.9,0.4,2.9,0.4l4-0.3l4.4-0.9v4.9l-2.1,0.5l-2.4,0.4l-2.4,0.3h-2.4c-1.9,0-3.7-0.3-5.3-0.8
			c-1.5-0.5-2.9-1.4-4-2.5c-1.1-1.1-2-2.5-2.5-4c-0.5-1.6-0.8-3.5-0.8-5.6s0.3-4,0.8-5.7c0.5-1.6,1.3-3.1,2.4-4.4
			c1.1-1.2,2.4-2.2,3.8-2.8c1.5-0.7,3.2-1.1,5-1.1c1.9,0,3.5,0.3,4.8,0.8c1.3,0.5,2.5,1.4,3.5,2.4c0.9,1,1.7,2.3,2.1,3.6
			C441.4,61.6,441.8,63.3,441.8,65z M435.6,64c0-0.9-0.1-1.8-0.4-2.7c-0.2-0.7-0.6-1.3-1.1-1.9c-0.4-0.5-1-0.8-1.6-1.1l-2-0.4
			c-1.6,0-2.9,0.5-3.8,1.6c-1,1.1-1.5,2.5-1.7,4.4H435.6z"/>
		<path class="st4" d="M470.9,66.6c0,2.4-0.4,4.4-1.1,6.1c-0.7,1.7-1.6,3.1-2.8,4.2c-1.2,1.1-2.7,2-4.2,2.5
			c-1.7,0.6-3.5,0.8-5.3,0.8c-1.7,0-3.5-0.1-5.2-0.4l-4.6-1.1V44.1h6.1v8.4l-0.3,5c0.9-1.2,1.9-2.2,3.2-2.9c1.2-0.7,2.7-1.1,4.5-1.1
			s3.1,0.3,4,0.9c1.2,0.6,2.2,1.5,2.9,2.7c0.8,1.2,1.4,2.5,1.9,4.1C470.5,63,470.8,64.8,470.9,66.6z M464.4,66.8
			c0-1.2-0.1-2.4-0.3-3.6c-0.2-1-0.5-1.8-0.9-2.4c-0.3-0.6-0.8-1.1-1.3-1.5c-0.6-0.3-1.2-0.4-1.9-0.4c-1.1,0-2.1,0.4-3.1,1.3
			c-1,0.9-2,2-3.1,3.5v11.3l1.9,0.4h2.1c1.9,0,3.7-0.9,4.8-2.4c0.6-0.8,1.1-1.7,1.3-2.7c0.3-1.2,0.5-2.4,0.5-3.6H464.4z"/>
		<path class="st4" d="M492.4,79.8v-3.3l-1.7,1.6l-2,1.2l-2.3,0.8l-2.8,0.3c-1.3,0-2.5-0.2-3.5-0.5c-0.9-0.3-1.8-0.9-2.5-1.6
			c-0.7-0.7-1.3-1.6-1.6-2.5c-0.4-1-0.5-2.1-0.5-3.2c0-1.2,0.3-2.3,0.8-3.3c0.6-1.1,1.4-2,2.4-2.7c1.1-0.7,2.4-1.3,4-1.7
			c1.6-0.4,3.5-0.7,5.6-0.7h3.3v-1.6c0-0.6-0.1-1.2-0.3-1.7c-0.2-0.5-0.5-1-0.9-1.3c-0.5-0.4-1-0.6-1.6-0.8l-2.4-0.3
			c-1.5,0-3,0.2-4.5,0.5c-1.5,0.3-2.9,0.8-4.2,1.5v-5.2c1.4-0.5,2.8-0.9,4.2-1.2c1.7-0.3,3.3-0.5,5-0.5c1.9,0,3.6,0.2,4.9,0.5
			c1.3,0.4,2.4,0.9,3.3,1.6c0.9,0.7,1.6,1.6,2,2.7c0.4,1.1,0.7,2.3,0.7,3.8v17.7H492.4z M491.5,68.6h-3.7l-2.7,0.3
			c-0.6,0.2-1.2,0.4-1.7,0.8c-0.4,0.3-0.8,0.7-1.1,1.2c-0.2,0.5-0.3,1-0.3,1.5c0,1.1,0.4,1.9,1.1,2.4s1.6,0.8,2.8,0.8
			c1.2,0,2-0.3,2.7-0.9c0.6-0.6,1.6-1.5,3.1-2.7L491.5,68.6z"/>
		<path class="st4" d="M513.1,48.9h-7.3v-4.8h13.5v30.9h7.4v4.8h-21.9v-4.8h8.1L513.1,48.9z"/>
		<path class="st4" d="M541.5,48.9h-7.3v-4.8h13.5v30.9h7.4v4.8h-21.8v-4.8h8.1V48.9z"/>
		<path class="st4" d="M582.5,44.1l-17.3,41.2H561l17.4-41.2H582.5z"/>
		<path class="st4" d="M592,54.8l2.8-2.8l17,14.2l-17.1,14.1l-2.8-2.8l13.8-11.3L592,54.8z"/>
	</g>
</g>
</svg>
