<?xml version="1.0" encoding="utf-8"?>
<!-- Generator: Adobe Illustrator 27.2.0, SVG Export Plug-In . SVG Version: 6.00 Build 0)  -->
<svg version="1.1" id="Camada_1" xmlns="http://www.w3.org/2000/svg" xmlns:xlink="http://www.w3.org/1999/xlink" x="0px" y="0px"
	 viewBox="0 0 782.5 203" style="enable-background:new 0 0 782.5 203;" xml:space="preserve">
<style type="text/css">
	.st0{fill:#FFFFFF;}
	.st1{fill:#365187;}
	.st2{fill:#1DA86F;}
	.st3{fill:#F40606;}
	.st4{enable-background:new    ;}
</style>
<g>
	<path class="st0" d="M695.5,47.2h-48.3l-11.6,38h4.3l-13.5,43.1l-6.8-10.1c9-6.9,14.3-17.9,14.3-30.5c0-19.6-13.5-40.4-38.6-40.4
		h-51.8l-4.1,13.6c-6.2-8-16-13.6-28.8-13.6H295l-4.1,13.6c-6.2-8-16-13.6-28.8-13.6h-51.9l-0.5,1.6c-1.2-1.8-2.7-3.3-4.5-4.5
		c-1.8-1.2-4-2.5-6.3-3.8c-2.9-1.7-7.3-4.2-8.6-5.6c-4.9-5-9.8-6.1-13.1-6.1c-1.8,0-3.5,0.3-5.1,0.9c-5-4.9-10.5-9.3-16.4-13.1
		l-0.1-0.3l-2.7-1.4l-0.3-0.2c-1.9-1.1-3.8-2-5.7-2.8c-4.1-2-8.3-3.6-12.6-4.8c-0.5-0.8-1.1-1.6-1.9-2.2l-0.2-0.2
		c-4.2-3.7-10.6-3.4-14.5,0.7L96.3,28.4l-7.7-2.6c-3.6-1.2-7.5-1.9-11.3-1.9c-5.2,0-10.3,1.2-15.1,3.4l-6.9,3.3L48.9,34
		c-0.6,0.8-1.2,1.4-1.9,2c-3.4,2.8-5.6,6.9-6,11.3c-2.4,1.6-4.7,3.3-6.8,5.3L32.5,56l-1.9,1.4c-0.4,0.8-0.7,1.7-0.9,2.5l-0.5,5.4
		v2.1c-0.4,7.6,2.1,12,4,14.2c0.2,1.2,0.5,2.3,0.9,3.5l0,0.1l-0.2,2.4c-0.1,1.5,0,3,0.3,4.5c-1.3-0.1-2.8-0.2-4.1-0.2
		c-1.6,0-3.2,0.1-4.7,0.5c-1.8,0.5-3.5,1.2-5,2.3l-1.8,1.3l-1.6,1.9c-1.8,2.1-2.8,4.8-2.8,7.6v0.1c-1.6,2.5-2.3,5.5-2,8.5
		c0.2,2.1,0.7,4.1,1.7,6l-2.4,3l-0.3,0.5c-1.6,2.7-1.7,6-0.4,8.9c1.1,2.4,3.6,5.4,9.3,6.6l5.2,1.1l8.9-11.2c1.8-0.3,3.5-0.8,5-1.6
		c1.3,0,2.5,0.4,3.6,1.1l0.3,0.2c1.7,1.1,3.7,2.3,5.9,3.6l-0.4,2.7l-1.2,2.9c-1.1,1.1-2.1,2.4-2.8,3.8c-4.1,7.7-0.8,17.6-0.2,19.5
		l2.1,5.7h11.9l10.2,0.1v-0.1h14.7l9.2,0l-0.6-9.2c-0.2-3.1,0.8-9.2,3.1-10.1l0.2-0.1c-0.7,3.8-0.8,7.8-0.3,11.6l0.8,7.7h13.3l8.4,0
		v0h45.2l12.9,0.2l-0.1-0.2h7.4l0.7-7.8c0.1-0.7,1.7-17.8,1.7-33.6c0-18.2-16-27.2-27.7-33.7c-2.1-1.2-4-2.2-5.8-3.3l-0.5-0.3
		l-0.5-0.2c-0.3-0.1-0.7-0.3-1.1-0.5c2.4-1.2,4.6-2.7,6.7-4.5c0.8,0.8,1.6,1.7,2.4,2.6c7.6,7.9,13.4,11.6,18.8,11.9
		c0.3,0,0.5,0,0.8,0l0,0c11.4,0,16.4-13.5,19.4-21.6c0.3-0.9,0.8-2.1,1-2.6c0.6-0.9,2.6-3.4,4-5l1.5-1.8l-5.8,19.1h9.4v72.3h56.6
		c12,0,21.6-4.5,28.2-11.2v11.2h90.3v-38h-8.8V85.2h17.3v72.3h43l11.6-38h-11.5V85.2h21.8v72.3H513c12,0,21.6-4.5,28.2-11.2v11.2
		h43.1v-18.4l10.9,18.4h67.4l3-10.9h16.1l3,10.9h45.4L695.5,47.2z M112.2,62.8c0.1-0.1,0.3-0.3,0.4-0.4c4.8,5.3,9.5,10.3,11.8,12.4
		l-6.3,13c-1.4-0.8-2.5-2.1-2.9-3.7C117.1,76.6,115.1,69,112.2,62.8z M114.9,85.2c0,0.5-0.1,1-0.1,1.5c-0.1-0.1-0.3-0.2-0.4-0.3
		C114.6,86.1,114.7,85.6,114.9,85.2L114.9,85.2z M499.5,119.4h5.9c0.3,0,0.5,0,0.8,0c-0.2,0-0.5,0-0.8,0L499.5,119.4L499.5,119.4z
		 M584.3,85.2h3.4c0.6,0,1.2,0,1.2,1.4c0,1.2-0.5,1.2-1.2,1.2h-3.4V85.2z M251,119.4h5.9c0.3,0,0.5,0,0.8,0c-0.2,0-0.5,0-0.8,0
		L251,119.4L251,119.4z"/>
	<path class="st1" d="M689.6,55.9H654l-6.3,20.8h4.3l-22.5,71.5l-21.9-32.9c12.2-4.6,18-15.9,18-27.6c0-15.7-10.5-31.8-30-31.8
		h-45.4l-6.3,20.8h6.3v72.3H576v-31.6h4l-3.2-8.4l4.8,8.4l0,0l18.7,31.6h56l3.1-10.9h29.2l3,10.9h27.1L689.6,55.9z M588,96.5h-12
		V78.3l-9.8-1.6h9.8v0h12c6.6,0,9.9,5.1,9.9,10C597.9,91.6,594.6,96.5,588,96.5z M681.6,117.3H665v0h-9.2l9.6-1.5l8.7-31.3l9,32.9
		l0,0l2.3,8.2L681.6,117.3z"/>
	<path class="st1" d="M528.3,100.2c6.3-4,10.1-11,10-18.5c0-12.7-10-25.8-27.5-25.8h-45.5L459,76.6h6.3v72.3h48
		c19,0,30-13.9,30-27.3C543.3,112.7,538.7,104.2,528.3,100.2z M491.2,76.7L491.2,76.7h12c5.3,0,8,3.4,8,6.8s-2.7,6.7-8,6.7h-12v-12
		l-9.9-1.6L491.2,76.7z M505.8,128.2h-14.6v-15.7l-9.9-1.6h9.9l0,0h14.6c7,0,10.5,4.4,10.5,8.7C516.3,123.9,512.7,128.2,505.8,128.2
		L505.8,128.2z"/>
	<polygon class="st2" points="375.1,76.6 400.5,76.6 400.5,148.9 423.6,148.9 426.3,148.9 428.5,148.9 434.8,128.2 426.3,128.2 
		426.3,77.9 418.8,76.7 426.3,76.7 426.3,76.6 450.6,76.6 457,55.9 381.4,55.9 	"/>
	<path class="st2" d="M279.9,100.2c6.3-4,10.1-11,10-18.5c0-12.7-10-25.8-27.5-25.8h-45.4l-6.3,20.8h6.3v72.3h48
		c19,0,30-13.9,30-27.3C294.9,112.7,290.2,104.2,279.9,100.2z M242.8,76.7L242.8,76.7l12,0c5.3,0,8,3.4,8,6.8c0,3.4-2.7,6.7-8,6.7
		h-12V78l-8.3-1.3H242.8z M257.3,128.2h-14.6v-16l-8.3-1.3h8.3l0,0h14.6c7,0,10.5,4.4,10.5,8.7C267.8,123.9,264.3,128.2,257.3,128.2
		L257.3,128.2z"/>
	<polygon class="st2" points="327.6,114.9 319.9,113.6 327.6,113.6 327.6,113.6 365.9,113.6 365.9,92.9 327.6,92.9 327.6,77.9 
		319.9,76.7 327.6,76.7 327.6,76.6 367.2,76.6 373.5,55.9 301.8,55.9 295.4,76.6 301.8,76.6 301.8,148.9 374.8,148.9 374.8,128.2 
		327.6,128.2 	"/>
	<path class="st1" d="M161,46.4c-1.9-7.3-9.4-11.7-16.7-9.8c-2.3,0.6-4.5,1.8-6.2,3.5c12.3,4,17,8.8,18.5,10.7L161,46.4z"/>
	<path class="st1" d="M134.8,45.2c0,0.1-0.1,0.2-0.1,0.3c-2.4,7.2,1.5,14.9,8.7,17.3c0,0,0,0,0,0c0.3,0.1,0.7,0.2,1,0.3l8.4-8.5
		C148.6,49.3,138.3,46.1,134.8,45.2z"/>
	<polygon class="st2" points="173.2,38.2 173.2,38.2 173.2,38.2 	"/>
	<path class="st2" d="M184.3,40.7c-3.6-3.7-7.6-4.4-10.6-2.3l0,0l-0.2,0.1l0,0l-2.7,1.9c-2.9-3.2-18.7-19.8-33.2-22.8
		c0,0-23.3,5.5-34.7,21c0,0,22.2,24.9,27.5,29.8c5.3,4.9,11.2,11.1,14.2,11.1s12.9-9.5,12.9-9.5s13.8,17.8,20.9,18.3
		s11.4-16.8,13.2-19.8c1.7-3.1,10.6-12.5,11.1-14.8C203.4,51.3,189,45.5,184.3,40.7z M115,35.9c-0.2-0.2-0.2-0.6,0-0.8
		c0.1-0.1,0.2-0.2,0.4-0.2c5.7-0.6,29.4-2.8,43.1,1.6c0.4,0.1,0.7,0.4,0.9,0.7c1,1.5,3.9,5.8,4.9,8.3c0,0-17.6,16.8-20.1,20.3
		c0,0-6.9,1.1-7.6,1.1S121.7,42.8,115,35.9L115,35.9z M156.5,70.1l-0.4,0.4c0,0-7.4,5.9-8.4,6.8c-1,1-2.7,2-6.8-1
		c0,0,2.5,0.5,3.5-3.1c1-3.6-1.1-6.7,2.5-9c3.7-2.2,5.2-0.6,6.2,0.4c1,1.1,3.8,5.1,3.8,5.1L156.5,70.1z M154.3,56.3
		c1-1.8,9-8.9,13.1-12.5c1.9-1.6,3.8-3.1,5.9-4.4c3.2,5.4,7.3,23.9,7.3,23.9C178.2,63.7,154.3,56.3,154.3,56.3z"/>
	<path class="st1" d="M37.6,64.8c0,0,3.4,2.1,3.8,4.5c0.4,2.3-3.1,3.6-1.9,6.6C39.5,75.9,36.2,73.4,37.6,64.8z"/>
	<path class="st1" d="M42.5,73.4c0,0,2.4,2,7.3,2s8,2.1,7.1,5.2c-0.9,3-4.5,3.6-4.7,5.2c0,0-0.4-2.1-1.7-3c0,0,0.7,4.8-0.9,5.8
		C49.5,88.5,37.2,84,42.5,73.4z"/>
	<path class="st1" d="M81.6,51.7c0,0-2.8-8.8-12.6-9.7c-9.8-0.9-13.8,5.5-13.8,5.5s-1.2-0.3,0.5-2.4c0,0-5.5,1.9-6.1,6.5
		c0,0-11.1,6.4-12,10c4.2,1.6,8.9,1.4,12.9-0.5c0,2.1-1.3,3.9-3.2,4.5c-3.4,1.3-4.1,3.2-3,5.3c1.8,3.3,11.4,0.1,15.1,2.5
		c3.7,2.4,0,6,0,6s8-2.3,8.3-8.9c0,0,3.4,1.2,4.1-0.2c0,0-3.1-1.1-4.1-3.2c0,0,11.5,0,12.5-7.8s-3.4-10.8-3.4-10.8
		S80.9,49.3,81.6,51.7z M63,57.3c-3.3,0.2-4.5,1.7-4.5,1.7c0.1-2,1.4-4.7,3.6-5.5s6.4-0.2,6.2,1.3C68.2,56.3,66.2,57.2,63,57.3
		L63,57.3z"/>
	<path class="st1" d="M107.4,54.8c-3-0.4-5-3.1-9-9.5C94.3,38.9,83.2,38,83.2,38c-0.6-2.6,2.5-4.4,2.5-4.4
		c-15.7-5.3-27.2,5.8-27.2,5.8c0.5-1.8,0-3.6-1.2-5c0.1,2.5-2.5,5.9-5.3,8.1s-2.8,5.9-2.8,5.9c2.8-5.3,9.3-6.5,9.3-6.5
		c-1.8,0.7-1.4,2-1.4,2s3.6-4.5,13.1-3.1s14.5,8.3,13.9,16.3c-0.7,8-8.1,12.2-8.1,12.2c1,1.3,3.2,1,3.2,1c-1.3,3.2-6.7,3.5-6.7,3.5
		c-2.6,7-9.2,9.7-12.9,10.5s-6.5,2.8-6.5,5.1c0,1.3-0.8,2.4-2,2.8c-4.5-0.1-8.8-4.5-8.8-4.5c-0.5,7.1,6.6,10.3,6.6,10.3
		c-0.2-1-0.2-2,0-3c0.8,3.4,3,3.8,3,3.8c0.9-2.7,4.7-4,4.7-4c-2.8,2.6-0.8,3.2-2,7.6c-1.1,4.3-5.5,6.7-5.5,6.7
		c3.7-1.5,6.6,0.6,12.1-0.9c5.5-1.5,9.7-8,9.7-8c-0.2,4.4-5.1,8.9-5.1,8.9C82.3,107.8,90.3,89,90.3,89c3.8,6.4,2,11.9,2,11.9
		c17.9-12.6,2.2-32.1,2.2-32.1c9.1,3.2,11.1,16,11.1,16c6-12-6.4-26.4-6.4-26.4C105.5,58.4,107.4,54.8,107.4,54.8z M89,54.1
		c-0.4-1.7,2-3.3,2-3.3c-1.4-0.5-3.1,0.8-3.1,0.8c0.6-2.8,3.9-2.9,3.9-2.9c-2.8-1.6-6.1,0.5-6.1,0.5c-2.5-0.7-3.2-4.6-3.2-4.6
		c5.7-2.3,8.9,0.6,8.9,0.6c-1.4-0.7-2.1-0.1-2.1-0.1c2.4,0.2,4.4,1.9,4.9,4.3C95,53.5,89,54.1,89,54.1L89,54.1z"/>
	<path class="st3" d="M122.4,80.1c0,0-0.1,0-0.1-0.1L122.4,80.1z"/>
	<path class="st1" d="M89.1,105.2c1.2-2,0.5-4.6-1.4-5.7c-0.1,0-0.1-0.1-0.2-0.1c-7,11.2-21.7,14.2-21.7,14.2
		c-0.3,2.4-1.2,12.8,6.2,17.9c0,0-1.9,9.1-4.2,9.1c0,0,4.7,3.3,4.9,7.7c0,0-2.3-9.1-16.4-6.3c-8.9,2.3-4,15.9-4,15.9h5.9
		c0,0-1.6-9.6,4.5-8.4c0,0-4.9,1.6-1.9,8.4h22.5c0,0-0.9-15,8.7-18.7c0,0-10.5-12.8-2.1-26.2c0,0-7.7,29.2,27.2,26.2
		c0,0-3-6.1,0-10.3c0,0-0.2,12.6,9.8,16.2c0,0-11.2-4-18-3c-6.8,0.9-5.2,15.9-5.2,15.9h5.6c0,0,0.2-9.6,5.4-9.1c0,0-4.4,4-2.1,9.1
		H163c0,0-1.9-4.9,0-7.3c0,0,0,5.4,3.5,7.3h8.9c0,0,1.6-17.2,1.6-33s-17.6-22.5-29.5-29.8c0,0-9.3-4.1-10.2-6.3c0,0,2.6-3.7-3.7-6.9
		c-6.3-3.1-7.3,0.2-11.3-2c0.4,0.2,1.8,1.3,1.1,4.9c-0.8,4.2,2.2,8.3,5.2,8.3c3,0,3.9-1.1,3.9-1.1c9.8,7.5,29,13.3,35.6,32.1
		c0,0-12.9-19.9-38.2-23.6c0,0-11.2,3.5-10.8,11.5c0,0-2.1-7.3,3.7-11c0,0-18.2-8.8-18.7-12.9C101.5,100.2,89.1,105.2,89.1,105.2z"
		/>
	<path class="st2" d="M152.8,30.9l-3.8-8.7c0,0-15.9-8.3-20.3-7.5c-4.5,0.8-23.4,17.1-25.6,23.9c0,0,19.5-12.4,19.3-13.1
		c-0.2-0.7,10.1-3.3,10.1-3.3l11,4.4L152.8,30.9z"/>
	<path class="st1" d="M126.7,11l-0.3-0.2c-0.7-0.6-1.8-0.6-2.5,0.1L96.3,40.7c0.9,0.7,1.7,1.5,2.3,2.6l28.2-30.4
		C127.2,12.3,127.2,11.5,126.7,11C126.7,11.1,126.7,11.1,126.7,11z"/>
	<path class="st1" d="M60.3,114.3l-0.7-0.2c-0.6,0.7-1.1,1.3-1.4,1.8c0.6,0.5,1.3,1,1.8,1.5c1.6,1.8,1.7,2.4,1.7,2.4
		s-9.1-2.2-11.7-4.1s-6.5-6.6-6.5-6.6s2.2-1.2,1.1-2.3c-1.1-1.2-2.6-2.8-2.6-2.8l0.6-0.6l-1.9-2.5l-2.8,3.1c-0.4-0.1-0.7-0.5-0.7-1
		c0-0.2,0.1-0.3,0.2-0.4c0.4-0.5,0.7-1.1,1-1.7c0,0-8.4-1.2-11.1-0.5s-4.8,3-4.8,4.7s0.2,3.5-1,4.4c-1.3,0.9-2.5,6.6,3.6,9.7
		l-6.7,8.4c0,0-1.1,1.9,3.1,2.7l7.9-10c0,0,4.2-0.1,5.9-1.3c1.6-1.2,7.3-1.4,12,1.6s11.6,7.5,19.9,7.6c-3.4-4.4-4.3-10.2-2.3-15.4
		c-0.8-0.8-1.6-1.6-2.2-2.5c-1.1,1.3-2,2.5-2.8,3.5L60.3,114.3z M37,109.6c-1.1,0-2.2-0.2-3.3-0.6c0,0,1.8,3,4.9,2.7
		c0,0-0.9,2.7-3.4,2.3c-2.5-0.3-5.5-2.1-5.5-2.1c0,1.7,1.2,3.2,2.8,3.6c0,0-5,0.4-6.9-1.2s-1.4-4.8-1.4-4.8s3.7-0.2,5.6-2.3
		s-1.2-4.1,4.7-4.7c0,0,3,4.9,4.9,5C41.4,107.7,38.7,109.6,37,109.6z"/>
	<path class="st1" d="M61.4,116.6l-1.7,0.6c0,0-7-5.5-10.2-6.5c0,0,7.5,1.8,11.9-1.2l2.1,2.3L61.4,116.6z"/>
	<path class="st1" d="M39.6,103.1V102l4.7-4.7c0.4,1,1.3,1.8,2.4,2l-4.8,4.8L39.6,103.1z"/>
	<path class="st1" d="M59.5,113.3l-0.6-2.7c-5.2,1-10.6,0.5-15.5-1.4c-8-3.3,5.7,9.9,5.7,9.9l12.7,4.6c0,0,1.9-1.5,1.7-2.6
		C63.3,120.1,59.5,113.3,59.5,113.3z"/>
</g>
<g>
	<g class="st4">
		<path class="st0" d="M273.4,160.7c3.2,0,5.5,0.8,7.2,2.4c1.6,1.6,2.4,3.9,2.4,6.8c0,2.9-0.8,5.2-2.4,6.8c-1.6,1.6-4,2.4-7.2,2.4
			h-9.5v12.8h-4.2v-31.2H273.4z M272,175.7c2.4,0,4.1-0.5,5.2-1.4c1.1-1,1.6-2.4,1.6-4.3s-0.5-3.3-1.6-4.3c-1.1-1-2.8-1.5-5.2-1.5
			h-8.1v11.5C263.9,175.7,272,175.7,272,175.7z"/>
		<path class="st0" d="M287,176c0.5-1.4,1.2-2.7,2.1-3.8c0.9-1.1,2.1-1.9,3.5-2.5c1.4-0.6,2.9-0.9,4.7-0.9c1.8,0,3.4,0.3,4.7,0.9
			c1.4,0.6,2.5,1.5,3.4,2.5c0.9,1.1,1.6,2.3,2.1,3.8c0.5,1.4,0.7,3,0.7,4.7s-0.2,3.2-0.7,4.6c-0.5,1.4-1.2,2.7-2.1,3.7
			c-0.9,1.1-2.1,1.9-3.4,2.5c-1.4,0.6-2.9,0.9-4.7,0.9s-3.4-0.3-4.7-0.9c-1.4-0.6-2.5-1.4-3.5-2.5c-0.9-1.1-1.6-2.3-2.1-3.7
			c-0.5-1.4-0.7-3-0.7-4.6C286.3,179,286.5,177.4,287,176z M290.8,184.3c0.4,1.1,0.9,2,1.5,2.7s1.4,1.3,2.3,1.6
			c0.9,0.4,1.8,0.6,2.7,0.6s1.9-0.2,2.7-0.6c0.9-0.4,1.6-0.9,2.3-1.6c0.6-0.7,1.1-1.6,1.5-2.7c0.4-1.1,0.5-2.3,0.5-3.7
			s-0.2-2.6-0.5-3.7c-0.4-1.1-0.9-2-1.5-2.7s-1.4-1.3-2.3-1.7c-0.9-0.4-1.8-0.6-2.7-0.6s-1.9,0.2-2.7,0.6c-0.9,0.4-1.6,0.9-2.3,1.7
			s-1.1,1.6-1.5,2.7s-0.5,2.3-0.5,3.7C290.2,182,290.4,183.2,290.8,184.3z"/>
		<path class="st0" d="M331.1,191.9l-4.6-18h-0.1l-4.6,18h-4l-7.3-22.6h4.1l5.1,18.5h0.1l4.6-18.5h4.1l4.7,18.5h0.1l5.1-18.5h3.9
			l-7.2,22.6H331.1z"/>
		<path class="st0" d="M361.8,190.5c-1.7,1.3-3.8,1.9-6.4,1.9c-1.8,0-3.4-0.3-4.7-0.9c-1.3-0.6-2.4-1.4-3.3-2.5
			c-0.9-1.1-1.6-2.3-2-3.8c-0.5-1.5-0.7-3.1-0.8-4.8c0-1.7,0.3-3.3,0.8-4.7c0.5-1.4,1.3-2.7,2.2-3.7c0.9-1.1,2.1-1.9,3.4-2.5
			c1.3-0.6,2.7-0.9,4.3-0.9c2,0,3.7,0.4,5,1.2c1.3,0.8,2.4,1.9,3.2,3.2c0.8,1.3,1.4,2.7,1.7,4.2c0.3,1.5,0.4,3,0.4,4.3h-16.9
			c0,1,0.1,1.9,0.4,2.8c0.3,0.9,0.7,1.7,1.3,2.4s1.3,1.2,2.2,1.6c0.9,0.4,2,0.6,3.2,0.6c1.6,0,2.9-0.4,3.9-1.1s1.7-1.8,2-3.3h3.7
			C364.6,187.3,363.5,189.2,361.8,190.5z M360.9,176c-0.3-0.8-0.8-1.5-1.4-2c-0.6-0.6-1.2-1-2-1.4c-0.8-0.3-1.6-0.5-2.6-0.5
			s-1.8,0.2-2.6,0.5c-0.8,0.3-1.4,0.8-2,1.4s-1,1.3-1.3,2c-0.3,0.8-0.5,1.6-0.6,2.5h13C361.5,177.6,361.3,176.8,360.9,176z"/>
		<path class="st0" d="M372.7,169.3v4.8h0.1c0.9-1.8,2-3.2,3.3-4.1c1.3-0.9,3-1.3,5-1.2v3.9c-1.5,0-2.8,0.2-3.8,0.6s-1.9,1-2.5,1.8
			c-0.6,0.8-1.1,1.7-1.4,2.9c-0.3,1.1-0.4,2.4-0.4,3.9v10h-3.8v-22.6H372.7z"/>
		<path class="st0" d="M399.1,190.5c-1.7,1.3-3.8,1.9-6.4,1.9c-1.8,0-3.4-0.3-4.7-0.9c-1.3-0.6-2.4-1.4-3.3-2.5
			c-0.9-1.1-1.6-2.3-2-3.8c-0.5-1.5-0.7-3.1-0.8-4.8c0-1.7,0.3-3.3,0.8-4.7c0.5-1.4,1.3-2.7,2.2-3.7c0.9-1.1,2.1-1.9,3.4-2.5
			c1.3-0.6,2.7-0.9,4.3-0.9c2,0,3.7,0.4,5,1.2c1.3,0.8,2.4,1.9,3.2,3.2c0.8,1.3,1.4,2.7,1.7,4.2c0.3,1.5,0.4,3,0.4,4.3H386
			c0,1,0.1,1.9,0.4,2.8c0.3,0.9,0.7,1.7,1.3,2.4s1.3,1.2,2.2,1.6c0.9,0.4,2,0.6,3.2,0.6c1.6,0,2.9-0.4,3.9-1.1s1.7-1.8,2-3.3h3.7
			C401.9,187.3,400.8,189.2,399.1,190.5z M398.2,176c-0.3-0.8-0.8-1.5-1.4-2c-0.6-0.6-1.2-1-2-1.4c-0.8-0.3-1.6-0.5-2.6-0.5
			s-1.8,0.2-2.6,0.5c-0.8,0.3-1.4,0.8-2,1.4s-1,1.3-1.3,2c-0.3,0.8-0.5,1.6-0.6,2.5h13C398.8,177.6,398.6,176.8,398.2,176z"/>
		<path class="st0" d="M423.1,191.9v-3H423c-0.6,1.3-1.6,2.2-2.9,2.7c-1.3,0.6-2.8,0.8-4.3,0.8c-1.8,0-3.3-0.3-4.6-1
			c-1.3-0.6-2.4-1.5-3.2-2.6c-0.9-1.1-1.5-2.3-1.9-3.8c-0.4-1.4-0.7-2.9-0.7-4.6s0.2-3.1,0.6-4.6c0.4-1.4,1.1-2.7,1.9-3.7
			s1.9-1.9,3.2-2.5c1.3-0.6,2.8-0.9,4.5-0.9c0.6,0,1.2,0.1,1.9,0.2c0.7,0.1,1.3,0.3,2,0.6c0.7,0.3,1.3,0.6,1.9,1.1
			c0.6,0.5,1.1,1,1.5,1.7h0.1v-11.6h3.7v31.2H423.1z M409.7,183.9c0.3,1,0.7,1.9,1.3,2.7s1.3,1.4,2.2,1.9s1.9,0.7,3.1,0.7
			c1.3,0,2.3-0.2,3.2-0.7s1.6-1.1,2.1-1.9c0.6-0.8,1-1.7,1.2-2.7c0.2-1,0.4-2.1,0.4-3.1c0-1.1-0.1-2.2-0.4-3.2s-0.7-1.9-1.2-2.7
			c-0.6-0.8-1.3-1.4-2.2-1.9s-2-0.7-3.3-0.7c-1.3,0-2.3,0.2-3.2,0.7s-1.6,1.2-2.1,2c-0.5,0.8-0.9,1.8-1.1,2.8
			c-0.2,1-0.4,2.1-0.4,3.2C409.3,181.9,409.5,182.9,409.7,183.9z"/>
		<path class="st0" d="M448.6,160.7v11.7h0.1c0.6-1.3,1.6-2.2,2.9-2.7c1.3-0.6,2.8-0.9,4.3-0.9c1.8,0,3.3,0.3,4.6,1
			c1.3,0.6,2.4,1.5,3.2,2.6c0.9,1.1,1.5,2.4,1.9,3.8s0.7,2.9,0.7,4.6c0,1.6-0.2,3.1-0.6,4.6c-0.4,1.4-1.1,2.7-1.9,3.7
			c-0.9,1.1-1.9,1.9-3.2,2.5c-1.3,0.6-2.8,0.9-4.5,0.9c-0.6,0-1.2-0.1-1.9-0.2c-0.7-0.1-1.4-0.3-2-0.6c-0.7-0.3-1.3-0.6-1.9-1.1
			s-1.1-1-1.5-1.7h-0.1v3H445v-31.2H448.6z M462,177.3c-0.3-1-0.7-1.9-1.3-2.7c-0.6-0.8-1.3-1.4-2.2-1.9c-0.9-0.5-1.9-0.7-3.1-0.7
			c-1.3,0-2.3,0.2-3.2,0.7s-1.6,1.1-2.1,1.9c-0.6,0.8-1,1.7-1.2,2.7c-0.2,1-0.4,2.1-0.4,3.1c0,1.1,0.1,2.2,0.4,3.2
			c0.3,1,0.7,1.9,1.2,2.7c0.6,0.8,1.3,1.4,2.2,1.9s2,0.7,3.3,0.7c1.3,0,2.4-0.2,3.2-0.7c0.9-0.5,1.6-1.2,2.1-2s0.9-1.8,1.1-2.8
			c0.2-1.1,0.4-2.1,0.4-3.2C462.4,179.4,462.3,178.4,462,177.3z"/>
		<path class="st0" d="M479.6,195c-0.4,1.1-0.9,2-1.3,2.8s-0.9,1.4-1.4,1.9s-1.1,0.8-1.7,1.1c-0.6,0.2-1.4,0.3-2.2,0.3
			c-0.4,0-0.9,0-1.3-0.1c-0.4-0.1-0.9-0.2-1.3-0.3v-3.4c0.3,0.1,0.7,0.3,1.1,0.4c0.4,0.1,0.8,0.2,1.1,0.2c0.8,0,1.4-0.2,1.9-0.5
			c0.5-0.4,0.9-0.9,1.2-1.6l1.5-3.8l-9-22.5h4.2L479,188h0.1l6.3-18.5h3.9L479.6,195z"/>
	</g>
	<g>
		<path class="st0" d="M584,201c-27.4,0-54.9,0-82.3,0c-1.2,0-1.2,0-1.2-1.2s0-2.5,0-3.7c0-0.5,0.3-0.6,0.7-0.6c1.2,0,2.4,0,3.6,0
			c53.6,0,107.1,0,160.7,0c0.5,0,1,0,1.5,0c0.4,0,0.6,0.2,0.6,0.6c0,1.5,0,2.9,0,4.4c0,0.4-0.2,0.5-0.5,0.5c-0.1,0-0.3,0-0.4,0
			C639.1,201,611.5,201,584,201z"/>
		<path class="st0" d="M537.6,172.7c0,0.3-0.1,0.5-0.1,0.8c0,5,0,10,0,14.9c0,0.8-0.1,0.9-0.8,0.9c-1.6,0-3.2,0-4.9,0
			c-0.5,0-0.7-0.2-0.7-0.7c0-1.1,0-2.3,0-3.4c0-7.2,0-14.5,0-21.7c0-0.9,0.1-1,1-1c1.7,0,3.4,0,5.1,0c0.6,0,1,0.2,1.3,0.7
			c2.3,3.3,4.6,6.5,7,9.8c1.1,1.5,2.1,3,3.2,4.5c0.1,0.1,0.1,0.2,0.2,0.3c0.1,0.1,0.3,0.2,0.4,0.1c0.1,0,0.2-0.2,0.2-0.4
			c0-0.4,0-0.9,0-1.3c0-4.2,0-8.5,0-12.7c0-0.9,0.1-1,1-1c1.5,0,3,0,4.5,0c0.7,0,0.8,0.1,0.8,0.8c0,7.1,0,14.2,0,21.3
			c0,1.3,0,2.5,0,3.8c0,0.7-0.1,0.8-0.8,0.8c-1.6,0-3.3,0-4.9,0c-0.4,0-0.8-0.2-1-0.5c-1.4-2-2.7-4-4.1-6c-2-2.9-4-5.7-6-8.6
			c-0.4-0.5-0.7-1.1-1.1-1.6C537.7,172.6,537.6,172.6,537.6,172.7z"/>
		<path class="st0" d="M564.3,172.7c0,0.2-0.1,0.5-0.1,0.7c0,4.9,0,9.8,0,14.7c0,1-0.1,1.1-1.1,1.1c-1.5,0-3,0-4.5,0
			c-0.7,0-0.9-0.1-0.9-0.8c0-8.3,0-16.7,0-25c0-0.8,0.1-0.8,0.9-0.9c1.8,0,3.7,0,5.5,0c0.3,0,0.7,0.2,0.8,0.5c0.7,0.9,1.3,1.8,2,2.7
			c1.3,1.8,2.5,3.6,3.8,5.3c1.5,2.1,3,4.2,4.5,6.4c0.1,0.1,0.1,0.2,0.2,0.3c0.1,0.1,0.3,0.2,0.5,0.2c0.1-0.1,0.2-0.3,0.2-0.4
			c0-1.1,0-2.2,0-3.4c0-3.6,0-7.1,0-10.7c0-0.8,0.1-0.9,0.9-0.9c1.5,0,3,0,4.5,0c0.9,0,1,0.1,1,0.9c0,5.3,0,10.6,0,16
			c0,0.5-0.2,0.9-0.3,1.4c-1,2.2-2.1,4.4-3.1,6.5c-0.3,0.5-0.5,1-0.8,1.6c-0.1,0.1-0.2,0.2-0.3,0.3c-0.6,0.3-1.8,0.1-2.2-0.5
			c-1.4-1.9-2.7-3.9-4.1-5.8c-1.5-2.1-3-4.2-4.4-6.4c-0.8-1.1-1.5-2.2-2.3-3.3c-0.1-0.2-0.3-0.4-0.5-0.5
			C564.4,172.7,564.4,172.7,564.3,172.7z"/>
		<path class="st0" d="M650.3,175.8c0-4,0-8.1,0-12.1c0-1.2,0-1.2,1.2-1.2c4.6,0,9.3,0,13.9,0c0.6,0,1.1,0,1.7,0
			c0.5,0,0.6,0.2,0.6,0.7c0,1.5,0,3.1,0,4.6c0,0.5-0.2,0.7-0.7,0.7c-3.1,0-6.2,0-9.4,0c-0.8,0-0.9,0.1-0.9,0.9c0,0.9,0,1.8,0,2.7
			c0,0.7,0.1,0.8,0.8,0.8c3.1,0,6.2,0,9.3,0c0.8,0,0.9,0,0.9,0.9c0,1.4,0,2.7,0,4.1c0,0.8,0,0.9-0.9,0.9c-3,0-6.1,0-9.1,0
			c-0.9,0-1,0.1-1,1c0,0.9,0,1.7,0,2.6c0,0.9,0.1,1,1,1c3,0,6.1,0,9.1,0c0.8,0,0.9,0.1,0.9,0.9c0,1.4,0,2.7,0,4.1
			c0,0.8-0.1,0.9-0.8,0.9c-5.2,0-10.4,0-15.6,0c-0.9,0-1-0.1-1-1C650.3,184.1,650.3,180,650.3,175.8L650.3,175.8z"/>
		<path class="st0" d="M604.2,189.3c-1,0-1.9,0-2.9,0c-0.5,0-0.9-0.2-1.1-0.7s-0.5-1-0.8-1.6c-0.2-0.5-0.5-0.6-1-0.6
			c-2.9,0-5.7,0-8.6,0c-0.5,0-0.8,0.2-1,0.7c-0.3,0.6-0.5,1.2-0.8,1.7c-0.1,0.2-0.5,0.5-0.7,0.5c-2.1,0-4.2,0-6.3,0
			c-0.5,0-0.6-0.2-0.4-0.8c1-2.1,2-4.1,3-6.2c1.7-3.6,3.5-7.3,5.2-10.9c1.5-3.2,3-6.3,4.6-9.4c0.1-0.2,0.1-0.3,0.2-0.5
			c0.1-0.2,0.3-0.4,0.5-0.5c0.2,0.2,0.4,0.3,0.5,0.5c0.5,0.9,0.9,1.9,1.4,2.8c1.6,3.3,3.1,6.5,4.7,9.8c1.5,3.2,3.1,6.4,4.6,9.6
			c0.8,1.6,1.5,3.2,2.3,4.7c0.3,0.7,0.2,0.8-0.5,0.9C606.2,189.3,605.2,189.3,604.2,189.3z M594.3,180.8L594.3,180.8
			c0.3,0,0.5,0,0.8,0c0.2,0,0.4,0,0.6,0c0.8,0,0.9-0.2,0.6-0.9c-0.5-1.2-1.1-2.4-1.7-3.6c-0.1-0.1-0.2-0.3-0.3-0.3
			c-0.2,0-0.3,0.2-0.4,0.3c-0.6,1.2-1.1,2.5-1.7,3.7c-0.2,0.5,0,0.8,0.5,0.8C593.2,180.9,593.7,180.8,594.3,180.8z"/>
		<path class="st0" d="M500.3,175.8c0-4.1,0-8.3,0-12.4c0-0.9,0.1-0.9,0.9-0.9c2.9,0,5.7,0,8.6,0c1.3,0,2.7,0.1,4,0.4
			c2.8,0.7,4.8,2.4,6.1,5c2,4.1,0.9,9.6-3.1,12.3c-1.8,1.3-3.8,1.8-5.9,1.9c-1.1,0-2.3,0-3.4,0c-0.6,0-0.8,0.1-0.8,0.8
			c0,1.8,0,3.5,0,5.3c0,0.9-0.1,1-0.9,1c-1.5,0-3,0-4.5,0c-0.9,0-1-0.1-1-1C500.3,184.1,500.3,180,500.3,175.8L500.3,175.8z
			 M506.7,172.3L506.7,172.3c0,1.1,0,2.2,0,3.3c0,0.5,0.2,0.7,0.7,0.7c1,0,1.9,0,2.9,0c1.8,0.1,3.5-1.2,3.9-3c0.4-2-0.6-4.5-3.2-4.8
			c-1.2-0.1-2.4-0.1-3.6-0.1c-0.6,0-0.8,0.2-0.8,0.8C506.8,170.2,506.7,171.3,506.7,172.3z"/>
		<path class="st0" d="M617.8,189.6c-3.1,0-5.8-0.8-8.1-2.4c-0.6-0.4-1-1.3-1.3-2.1c-1.1-2.2-2.1-4.4-3.2-6.6
			c-0.3-0.7-0.7-1.3-0.9-2c-0.1-0.3-0.2-0.7-0.2-1.1c0.1-3.8,1.5-7,4.2-9.6c1.9-1.8,4.2-2.8,6.7-3.3c1.8-0.3,3.7-0.4,5.6,0
			c2.8,0.6,5.2,1.7,7.2,3.7c0.6,0.6,1.1,1.3,1.7,2c0.3,0.4,0.3,0.7-0.1,1c-1.5,1-3.1,2-4.6,2.9c-0.4,0.3-0.6,0-0.8-0.3
			c-0.6-1.1-1.5-1.9-2.6-2.5c-3.5-1.8-8.6-0.7-10.2,3.8c-1.1,3.2-0.6,6.1,2,8.5c1.7,1.5,3.7,2,6,1.6c2.2-0.3,3.9-1.6,5-3.6
			c0.3-0.6,0.5-0.6,1.1-0.3c1.4,0.7,2.9,1.5,4.3,2.2c0.9,0.4,0.9,0.7,0.4,1.5c-1,1.5-2.2,2.9-3.6,3.9
			C623.6,188.8,620.7,189.7,617.8,189.6z"/>
		<path class="st0" d="M631.7,175.8c0-4,0-8,0-12c0-0.3-0.1-0.6,0-0.8c0.1-0.2,0.3-0.5,0.5-0.5c1.8,0,3.6,0,5.4,0
			c0.4,0,0.5,0.2,0.5,0.5c0,0.2,0,0.4,0,0.6c0,6.1,0,12.1,0,18.2c0,0.1,0,0.3,0,0.4c0,0.8,0.1,0.9,0.9,0.9c2.2,0,4.5,0,6.7,0
			c0.7,0,1.4,0,2.2,0c0.5,0,0.8,0.2,0.8,0.7c0,1.5,0,3,0,4.6c0,0.6-0.2,0.8-0.8,0.8c-5.1,0-10.2,0-15.3,0c-0.7,0-0.8-0.2-0.8-1
			C631.7,184.1,631.7,180,631.7,175.8z"/>
		<path class="st0" d="M522.6,175.9c0-4.1,0-8.3,0-12.4c0-0.9,0.1-1,0.9-1c1.6,0,3.2,0,4.7,0c0.7,0,0.8,0.1,0.8,0.8
			c0,8.3,0,16.6,0,24.9c0,0.9-0.1,1-0.9,1c-1.6,0-3.1,0-4.7,0c-0.8,0-0.9-0.1-0.9-0.9C522.6,184.2,522.6,180.1,522.6,175.9z"/>
	</g>
</g>
</svg>
