<?xml version="1.0" encoding="utf-8"?>
<!-- Generator: Adobe Illustrator 26.2.1, SVG Export Plug-In . SVG Version: 6.00 Build 0)  -->
<svg version="1.1" xmlns="http://www.w3.org/2000/svg" xmlns:xlink="http://www.w3.org/1999/xlink" x="0px" y="0px"
	 viewBox="0 0 563 249" style="enable-background:new 0 0 563 249;" xml:space="preserve">
<style type="text/css">
	.st0{fill:#294052;}
	.st1{fill:#FFFFFF;}
	.st2{fill:#070707;}
	.st3{fill:#D7B011;}
	.st4{fill:#0C804B;}
	.st5{enable-background:new    ;}
	.st6{clip-path:url(#SVGID_00000154403784415679630020000012366971542278498728_);}
	.st7{clip-path:url(#SVGID_00000067915434022458660960000003665032228558103195_);}
</style>
<g id="Camada_1">
</g>
<g id="Camada_2">
</g>
<g id="Camada_3">
	<g id="Grupo_558_00000104696947343009390290000003843156877169031585_" transform="translate(-33 11.683)">
		<g id="Grupo_532_00000041279481618173045320000015720419949601799574_">
			<g class="st5">
				<path class="st1" d="M68.14,193.95c2.66,0,4.67,0.68,6.04,2.05s2.05,3.28,2.05,5.74c0,2.46-0.68,4.38-2.05,5.76
					c-1.37,1.38-3.38,2.06-6.04,2.03h-8.05v10.78h-3.51v-26.36H68.14z M66.96,206.58c1.99,0.02,3.45-0.38,4.38-1.22
					c0.92-0.84,1.38-2.04,1.38-3.62c0-1.58-0.46-2.77-1.38-3.6s-2.38-1.24-4.38-1.24h-6.87v9.67H66.96z"/>
				<path class="st1" d="M79.55,206.86c0.39-1.22,0.98-2.28,1.77-3.18s1.76-1.61,2.92-2.12c1.16-0.52,2.49-0.78,3.99-0.78
					c1.53,0,2.86,0.26,4.01,0.78c1.14,0.52,2.11,1.22,2.9,2.12c0.79,0.9,1.38,1.96,1.77,3.18c0.39,1.22,0.59,2.53,0.59,3.93
					c0,1.4-0.2,2.71-0.59,3.91c-0.39,1.21-0.98,2.26-1.77,3.16c-0.79,0.9-1.75,1.6-2.9,2.1c-1.15,0.5-2.48,0.76-4.01,0.76
					c-1.5,0-2.83-0.25-3.99-0.76c-1.16-0.5-2.13-1.21-2.92-2.1s-1.38-1.95-1.77-3.16c-0.39-1.21-0.59-2.51-0.59-3.91
					C78.96,209.38,79.16,208.07,79.55,206.86z M82.74,213.87c0.31,0.9,0.73,1.65,1.27,2.25c0.54,0.6,1.18,1.06,1.9,1.38
					c0.73,0.32,1.5,0.48,2.31,0.48c0.81,0,1.58-0.16,2.31-0.48c0.73-0.32,1.36-0.78,1.9-1.38c0.54-0.6,0.97-1.35,1.27-2.25
					c0.31-0.9,0.46-1.93,0.46-3.08c0-1.16-0.15-2.18-0.46-3.08c-0.31-0.9-0.73-1.66-1.27-2.27c-0.54-0.61-1.18-1.08-1.9-1.4
					c-0.73-0.32-1.5-0.48-2.31-0.48c-0.81,0-1.58,0.16-2.31,0.48c-0.73,0.32-1.36,0.79-1.9,1.4c-0.54,0.62-0.97,1.37-1.27,2.27
					c-0.31,0.9-0.46,1.93-0.46,3.08C82.28,211.94,82.44,212.97,82.74,213.87z"/>
				<path class="st1" d="M116.77,220.31l-3.88-15.17h-0.07l-3.84,15.17h-3.4l-6.13-19.09h3.47l4.32,15.62h0.07l3.84-15.62h3.43
					l3.99,15.62h0.07l4.28-15.62h3.25l-6.09,19.09H116.77z"/>
				<path class="st1" d="M142.68,219.09c-1.43,1.08-3.22,1.62-5.39,1.62c-1.53,0-2.85-0.25-3.97-0.74
					c-1.12-0.49-2.06-1.18-2.82-2.07c-0.76-0.89-1.34-1.94-1.72-3.18c-0.38-1.23-0.6-2.57-0.65-4.02c0-1.45,0.22-2.78,0.66-3.99
					c0.44-1.21,1.06-2.25,1.86-3.14c0.8-0.89,1.75-1.58,2.84-2.07c1.09-0.49,2.29-0.74,3.6-0.74c1.7,0,3.11,0.35,4.23,1.05
					s2.02,1.59,2.7,2.68c0.68,1.08,1.14,2.26,1.4,3.54c0.26,1.28,0.36,2.5,0.31,3.66h-14.29c-0.02,0.84,0.07,1.63,0.3,2.38
					c0.22,0.75,0.58,1.42,1.07,1.99c0.49,0.58,1.12,1.04,1.88,1.38c0.76,0.34,1.66,0.52,2.7,0.52c1.33,0,2.42-0.31,3.27-0.92
					c0.85-0.62,1.41-1.55,1.68-2.81h3.1C145.04,216.4,144.11,218.01,142.68,219.09z M141.93,206.84c-0.28-0.66-0.66-1.24-1.14-1.72
					s-1.05-0.86-1.7-1.14c-0.65-0.28-1.37-0.42-2.16-0.42c-0.81,0-1.54,0.14-2.2,0.42c-0.65,0.28-1.21,0.67-1.68,1.16
					c-0.47,0.49-0.84,1.06-1.11,1.72s-0.43,1.35-0.48,2.09h10.97C142.38,208.2,142.21,207.5,141.93,206.84z"/>
				<path class="st1" d="M151.84,201.22v4.02h0.07c0.76-1.55,1.7-2.7,2.81-3.43c1.11-0.74,2.51-1.08,4.21-1.03v3.32
					c-1.26,0-2.33,0.17-3.21,0.52c-0.89,0.34-1.6,0.85-2.14,1.51c-0.54,0.66-0.94,1.47-1.18,2.42c-0.25,0.95-0.37,2.04-0.37,3.27
					v8.49h-3.14v-19.09H151.84z"/>
				<path class="st1" d="M174.14,219.09c-1.43,1.08-3.22,1.62-5.39,1.62c-1.53,0-2.85-0.25-3.97-0.74
					c-1.12-0.49-2.06-1.18-2.82-2.07c-0.76-0.89-1.34-1.94-1.72-3.18c-0.38-1.23-0.6-2.57-0.65-4.02c0-1.45,0.22-2.78,0.66-3.99
					c0.44-1.21,1.06-2.25,1.86-3.14c0.8-0.89,1.75-1.58,2.84-2.07c1.09-0.49,2.29-0.74,3.6-0.74c1.7,0,3.11,0.35,4.23,1.05
					s2.02,1.59,2.7,2.68c0.68,1.08,1.14,2.26,1.4,3.54c0.26,1.28,0.36,2.5,0.31,3.66h-14.29c-0.02,0.84,0.07,1.63,0.3,2.38
					c0.22,0.75,0.58,1.42,1.07,1.99c0.49,0.58,1.12,1.04,1.88,1.38c0.76,0.34,1.66,0.52,2.7,0.52c1.33,0,2.42-0.31,3.27-0.92
					c0.85-0.62,1.41-1.55,1.68-2.81h3.1C176.49,216.4,175.57,218.01,174.14,219.09z M173.38,206.84c-0.28-0.66-0.66-1.24-1.14-1.72
					s-1.05-0.86-1.7-1.14c-0.65-0.28-1.37-0.42-2.16-0.42c-0.81,0-1.54,0.14-2.2,0.42c-0.65,0.28-1.21,0.67-1.68,1.16
					c-0.47,0.49-0.84,1.06-1.11,1.72s-0.43,1.35-0.48,2.09h10.97C173.83,208.2,173.67,207.5,173.38,206.84z"/>
				<path class="st1" d="M194.37,220.31v-2.58h-0.07c-0.52,1.06-1.33,1.82-2.44,2.29c-1.11,0.47-2.33,0.7-3.66,0.7
					c-1.48,0-2.76-0.27-3.86-0.81c-1.1-0.54-2.01-1.27-2.73-2.18c-0.73-0.91-1.27-1.97-1.64-3.18c-0.37-1.21-0.55-2.49-0.55-3.84
					c0-1.35,0.18-2.63,0.54-3.84c0.36-1.21,0.9-2.26,1.62-3.16c0.73-0.9,1.64-1.61,2.73-2.14c1.09-0.53,2.37-0.79,3.82-0.79
					c0.49,0,1.02,0.05,1.59,0.15c0.57,0.1,1.13,0.27,1.7,0.5c0.57,0.23,1.1,0.54,1.61,0.92c0.5,0.38,0.93,0.86,1.27,1.42h0.07v-9.82
					h3.14v26.36H194.37z M183.09,213.54c0.23,0.85,0.59,1.61,1.07,2.27s1.09,1.19,1.85,1.59c0.75,0.39,1.63,0.59,2.64,0.59
					c1.06,0,1.96-0.21,2.7-0.63c0.74-0.42,1.34-0.97,1.81-1.64c0.47-0.68,0.81-1.45,1.02-2.31c0.21-0.86,0.31-1.74,0.31-2.62
					c0-0.94-0.11-1.84-0.33-2.71c-0.22-0.87-0.57-1.64-1.05-2.31s-1.1-1.2-1.86-1.61c-0.76-0.41-1.69-0.61-2.77-0.61
					c-1.06,0-1.96,0.21-2.7,0.63c-0.74,0.42-1.33,0.97-1.77,1.66c-0.44,0.69-0.76,1.48-0.96,2.36c-0.2,0.89-0.3,1.8-0.3,2.73
					C182.74,211.82,182.86,212.69,183.09,213.54z"/>
				<path class="st1" d="M215.86,193.95v9.86h0.07c0.52-1.06,1.33-1.83,2.44-2.31c1.11-0.48,2.33-0.72,3.66-0.72
					c1.48,0,2.76,0.27,3.86,0.81c1.09,0.54,2.01,1.27,2.73,2.2c0.73,0.92,1.27,1.99,1.64,3.19c0.37,1.21,0.55,2.49,0.55,3.84
					c0,1.35-0.18,2.63-0.54,3.84c-0.36,1.21-0.9,2.26-1.62,3.16c-0.73,0.9-1.64,1.61-2.73,2.12c-1.1,0.52-2.37,0.78-3.82,0.78
					c-0.47,0-0.99-0.05-1.57-0.15c-0.58-0.1-1.15-0.26-1.72-0.48c-0.57-0.22-1.1-0.52-1.61-0.9c-0.5-0.38-0.93-0.85-1.27-1.42h-0.07
					v2.55h-3.14v-26.36H215.86z M227.14,208c-0.23-0.85-0.59-1.61-1.07-2.27s-1.1-1.19-1.85-1.59c-0.75-0.39-1.63-0.59-2.64-0.59
					c-1.06,0-1.96,0.21-2.7,0.63c-0.74,0.42-1.34,0.97-1.81,1.64c-0.47,0.68-0.81,1.45-1.02,2.31c-0.21,0.86-0.31,1.74-0.31,2.62
					c0,0.94,0.11,1.84,0.33,2.71s0.57,1.64,1.05,2.31s1.1,1.2,1.86,1.61c0.76,0.41,1.69,0.61,2.77,0.61c1.08,0,1.99-0.21,2.71-0.63
					c0.73-0.42,1.31-0.97,1.75-1.66c0.44-0.69,0.76-1.48,0.96-2.36c0.2-0.89,0.3-1.8,0.3-2.73
					C227.49,209.72,227.37,208.85,227.14,208z"/>
				<path class="st1" d="M242,222.86c-0.37,0.94-0.73,1.72-1.09,2.36c-0.36,0.64-0.75,1.16-1.18,1.57c-0.43,0.41-0.91,0.7-1.44,0.89
					c-0.53,0.18-1.14,0.28-1.83,0.28c-0.37,0-0.74-0.02-1.11-0.07c-0.37-0.05-0.73-0.14-1.07-0.26v-2.88
					c0.27,0.12,0.58,0.23,0.94,0.31c0.36,0.09,0.66,0.13,0.9,0.13c0.64,0,1.18-0.15,1.61-0.46c0.43-0.31,0.76-0.74,0.98-1.31
					l1.29-3.21l-7.57-18.98h3.54l5.58,15.62h0.07l5.35-15.62h3.32L242,222.86z"/>
			</g>
			<g id="Betfair_logo_00000015315824791083177960000011015334759565379733_" transform="translate(88 39.211)">
				<path id="Caminho_26_00000022531796668079398520000007743789427505307016_" class="st1" d="M217.98,165.09
					c1.65-1.87,4.09-2.85,6.57-2.64c2.67-0.15,5.34,0.08,7.94,0.7c2.67,0.68,4.61,3,4.8,5.75c0.33,3.43,0.39,6.88,0.18,10.32
					c-0.04,3.47-2.56,6.41-5.99,6.97c-2.88,0.66-5.87,0.76-8.79,0.3c-1.79-0.33-3.43-1.25-4.63-2.62c-0.04,0.72-0.08,1.32-0.12,2
					h-4.64v-32.49h4.67L217.98,165.09z M233.02,174.69h-0.16c0-1.11,0.05-2.26,0-3.37c-0.16-2.75-1.36-4.31-3.92-4.53
					c-2.44-0.19-4.9-0.18-7.34,0.03c-2.04,0.17-3.59,1.91-3.51,3.96c-0.12,2.51-0.11,5.03,0.02,7.54c-0.06,1.72,1.05,3.27,2.7,3.75
					c3.02,0.86,6.23,0.88,9.26,0.06c1.43-0.36,2.48-1.59,2.61-3.06C232.87,177.61,232.91,176.14,233.02,174.69L233.02,174.69z"/>
				<path id="Caminho_27_00000012468352673194537310000000552149461862169472_" class="st1" d="M314.91,172.94
					c-0.1-1.34-0.13-2.78-0.37-4.2c-0.12-1.07-1-1.89-2.08-1.93c-2.62-0.09-5.24-0.1-7.86,0.06c-1.35,0.1-2.47,1.09-2.72,2.42
					c-1.35-0.48-2.65-0.89-3.91-1.42c-0.27-0.24-0.4-0.58-0.37-0.94c0.22-1.21,0.96-2.26,2.02-2.88c1.85-1.13,4-1.67,6.17-1.55
					c2.73-0.04,5.46,0.15,8.16,0.57c3.43,0.57,5.84,3.68,5.54,7.14c0.09,5.29,0.03,10.59,0.02,15.88c-0.02,0.2-0.05,0.41-0.09,0.61
					h-4.52c-0.03-0.65-0.07-1.3-0.11-2.28c-1.65,2.68-4.09,2.25-6.3,2.31c-2.52,0.1-5.05-0.02-7.55-0.37
					c-2.99-0.36-5.15-3.05-4.84-6.06c-0.03-0.98-0.03-1.96,0-2.93c-0.11-2.35,1.33-4.5,3.54-5.31c1.21-0.47,2.49-0.74,3.79-0.82
					c2.7-0.11,5.4-0.05,8.09,0.17C312.72,171.75,313.86,172.27,314.91,172.94z M307.2,182.75c1.65-0.13,3.23-0.18,4.8-0.41
					c2.28-0.34,3.01-1.39,2.85-3.83c-0.02-1.58-1.28-2.86-2.86-2.91c-2.46-0.34-4.94-0.46-7.41-0.34c-3.32,0.2-3.76,0.89-3.71,4.48
					c0.02,1.6,0.45,2.3,1.93,2.58S305.76,182.62,307.2,182.75L307.2,182.75z"/>
				<path id="Caminho_28_00000160902863435456761980000014155668803884577954_" class="st1" d="M263.84,176.52h-2.81
					c-4.99,0-9.97,0.03-14.96-0.03c-1.04,0-1.31,0.37-1.14,1.38c0.08,0.48,0.06,0.97,0.14,1.45c0.34,2.03,1.34,3.03,3.87,3.18
					c2.52,0.09,5.05,0.04,7.57-0.13c1.18-0.08,2.23-0.78,2.75-1.85c0.19-0.26,0.5-0.4,0.81-0.37c1.18,0.33,2.34,0.76,3.57,1.17
					c-0.19,1.57-1.07,2.97-2.4,3.82c-1.76,1.08-3.81,1.59-5.87,1.48c-2.94,0.08-5.88-0.04-8.81-0.37c-3.39-0.42-5.94-3.28-5.98-6.7
					c-0.27-3.33-0.28-6.67-0.03-10c0.11-3.2,2.42-5.9,5.56-6.51c3.99-0.92,8.12-0.99,12.14-0.2c3.21,0.5,5.57,3.28,5.54,6.54
					C263.99,171.7,263.84,174.02,263.84,176.52z M259.21,172.41c0.37-4.46-0.77-5.52-3.89-5.8c-2.27-0.19-4.56-0.16-6.83,0.08
					c-2.85,0.3-4.17,2.65-3.42,5.71H259.21z"/>
				<path id="Caminho_29_00000013178931441563947930000000431644138802731937_" class="st1" d="M210.76,160.33l-12.66,15.79
					l-12.75-15.9c0.3-0.06,0.6-0.1,0.91-0.12c1.4,0,2.81,0,4.21,0s1.45,0,1.45-1.6c0-1.39,0-2.78,0-4.16c0-0.49,0.03-0.89,0.65-0.89
					c3.79,0.02,7.58,0.02,11.37,0.03c0.09,0,0.19,0.08,0.39,0.17v6.41h6.28L210.76,160.33z"/>
				<path id="Caminho_30_00000076595219697488109370000001496277927994073492_" class="st1" d="M194.47,179.89h-6.62v6.62h-12.42
					v-6.65h-6.65l12.85-16.01L194.47,179.89z"/>
				<path id="Caminho_31_00000140005821779755519640000000761849619994930871_" class="st1" d="M298.27,157.14
					c-0.92,0-1.85,0-2.73,0c-0.88,0-1.85,0-2.73,0.1c-1.85,0.12-3.24,1.72-3.12,3.56c0,0.03,0.01,0.06,0.01,0.1
					c0,0.64,0,1.27,0,2.05h6.44c0,1.26,0.04,2.37-0.03,3.47c0,0.23-0.49,0.58-0.74,0.59c-1.48,0.06-2.95,0.03-4.43,0.03
					c-0.37,0-0.74,0.04-1.24,0.06v19.57h-4.74v-19.61h-2.5v-4.06h2.48c0-0.85,0-1.62,0-2.39c-0.4-3.61,2.21-6.86,5.82-7.26
					c0.17-0.02,0.34-0.03,0.51-0.04c2.3-0.14,4.63-0.03,7.01-0.03L298.27,157.14z"/>
				<path id="Caminho_32_00000082370294295463556120000000119492832619461774_" class="st1" d="M281.3,182.62v3.97
					c-0.12,0.07-0.25,0.12-0.39,0.14c-2.24-0.04-4.5,0-6.73-0.18c-3.27-0.17-5.8-2.93-5.7-6.2c-0.18-3.89-0.09-7.8-0.11-11.7
					c0-0.48,0-0.96,0-1.55l-2.54-0.13v-3.96h2.53v-9.67h4.69v9.58h6.48v4.11c-1.79,0-3.54,0.06-5.28-0.02
					c-0.93-0.04-1.2,0.28-1.18,1.27c0.05,3.49,0,6.98,0.02,10.47c0,2.79,0.93,3.79,3.55,3.85
					C278.14,182.65,279.65,182.62,281.3,182.62z"/>
				<path id="Caminho_33_00000129910610248666779920000004151410706093808041_" class="st1" d="M337.77,186.7h-4.7v-24.15h4.43v2.91
					c0.18,0,0.28,0.03,0.31,0c2.47-3.06,6.75-3.96,10.23-2.15c0.35,0.18,0.68,0.39,0.98,0.65c1.54,1.3,1.52,1.85-0.06,3l-1.41,1.02
					c-1.64-1.49-3.96-1.97-6.06-1.26c-2.31,0.53-3.89,2.67-3.71,5.03c-0.02,4.54,0,9.08,0,13.63L337.77,186.7z"/>
				<path id="Caminho_34_00000120543254086797343110000014580382771710965152_" class="st1" d="M323.99,162.53h4.63
					c0.02,0.44,0.05,0.8,0.05,1.17c0,7.28,0,14.55,0.03,21.83c0,1.01-0.26,1.31-1.18,1.24c-1.15-0.08-2.3-0.02-3.53-0.02
					L323.99,162.53z"/>
				<path id="Caminho_35_00000100371301645621574100000013798957279150257818_" class="st1" d="M328.59,158.38h-4.61v-5.01h4.61
					V158.38z"/>
			</g>
		</g>
	</g>
	<g>
		<path class="st1" d="M160.8,19.39h38.29c13.88,0,25.68,11.91,25.68,25.8c0,5.9-2.2,11.34-5.55,15.62
			c5.9,4.74,9.83,12.03,9.83,19.9c0,13.77-11.68,25.45-25.45,25.45h-42.8V19.39z M194.58,53.28c4.16,0,7.52-3.35,7.52-7.52
			c0-4.16-3.35-7.52-7.52-7.52h-10.99v15.04H194.58z M198.86,87.41c4.16,0,7.52-3.35,7.52-7.52c0-4.16-3.59-7.52-7.52-7.52h-15.27
			v15.04H198.86z"/>
		<path class="st1" d="M276.98,106.15c-23.95,0-43.26-19.32-43.26-43.26c0-23.95,19.32-43.49,43.26-43.49
			c23.95,0,43.38,19.55,43.38,43.49C320.36,86.83,300.93,106.15,276.98,106.15z M276.98,42.06c-11.34,0-20.59,9.25-20.59,20.71
			c0,11.34,9.25,20.71,20.59,20.71c11.45,0,20.71-9.37,20.71-20.71C297.69,51.32,288.44,42.06,276.98,42.06z"/>
		<path class="st1" d="M331.32,19.39h22.79v63.85h31.23v22.9h-54.02V19.39z"/>
		<path class="st1" d="M393.34,79.66h23.14c0,3.7,3.35,6.71,8.44,6.71c4.63,0,8.21-2.66,8.21-6.71c0-4.28-3.93-6.82-8.44-6.82
			c-16.77,0-31.23-11.91-31.23-26.72s13.07-26.72,31.46-26.72c17.35,0,31.35,11.8,31.35,26.61h-23.02c0-3.59-3.59-6.71-8.33-6.71
			c-4.97,0-8.33,2.66-8.33,6.71c0,4.05,3.35,6.82,8.33,6.82c17.7,0,31.35,12.03,31.35,26.72c0,14.81-13.65,26.61-31,26.61
			C406.29,106.15,393.34,93.77,393.34,79.66z"/>
		<path class="st1" d="M495.22,19.39h10.18l40.83,86.76h-22.79l-5.32-11.34h-35.51l-5.21,11.34h-22.67L495.22,19.39z M509.22,75.61
			l-8.79-19.09l-8.91,19.09H509.22z"/>
		<g>
			<path class="st1" d="M159.8,117.35h10.04c7.48,0,13.55,6.07,13.55,13.55c0,7.48-6.07,13.55-13.55,13.55H159.8V117.35z
				 M169.88,137.44c3.54,0,6.43-2.89,6.43-6.43c0-3.5-2.89-6.39-6.43-6.39h-3v12.82H169.88z"/>
			<path class="st1" d="M188.27,117.35h16.83v5.89h-9.72v4.41h8.6v6h-8.6v4.98h9.72v5.82h-16.83V117.35z"/>
		</g>
		<path class="st1" d="M228.45,117.24h7.13l28.6,60.76h-15.96l-3.73-7.94h-24.87l-3.65,7.94H200.1L228.45,117.24z M238.25,156.61
			l-6.16-13.37l-6.24,13.37H238.25z"/>
		<path class="st1" d="M267.78,117.24h25.6c12.31,0,22.36,10.04,22.36,22.36c0,12.23-9.96,22.28-22.03,22.28h-9.96V178h-15.96
			V117.24z M293.62,148.11c4.86,0,8.75-3.81,8.75-8.67c0-4.86-3.89-8.75-8.75-8.75h-9.88v17.42H293.62z"/>
		<path class="st1" d="M349.12,178c-16.77,0-30.3-13.53-30.3-30.3c0-16.77,13.53-30.46,30.3-30.46c16.77,0,30.38,13.69,30.38,30.46
			C379.5,164.47,365.89,178,349.12,178z M349.12,133.12c-7.94,0-14.42,6.48-14.42,14.5c0,7.94,6.48,14.5,14.42,14.5
			c8.02,0,14.5-6.56,14.5-14.5C363.62,139.6,357.14,133.12,349.12,133.12z"/>
		<path class="st1" d="M386.35,159.45h16.2c0,2.59,2.35,4.7,5.91,4.7c3.24,0,5.75-1.86,5.75-4.7c0-3-2.75-4.78-5.91-4.78
			c-11.75,0-21.87-8.34-21.87-18.71s9.15-18.71,22.03-18.71c12.15,0,21.95,8.26,21.95,18.63H414.3c0-2.51-2.51-4.7-5.83-4.7
			c-3.48,0-5.83,1.86-5.83,4.7c0,2.84,2.35,4.78,5.83,4.78c12.39,0,21.95,8.42,21.95,18.71c0,10.37-9.56,18.63-21.71,18.63
			C395.43,178,386.35,169.33,386.35,159.45z"/>
		<path class="st1" d="M454.69,133.04h-15.8v-15.88h47.88v15.88h-16.12V178h-15.96V133.04z"/>
		<path class="st1" d="M510.69,117.24h7.13l28.6,60.76h-15.96l-3.73-7.94h-24.87l-3.65,7.94h-15.88L510.69,117.24z M520.49,156.61
			l-6.16-13.37l-6.24,13.37H520.49z"/>
		<path class="st1" d="M127.06,88.44c6.09-7.77,10.08-17.64,10.08-28.35c0-8.91-2.69-17.38-7.27-24.6
			c-13.3,12.44-26.37,24.67-39.78,37.22c3.62,4.74,6.68,8.75,11.31,14.8c-16.46-0.92-31.26-1.75-47.9-2.68
			c1.62-15.49,3.15-30.04,4.62-44.09c1.99,1.75,5.64,4.98,10.27,9.06c12.23-11.44,24.32-22.76,36.49-34.14
			c-4.55-1.55-9.38-2.41-14.36-2.41H21V150.7c13.9-13,27.52-25.75,41.51-38.84c-3.62-4.74-6.68-8.75-11.31-14.8
			c16.46,0.92,31.26,1.75,47.9,2.68c-1.62,15.49-3.15,30.04-4.62,44.09c-1.99-1.75-5.64-4.98-10.27-9.06
			c-12.9,12.07-25.64,23.99-38.48,36h52.97c24.99,0,46.2-21.21,46.2-46.2C144.92,110.28,137.78,97.05,127.06,88.44z"/>
	</g>
</g>
</svg>
