<?xml version="1.0" encoding="utf-8"?>
<!-- Generator: Adobe Illustrator 27.2.0, SVG Export Plug-In . SVG Version: 6.00 Build 0)  -->
<svg version="1.1" xmlns="http://www.w3.org/2000/svg" xmlns:xlink="http://www.w3.org/1999/xlink" x="0px" y="0px"
	 viewBox="0 0 563 249" style="enable-background:new 0 0 563 249;" xml:space="preserve">
<style type="text/css">
	.st0{clip-path:url(#SVGID_00000005955655164400626420000000885952214228560014_);}
	.st1{clip-path:url(#SVGID_00000155129921218325297810000016632246615268422803_);}
	.st2{clip-path:url(#SVGID_00000026151103396862911530000001168596254535023240_);}
	.st3{clip-path:url(#SVGID_00000062187314555321006330000010934742449571583668_);}
	.st4{clip-path:url(#SVGID_00000101092863767621364440000010455033971606197929_);}
	.st5{fill:#FFFFFF;}
	.st6{clip-path:url(#SVGID_00000017505267852439523820000003691384545152335253_);}
	.st7{clip-path:url(#SVGID_00000023266416986299468060000004127936321441183364_);}
	.st8{clip-path:url(#SVGID_00000090260039934388607350000006651771245525691034_);}
	.st9{clip-path:url(#SVGID_00000045616872261143711970000005155945432351699861_);}
	.st10{clip-path:url(#SVGID_00000177443102938977939530000007800673909244968622_);}
	.st11{clip-path:url(#SVGID_00000176733286616574938790000009883685139295739814_);}
	.st12{clip-path:url(#SVGID_00000088129746815835813220000014461483348439794610_);}
	.st13{clip-path:url(#SVGID_00000086684073458682393600000004739267287683094682_);}
	.st14{clip-path:url(#SVGID_00000132048701437226329000000013243546966170608299_);}
	.st15{clip-path:url(#SVGID_00000157273713839106777680000014468970241742013631_);}
	.st16{clip-path:url(#SVGID_00000010296544535065885480000014486150276760019128_);}
	.st17{clip-path:url(#SVGID_00000171708581697959526750000016996541694197938098_);}
	.st18{clip-path:url(#SVGID_00000069382399746909357320000012876377380050588338_);}
	.st19{fill:#FDB80F;}
	.st20{clip-path:url(#SVGID_00000047034873333832675560000011146969344603621013_);}
	.st21{clip-path:url(#SVGID_00000095338481195078860820000007689501093119030925_);}
	.st22{clip-path:url(#SVGID_00000033335198434291138900000005742674269600791719_);}
	.st23{clip-path:url(#SVGID_00000020359822513942532040000016208026534054062471_);}
</style>
<g id="Camada_1">
</g>
<g id="Camada_2">
</g>
<g id="Camada_3">
	<g>
		<defs>
			<rect id="SVGID_1_" x="3.55" y="81" width="45.72" height="74.65"/>
		</defs>
		<clipPath id="SVGID_00000046339810824539589730000000820940896100597127_">
			<use xlink:href="#SVGID_1_"  style="overflow:visible;"/>
		</clipPath>
		<g style="clip-path:url(#SVGID_00000046339810824539589730000000820940896100597127_);">
			<path d="M4.2,119.44l35.68,35.64c0.61,0.62,1.61,0.62,2.23,0l6.69-6.68c0.61-0.62,0.61-1.61,0-2.23L20.93,118.3L48.8,90.44
				c0.61-0.62,0.61-1.61,0-2.23l-6.69-6.68c-0.62-0.61-1.63-0.61-2.23,0L4.2,117.2C3.58,117.81,3.58,118.79,4.2,119.44z"/>
		</g>
	</g>
	<g>
		<defs>
			<rect id="SVGID_00000168831576207397563500000010313290392298120075_" x="513.27" y="81.15" width="45.68" height="74.76"/>
		</defs>
		<clipPath id="SVGID_00000041292467528240492150000015219491866763213211_">
			<use xlink:href="#SVGID_00000168831576207397563500000010313290392298120075_"  style="overflow:visible;"/>
		</clipPath>
		<g style="clip-path:url(#SVGID_00000041292467528240492150000015219491866763213211_);">
			<path d="M558.33,117.48l-35.68-35.64c-0.61-0.62-1.61-0.62-2.23,0l-6.68,6.68c-0.61,0.62-0.61,1.61,0,2.23l27.88,27.86
				l-27.88,27.86c-0.61,0.62-0.61,1.61,0,2.23l6.68,6.68c0.63,0.61,1.63,0.61,2.23,0l35.68-35.67
				C558.95,119.1,558.95,118.12,558.33,117.48z"/>
		</g>
	</g>
	<g>
		<defs>
			<rect id="SVGID_00000075150815892840648030000007762888362019389584_" x="35.67" y="96.36" width="27.09" height="44.12"/>
		</defs>
		<clipPath id="SVGID_00000040557702955133110820000005075025524676569239_">
			<use xlink:href="#SVGID_00000075150815892840648030000007762888362019389584_"  style="overflow:visible;"/>
		</clipPath>
		<g style="clip-path:url(#SVGID_00000040557702955133110820000005075025524676569239_);">
			<path d="M36.12,119.01l21.09,21c0.36,0.37,0.95,0.37,1.32,0l3.95-3.94c0.36-0.37,0.36-0.95,0-1.32L46,118.35l16.48-16.42
				c0.36-0.37,0.36-0.95,0-1.32l-3.95-3.94c-0.37-0.36-0.96-0.36-1.32,0L36.12,117.7C35.75,118.05,35.75,118.64,36.12,119.01z"/>
		</g>
	</g>
	<g>
		<defs>
			<rect id="SVGID_00000171714823735149142240000010862879041075999107_" x="499.78" y="96.38" width="27.05" height="44.16"/>
		</defs>
		<clipPath id="SVGID_00000070099601069721155970000017347138642617355403_">
			<use xlink:href="#SVGID_00000171714823735149142240000010862879041075999107_"  style="overflow:visible;"/>
		</clipPath>
		<g style="clip-path:url(#SVGID_00000070099601069721155970000017347138642617355403_);">
			<path d="M526.42,117.9l-21.09-21c-0.36-0.37-0.95-0.37-1.32,0l-3.95,3.94c-0.36,0.37-0.36,0.95,0,1.32l16.48,16.42l-16.48,16.42
				c-0.36,0.37-0.36,0.95,0,1.32l3.95,3.94c0.37,0.36,0.96,0.36,1.32,0l21.09-21.02C526.79,118.86,526.79,118.28,526.42,117.9z"/>
		</g>
	</g>
	<g>
		<g transform="translate(213.733193, 467.746067)">
			<g>
				<path d="M-127.44-366.03v13.52h27.13v13.43h-27.13v21.07h-17.38v-61.46h48.2v13.43H-127.44z"/>
			</g>
		</g>
	</g>
	<g>
		<g transform="translate(335.355993, 467.746067)">
			<g>
				<path d="M-183.84-316.78c-9.13,0-16.23-2.48-21.29-7.46c-5.06-4.98-7.59-12.03-7.59-21.16v-34.06h17.38v33.53
					c0,9.84,3.89,14.76,11.68,14.76c7.73,0,11.59-4.92,11.59-14.76v-33.53h17.12v34.06c0,9.13-2.53,16.19-7.6,21.16
					C-167.61-319.26-174.7-316.78-183.84-316.78z"/>
			</g>
		</g>
	</g>
	<g>
		<g transform="translate(485.318208, 467.746067)">
			<g>
				<path d="M-295.25-379.46h17.38v47.67h29.32v13.79h-46.71V-379.46z"/>
			</g>
		</g>
	</g>
	<g>
		<g transform="translate(600.643375, 467.746067)">
			<g>
				<path d="M-359.13-379.46h17.38v47.67h29.32v13.79h-46.71V-379.46z"/>
			</g>
		</g>
	</g>
	<g>
		<g transform="translate(696.679843, 466.367238)">
			<g>
				<path d="M-397.75-369.05h-20.37v-9.65h52.15v9.65h-20.37v51.8h-11.41V-369.05z"/>
			</g>
		</g>
	</g>
	<g>
		<g transform="translate(810.459925, 467.746067)">
			<g>
				<path d="M-432.77-349.7c4.04,0.88,7.15,2.62,9.35,5.23c2.2,2.6,3.3,5.95,3.3,10.05c0,5.27-1.95,9.32-5.84,12.16
					c-3.89,2.84-9.65,4.26-17.25,4.26h-28.27v-61.46h26.52c6.85,0,12.16,1.38,15.93,4.13c3.78,2.75,5.67,6.64,5.67,11.68
					c0,3.4-0.83,6.28-2.5,8.65C-427.54-352.64-429.84-350.87-432.77-349.7z M-464.99-374.11v22.31h19.58c4.98,0,8.81-0.95,11.5-2.85
					c2.69-1.9,4.04-4.67,4.04-8.3c0-3.63-1.35-6.39-4.04-8.29c-2.69-1.9-6.52-2.86-11.5-2.86H-464.99z M-443.3-323.36
					c5.5,0,9.66-0.94,12.46-2.81c2.81-1.87,4.22-4.8,4.22-8.78c0-7.67-5.56-11.5-16.68-11.5h-21.69v23.09H-443.3z"/>
			</g>
		</g>
	</g>
	<g>
		<g transform="translate(954.124505, 467.746067)">
			<g>
				<path d="M-507.6-323.62v5.62h-43.46v-61.46h42.14v5.62h-35.65v21.86h31.79v5.53h-31.79v22.83H-507.6z"/>
			</g>
		</g>
	</g>
	<g>
		<g transform="translate(1081.060941, 467.746067)">
			<g>
				<path d="M-609.43-373.85h-21.6v-5.62h49.7v5.62h-21.6v55.84h-6.5V-373.85z"/>
			</g>
		</g>
	</g>
	<g>
		<g transform="translate(222.556313, 545.266782)">
			<g>
				<path d="M-154-375.09h5.63c1.78,0,3.16,0.42,4.13,1.27c0.98,0.84,1.46,2.03,1.46,3.56c0,1.6-0.49,2.85-1.46,3.73
					c-0.98,0.88-2.35,1.32-4.13,1.32h-3.25v4.26H-154V-375.09z M-151.62-372.94v5.59h3.15c2.27,0,3.41-0.95,3.41-2.84
					c0-1.83-1.14-2.75-3.41-2.75H-151.62z"/>
			</g>
		</g>
	</g>
	<g>
		<g transform="translate(250.488094, 545.266782)">
			<g>
				<path d="M-165.01-371.77c1.66,0,3.01,0.5,4.04,1.51c1.04,1,1.55,2.31,1.55,3.95c0,1.62-0.52,2.93-1.55,3.95
					c-1.04,1.01-2.38,1.51-4.04,1.51c-1.67,0-3.02-0.5-4.06-1.51c-1.04-1.01-1.55-2.33-1.55-3.95c0-1.63,0.52-2.95,1.55-3.95
					C-168.03-371.27-166.68-371.77-165.01-371.77z M-165.01-369.77c-0.97,0-1.76,0.32-2.38,0.97c-0.61,0.65-0.91,1.48-0.91,2.5
					c0,1.04,0.3,1.88,0.91,2.52c0.61,0.65,1.4,0.97,2.38,0.97c0.97,0,1.76-0.32,2.36-0.97c0.61-0.64,0.91-1.49,0.91-2.52
					c0-1.02-0.31-1.86-0.92-2.5C-163.27-369.44-164.05-369.77-165.01-369.77z"/>
			</g>
		</g>
	</g>
	<g>
		<g transform="translate(276.246807, 545.266782)">
			<g>
				<path d="M-171.38-360.94h-2.4l-2.73-7.96l-2.73,7.96h-2.38l-3.96-10.75h2.38l2.79,8.45l2.7-8.45h2.4l2.73,8.45l2.75-8.45h2.36
					L-171.38-360.94z"/>
			</g>
		</g>
	</g>
	<g>
		<g transform="translate(314.138586, 545.266782)">
			<g>
				<path d="M-200.45-371.77c1.84,0,3.18,0.56,4.01,1.67c0.83,1.11,1.17,2.67,1.02,4.68h-8.12c0.18,0.83,0.57,1.49,1.16,1.97
					c0.59,0.48,1.32,0.72,2.17,0.72c1.21,0,2.22-0.42,3.03-1.25l1.23,1.32c-1.1,1.21-2.58,1.82-4.44,1.82
					c-1.66,0-2.99-0.5-3.99-1.51c-1-1-1.51-2.31-1.51-3.93c0-1.62,0.5-2.93,1.51-3.94C-203.36-371.24-202.05-371.75-200.45-371.77z
					 M-203.58-367.13h6.14c-0.04-0.86-0.33-1.54-0.87-2.04c-0.54-0.5-1.25-0.75-2.12-0.75c-0.85,0-1.55,0.25-2.11,0.75
					C-203.1-368.66-203.44-367.99-203.58-367.13z"/>
			</g>
		</g>
	</g>
	<g>
		<g transform="translate(338.222223, 545.266782)">
			<g>
				<path d="M-215.88-371.69v2.14c0.74-1.48,1.98-2.22,3.72-2.22v2.22c-1.06-0.05-1.93,0.2-2.59,0.75
					c-0.66,0.55-1.04,1.29-1.13,2.24v5.62h-2.33v-10.75H-215.88z"/>
			</g>
		</g>
	</g>
	<g>
		<g transform="translate(353.522975, 545.266782)">
			<g>
				<path d="M-222.26-371.77c1.84,0,3.18,0.56,4.01,1.67c0.83,1.11,1.17,2.67,1.02,4.68h-8.12c0.18,0.83,0.57,1.49,1.16,1.97
					c0.59,0.48,1.32,0.72,2.17,0.72c1.21,0,2.22-0.42,3.03-1.25l1.23,1.32c-1.1,1.21-2.58,1.82-4.44,1.82
					c-1.66,0-2.99-0.5-3.99-1.51c-1-1-1.51-2.31-1.51-3.93c0-1.62,0.5-2.93,1.51-3.94C-225.17-371.24-223.86-371.75-222.26-371.77z
					 M-225.39-367.13h6.14c-0.04-0.86-0.33-1.54-0.87-2.04c-0.54-0.5-1.25-0.75-2.12-0.75c-0.85,0-1.55,0.25-2.11,0.75
					C-224.91-368.66-225.26-367.99-225.39-367.13z"/>
			</g>
		</g>
	</g>
	<g>
		<g transform="translate(377.606613, 545.266782)">
			<g>
				<path d="M-229.78-375.93v14.99h-2.33v-1.84c-0.79,1.29-2.05,1.94-3.78,1.94c-1.53,0-2.78-0.51-3.73-1.52
					c-0.95-1.02-1.42-2.35-1.42-3.99c0-1.61,0.47-2.92,1.41-3.92c0.94-1,2.18-1.51,3.7-1.51c1.72,0,2.99,0.65,3.81,1.96v-6.1
					H-229.78z M-237.78-363.76c0.61,0.65,1.4,0.98,2.38,0.98c0.97,0,1.76-0.32,2.37-0.98c0.61-0.66,0.92-1.49,0.92-2.52
					c0-1.04-0.31-1.88-0.92-2.54c-0.61-0.66-1.4-0.99-2.37-0.99c-0.97,0-1.76,0.33-2.38,0.99c-0.61,0.66-0.92,1.51-0.93,2.54
					C-238.7-365.25-238.39-364.41-237.78-363.76z"/>
			</g>
		</g>
	</g>
	<g>
		<g transform="translate(415.089544, 545.266782)">
			<g>
				<path d="M-254.61-371.77c1.52,0,2.76,0.51,3.71,1.53c0.95,1.01,1.42,2.34,1.42,3.97c0,1.62-0.47,2.93-1.39,3.92
					c-0.93,1-2.16,1.49-3.69,1.49c-1.73,0-2.99-0.65-3.8-1.94v1.86h-2.32v-14.99h2.32v6.1
					C-257.55-371.12-256.3-371.77-254.61-371.77z M-257.44-363.82c0.61,0.66,1.4,0.98,2.35,0.98c0.96,0,1.74-0.33,2.36-0.98
					c0.61-0.66,0.92-1.5,0.92-2.54c0-1.01-0.31-1.84-0.92-2.49c-0.61-0.66-1.4-0.98-2.36-0.98c-0.95,0-1.74,0.33-2.35,0.98
					c-0.61,0.65-0.92,1.48-0.92,2.49C-258.36-365.32-258.06-364.48-257.44-363.82z"/>
			</g>
		</g>
	</g>
	<g>
		<g transform="translate(443.338256, 545.266782)">
			<g>
				<path d="M-267.33-371.69l-4.89,12.23c-0.66,1.7-1.82,2.54-3.49,2.54c-0.93,0-1.76-0.3-2.49-0.91l0.99-1.8
					c0.49,0.35,0.95,0.53,1.39,0.53c0.73,0,1.28-0.4,1.64-1.19l0.36-0.81l-4.44-10.59h2.4l3.21,8.14l2.99-8.14H-267.33z"/>
			</g>
		</g>
	</g>
	<g id="Betfair_logo_00000172426282387485457150000009942181058953256881_" transform="translate(88 39.211)">
		<path id="Caminho_26_00000175292388391350180570000016810822208555389366_" d="M123.76,135.98c0.93-1.05,2.3-1.6,3.69-1.48
			c1.5-0.09,3,0.05,4.46,0.39c1.5,0.38,2.59,1.68,2.7,3.23c0.18,1.93,0.22,3.86,0.1,5.79c-0.02,1.95-1.44,3.6-3.36,3.92
			c-1.62,0.37-3.3,0.43-4.94,0.17c-1.01-0.19-1.92-0.7-2.6-1.47c-0.02,0.4-0.04,0.74-0.07,1.13h-2.61v-18.25h2.63L123.76,135.98z
			 M132.2,141.37h-0.09c0-0.62,0.03-1.27,0-1.9c-0.09-1.55-0.76-2.42-2.2-2.54c-1.37-0.11-2.75-0.1-4.12,0.02
			c-1.15,0.09-2.01,1.07-1.97,2.22c-0.07,1.41-0.06,2.82,0.01,4.23c-0.04,0.97,0.59,1.83,1.52,2.11c1.7,0.48,3.5,0.49,5.2,0.03
			c0.8-0.2,1.39-0.89,1.46-1.72C132.12,143.01,132.14,142.19,132.2,141.37L132.2,141.37z"/>
		<path id="Caminho_27_00000111170854480694597650000017486661611794930330_" d="M178.2,140.39c-0.06-0.75-0.07-1.56-0.21-2.36
			c-0.07-0.6-0.56-1.06-1.17-1.08c-1.47-0.05-2.94-0.05-4.41,0.03c-0.76,0.05-1.39,0.61-1.53,1.36c-0.76-0.27-1.49-0.5-2.2-0.8
			c-0.15-0.13-0.23-0.33-0.21-0.53c0.13-0.68,0.54-1.27,1.13-1.62c1.04-0.63,2.25-0.94,3.46-0.87c1.53-0.02,3.07,0.09,4.58,0.32
			c1.93,0.32,3.28,2.06,3.11,4.01c0.05,2.97,0.01,5.95,0.01,8.92c-0.01,0.11-0.03,0.23-0.05,0.34h-2.54
			c-0.02-0.36-0.04-0.73-0.06-1.28c-0.93,1.51-2.3,1.26-3.54,1.3c-1.42,0.06-2.84-0.01-4.24-0.21c-1.68-0.2-2.89-1.72-2.72-3.4
			c-0.02-0.55-0.02-1.1,0-1.64c-0.06-1.32,0.75-2.53,1.99-2.98c0.68-0.26,1.4-0.42,2.13-0.46c1.51-0.06,3.03-0.03,4.54,0.1
			C176.96,139.72,177.61,140.01,178.2,140.39z M173.87,145.9c0.93-0.07,1.82-0.1,2.7-0.23c1.28-0.19,1.69-0.78,1.6-2.15
			c-0.01-0.89-0.72-1.61-1.6-1.64c-1.38-0.19-2.77-0.26-4.16-0.19c-1.87,0.11-2.11,0.5-2.08,2.52c0.01,0.9,0.25,1.29,1.09,1.45
			C172.23,145.82,173.06,145.82,173.87,145.9L173.87,145.9z"/>
		<path id="Caminho_28_00000070812291859642216160000009641376804825902257_" d="M149.51,142.4h-1.58c-2.8,0-5.6,0.02-8.4-0.01
			c-0.59,0-0.73,0.21-0.64,0.77c0.04,0.27,0.04,0.55,0.08,0.82c0.19,1.14,0.75,1.7,2.18,1.79c1.42,0.05,2.84,0.03,4.25-0.07
			c0.66-0.05,1.25-0.44,1.55-1.04c0.11-0.14,0.28-0.22,0.46-0.21c0.66,0.19,1.31,0.43,2.01,0.66c-0.11,0.88-0.6,1.67-1.35,2.14
			c-0.99,0.6-2.14,0.89-3.3,0.83c-1.65,0.05-3.3-0.02-4.95-0.21c-1.9-0.24-3.34-1.84-3.36-3.76c-0.15-1.87-0.16-3.75-0.01-5.62
			c0.06-1.8,1.36-3.32,3.12-3.66c2.24-0.52,4.56-0.56,6.82-0.11c1.8,0.28,3.13,1.84,3.11,3.67C149.6,139.69,149.51,141,149.51,142.4
			z M146.91,140.09c0.21-2.5-0.43-3.1-2.18-3.26c-1.28-0.11-2.56-0.09-3.83,0.05c-1.6,0.17-2.34,1.49-1.92,3.21H146.91z"/>
		<path id="Caminho_29_00000102539093905230370150000003020963106150812311_" d="M119.7,133.31l-7.11,8.87l-7.16-8.93
			c0.17-0.03,0.34-0.05,0.51-0.07c0.79,0,1.58,0,2.37,0s0.81,0,0.81-0.9c0-0.78,0-1.56,0-2.34c0-0.27,0.01-0.5,0.37-0.5
			c2.13,0.01,4.26,0.01,6.39,0.02c0.05,0,0.11,0.04,0.22,0.1v3.6h3.53L119.7,133.31z"/>
		<path id="Caminho_30_00000183245828972603399740000010319255935096797062_" d="M110.55,144.29h-3.72v3.72h-6.97v-3.73h-3.73
			l7.22-8.99L110.55,144.29z"/>
		<path id="Caminho_31_00000040566682108649799700000009653540129194186686_" d="M168.85,131.51c-0.52,0-1.04,0-1.53,0
			c-0.5,0-1.04,0-1.53,0.06c-1.04,0.07-1.82,0.96-1.75,2c0,0.02,0,0.04,0,0.05c0,0.36,0,0.71,0,1.15h3.62
			c0,0.71,0.02,1.33-0.02,1.95c0,0.13-0.27,0.33-0.41,0.33c-0.83,0.03-1.66,0.01-2.49,0.02c-0.21,0-0.41,0.02-0.69,0.03v10.99h-2.66
			v-11.02h-1.41v-2.28h1.39c0-0.48,0-0.91,0-1.34c-0.22-2.03,1.24-3.85,3.27-4.08c0.09-0.01,0.19-0.02,0.29-0.02
			c1.29-0.08,2.6-0.01,3.94-0.01L168.85,131.51z"/>
		<path id="Caminho_32_00000055671134958625687180000015893453845055398838_" d="M159.32,145.83v2.23
			c-0.07,0.04-0.14,0.07-0.22,0.08c-1.26-0.02-2.53,0-3.78-0.1c-1.84-0.1-3.26-1.64-3.2-3.48c-0.1-2.19-0.05-4.38-0.06-6.57
			c0-0.27,0-0.54,0-0.87l-1.43-0.07v-2.22h1.42v-5.43h2.64v5.38h3.64v2.31c-1,0-1.99,0.03-2.96-0.01c-0.52-0.02-0.67,0.16-0.66,0.71
			c0.03,1.96,0,3.92,0.01,5.88c0,1.57,0.52,2.13,1.99,2.16C157.55,145.84,158.39,145.83,159.32,145.83z"/>
		<path id="Caminho_33_00000096057070564399649480000009794127627773887164_" d="M191.04,148.11h-2.64v-13.57h2.49v1.64
			c0.1,0,0.16,0.02,0.17,0c1.38-1.72,3.79-2.22,5.75-1.2c0.2,0.1,0.38,0.22,0.55,0.36c0.86,0.73,0.85,1.04-0.04,1.68l-0.79,0.57
			c-0.92-0.84-2.23-1.11-3.41-0.71c-1.3,0.3-2.18,1.5-2.08,2.83c-0.01,2.55,0,5.1,0,7.65L191.04,148.11z"/>
		<path id="Caminho_34_00000127743871821743788620000001421622547744334761_" d="M183.3,134.54h2.6c0.01,0.24,0.03,0.45,0.03,0.66
			c0,4.09,0,8.17,0.01,12.26c0,0.57-0.15,0.73-0.66,0.7c-0.64-0.05-1.29-0.01-1.98-0.01L183.3,134.54z"/>
		<path id="Caminho_35_00000175296025094650997320000011502042212218422698_" d="M185.88,132.21h-2.59v-2.82h2.59V132.21z"/>
	</g>
</g>
</svg>
