<?xml version="1.0" encoding="utf-8"?>
<!-- Generator: Adobe Illustrator 28.0.0, SVG Export Plug-In . SVG Version: 6.00 Build 0)  -->
<svg version="1.1" id="Camada_1" xmlns="http://www.w3.org/2000/svg" xmlns:xlink="http://www.w3.org/1999/xlink" x="0px" y="0px"
	 viewBox="0 0 782.5 259.2" style="enable-background:new 0 0 782.5 259.2;" xml:space="preserve">
<style type="text/css">
	.st0{fill:#E7E7ED;}
	.st1{fill:#FF0446;}
	.st2{fill:#00BFE5;}
</style>
<g>
	<g>
		<g id="Camada_3">
			<g id="Grupo_558_00000055688254127799571590000001441230512348502424_" transform="translate(-33 11.683)">
				<g id="Grupo_532_00000078741379651176864980000012417448260826876315_">
					<g id="Betfair_logo_00000065061037423241364260000013636431806824640900_" transform="translate(88 39.211)">
						<path id="Caminho_26_00000073706596059484406440000007400115227518122369_" class="st0" d="M592.3,139.3
							c1.6-1.8,3.9-2.6,6.4-2.5c2.5-0.2,5.2,0.1,7.6,0.7c2.5,0.7,4.4,2.8,4.6,5.4c0.4,3.2,0.4,6.5,0.2,9.6c0,3.2-2.5,6.1-5.8,6.5
							c-2.8,0.6-5.7,0.7-8.5,0.3c-1.7-0.4-3.3-1.2-4.5-2.5c0,0.7-0.1,1.3-0.1,1.8h-4.5v-30.4h4.5L592.3,139.3L592.3,139.3z
							 M606.8,148.3h-0.2c0-1.1,0.1-2.1,0-3.2c-0.2-2.5-1.3-4-3.9-4.2c-2.4-0.2-4.7-0.2-7,0c-1.9,0.2-3.5,1.8-3.4,3.8
							c-0.1,2.4-0.1,4.7,0,7c-0.1,1.6,1.1,3.1,2.6,3.5c2.9,0.9,6.1,0.9,8.9,0.1c1.3-0.4,2.4-1.5,2.5-2.9
							C606.6,151.1,606.7,149.6,606.8,148.3L606.8,148.3z"/>
						<path id="Caminho_27_00000034784490637160812650000015841254919940811653_" class="st0" d="M685.7,146.7
							c-0.1-1.3-0.1-2.6-0.4-3.9c-0.1-1.1-1-1.8-2-1.8c-2.5-0.1-5.1-0.1-7.5,0.1c-1.3,0.1-2.4,1.1-2.6,2.3c-1.3-0.4-2.5-0.9-3.8-1.3
							c-0.3-0.3-0.4-0.5-0.4-0.9c0.3-1.1,1-2.1,1.9-2.7c1.8-1.1,3.9-1.5,6-1.4c2.6,0,5.3,0.2,7.9,0.5c3.3,0.5,5.6,3.5,5.4,6.7
							c0.1,4.9,0,9.9,0,14.9c0,0.2-0.1,0.4-0.1,0.6h-4.3c0-0.6-0.1-1.2-0.1-2.1c-1.6,2.5-3.9,2.1-6.1,2.2c-2.5,0.1-4.8,0-7.3-0.4
							c-2.9-0.4-4.9-2.9-4.6-5.7c0-1,0-1.8,0-2.7c-0.1-2.2,1.3-4.2,3.4-5c1.2-0.4,2.4-0.7,3.7-0.8c2.6-0.1,5.2-0.1,7.8,0.2
							C683.6,145.6,684.7,146.1,685.7,146.7z M678.3,155.8c1.6-0.1,3.2-0.2,4.6-0.4c2.2-0.4,2.9-1.3,2.7-3.6c0-1.4-1.3-2.7-2.7-2.7
							c-2.4-0.4-4.7-0.4-7.1-0.4c-3.2,0.2-3.7,0.9-3.6,4.2c0,1.5,0.4,2.1,1.8,2.5C675.4,155.8,676.8,155.8,678.3,155.8L678.3,155.8z
							"/>
						<path id="Caminho_28_00000107569566368982819640000012501389821133367733_" class="st0" d="M636.5,150h-2.7
							c-4.8,0-9.6,0-14.4,0c-1.1,0-1.3,0.4-1.1,1.3c0.1,0.4,0.1,1,0.2,1.3c0.4,1.8,1.3,2.8,3.8,3c2.5,0.1,4.8,0,7.3-0.1
							c1.1-0.1,2.1-0.8,2.6-1.7c0.2-0.3,0.5-0.4,0.8-0.4c1.1,0.4,2.3,0.7,3.5,1.1c-0.2,1.4-1.1,2.8-2.3,3.6
							c-1.7,1.1-3.7,1.5-5.7,1.3c-2.8,0.1-5.7,0-8.5-0.4c-3.3-0.4-5.7-3.1-5.8-6.3c-0.3-3.2-0.3-6.3,0-9.4c0.1-3,2.3-5.5,5.4-6.1
							c3.9-0.9,7.8-1,11.7-0.2c3.1,0.5,5.4,3.1,5.4,6.1C636.7,145.5,636.5,147.7,636.5,150z M632,146.2c0.4-4.1-0.8-5.2-3.8-5.4
							c-2.2-0.2-4.4-0.2-6.6,0.1c-2.7,0.3-3.9,2.5-3.3,5.4L632,146.2L632,146.2z"/>
						<path id="Caminho_29_00000120539280854496641680000006001678664183002255_" class="st0" d="M585.3,134.9l-12.2,14.7
							l-12.3-14.9c0.3-0.1,0.6-0.1,0.9-0.1c1.3,0,2.7,0,4,0s1.3,0,1.3-1.5c0-1.3,0-2.6,0-3.9c0-0.4,0-0.9,0.6-0.9c3.7,0,7.3,0,11,0
							c0.1,0,0.2,0.1,0.4,0.2v6.1h6.1L585.3,134.9z"/>
						<path id="Caminho_30_00000112599951318948041000000004073667797528870813_" class="st0" d="M569.6,153.2h-6.4v6.2h-11.9v-6.3
							h-6.5l12.4-15L569.6,153.2z"/>
						<path id="Caminho_31_00000059992583674812271470000011101953023383519393_" class="st0" d="M669.7,131.8c-0.9,0-1.8,0-2.6,0
							s-1.8,0-2.6,0.1c-1.8,0.1-3.2,1.6-3,3.3v0.1c0,0.6,0,1.2,0,1.9h6.2c0,1.2,0,2.2,0,3.2c0,0.3-0.5,0.5-0.7,0.6
							c-1.4,0.1-2.9,0-4.2,0c-0.4,0-0.7,0-1.2,0.1v18.3H657V141h-2.4v-3.9h2.4c0-0.8,0-1.5,0-2.2c-0.4-3.4,2.1-6.5,5.6-6.8
							c0.2,0,0.4,0,0.5,0c2.2-0.2,4.5,0,6.8,0L669.7,131.8z"/>
						<path id="Caminho_32_00000079443553357185101660000009561548154892486570_" class="st0" d="M653.2,155.8v3.8
							c-0.1,0.1-0.3,0.1-0.4,0.2c-2.1,0-4.3,0-6.5-0.2c-3.2-0.2-5.6-2.7-5.5-5.9c-0.2-3.7-0.1-7.3-0.1-11c0-0.4,0-1,0-1.4l-2.5-0.1
							v-3.8h2.5v-9h4.5v9h6.3v3.9c-1.7,0-3.4,0.1-5.1,0c-1,0-1.2,0.3-1.1,1.2c0.1,3.3,0,6.5,0,9.8c0,2.6,1,3.6,3.4,3.7
							C650.2,155.8,651.8,155.8,653.2,155.8z"/>
						<path id="Caminho_33_00000064336408172960964330000003885972439331599784_" class="st0" d="M707.7,159.6h-4.5V137h4.2v2.7
							c0.2,0,0.3,0,0.3,0c2.4-2.9,6.5-3.8,9.8-2c0.4,0.2,0.7,0.4,1,0.6c1.5,1.2,1.4,1.7-0.1,2.8l-1.3,1c-1.6-1.4-3.9-1.8-5.9-1.2
							c-2.2,0.5-3.8,2.5-3.6,4.7c0,4.2,0,8.5,0,12.8L707.7,159.6z"/>
						<path id="Caminho_34_00000070085354017147306350000001163891192675942055_" class="st0" d="M694.4,136.9h4.5
							c0,0.4,0.1,0.8,0.1,1.1c0,6.8,0,13.7,0,20.4c0,1-0.3,1.3-1.1,1.2c-1.1-0.1-2.2,0-3.4,0L694.4,136.9L694.4,136.9z"/>
						<path id="Caminho_35_00000095308098574014905780000011806325173334984886_" class="st0" d="M698.9,133h-4.4v-4.6h4.4V133z"/>
					</g>
				</g>
			</g>
		</g>
	</g>
	<g>
		<path class="st0" d="M400.3,189.6c1.3-0.8,2.8-1.2,4.5-1.2c1.6,0,3.1,0.4,4.5,1.2c1.3,0.8,2.4,1.9,3.1,3.3
			c0.7,1.4,1.1,3.1,1.1,4.9c0,1.9-0.4,3.5-1.1,4.9c-0.7,1.4-1.8,2.5-3.1,3.3c-1.3,0.8-2.8,1.2-4.5,1.2c-1.7,0-3.2-0.4-4.5-1.2
			c-1.3-0.8-2.2-1.8-2.8-3.1v12.6h-2.3v-26.9h2.3v4C398.1,191.4,399,190.4,400.3,189.6z M410.2,193.8c-0.6-1.1-1.4-1.9-2.4-2.5
			c-1-0.6-2.2-0.9-3.5-0.9c-1.2,0-2.4,0.3-3.4,0.9c-1,0.6-1.9,1.5-2.5,2.6c-0.6,1.1-0.9,2.4-0.9,3.9c0,1.5,0.3,2.8,0.9,3.9
			c0.6,1.1,1.4,2,2.5,2.6c1,0.6,2.2,0.9,3.4,0.9c1.3,0,2.4-0.3,3.5-0.9c1-0.6,1.8-1.4,2.4-2.6c0.6-1.1,0.9-2.4,0.9-3.9
			C411.1,196.2,410.8,194.9,410.2,193.8z"/>
		<path class="st0" d="M421.1,206c-1.4-0.8-2.5-1.9-3.2-3.3s-1.2-3.1-1.2-5c0-1.9,0.4-3.5,1.2-5c0.8-1.4,1.9-2.5,3.3-3.3
			c1.4-0.8,2.9-1.2,4.6-1.2s3.3,0.4,4.7,1.2c1.4,0.8,2.5,1.9,3.3,3.3s1.2,3.1,1.2,5c0,1.9-0.4,3.5-1.2,4.9c-0.8,1.4-1.9,2.5-3.3,3.3
			c-1.4,0.8-3,1.2-4.7,1.2C424.1,207.1,422.5,206.8,421.1,206z M429.1,204.3c1-0.5,1.9-1.4,2.5-2.5c0.6-1.1,1-2.5,1-4.1
			s-0.3-3-0.9-4.1c-0.6-1.1-1.4-1.9-2.5-2.5c-1-0.5-2.1-0.8-3.3-0.8c-1.2,0-2.3,0.3-3.3,0.8c-1,0.5-1.8,1.4-2.5,2.5
			c-0.6,1.1-0.9,2.5-0.9,4.1s0.3,3,0.9,4.1c0.6,1.1,1.4,1.9,2.4,2.5c1,0.5,2.1,0.8,3.3,0.8C427,205.1,428.1,204.8,429.1,204.3z"/>
		<path class="st0" d="M463.3,188.6l-5.7,18.2h-2.3l-5-15.3l-5,15.3h-2.4l-5.7-18.2h2.4l4.5,15.9l5.1-15.9h2.3l5,15.9l4.5-15.9
			H463.3z"/>
		<path class="st0" d="M482.9,198.7h-15.1c0.1,1.4,0.4,2.6,1,3.5s1.4,1.7,2.4,2.2c1,0.5,2,0.8,3.2,0.8c1.5,0,2.8-0.4,3.8-1.1
			c1-0.7,1.7-1.7,2.1-3h2.5c-0.4,1.8-1.4,3.2-2.9,4.4c-1.5,1.1-3.3,1.7-5.5,1.7c-1.7,0-3.3-0.4-4.6-1.2c-1.4-0.8-2.4-1.9-3.2-3.3
			s-1.2-3.1-1.2-5c0-1.9,0.4-3.6,1.1-5c0.8-1.4,1.8-2.5,3.2-3.3c1.4-0.8,2.9-1.1,4.6-1.1c1.7,0,3.3,0.4,4.6,1.1
			c1.3,0.8,2.3,1.8,3,3.1c0.7,1.3,1.1,2.7,1.1,4.3C483,197.6,482.9,198.2,482.9,198.7z M479.8,193.3c-0.6-1-1.3-1.7-2.3-2.2
			c-1-0.5-2-0.7-3.2-0.7c-1.7,0-3.2,0.6-4.4,1.7c-1.2,1.1-1.9,2.7-2,4.7h12.8C480.6,195.4,480.3,194.2,479.8,193.3z"/>
		<path class="st0" d="M491.9,189.2c1.1-0.6,2.4-0.9,3.9-0.9v2.4h-0.6c-1.7,0-3.1,0.5-4.1,1.4c-1,0.9-1.5,2.4-1.5,4.6v10.2h-2.3
			v-18.2h2.3v3.2C490.1,190.7,490.9,189.9,491.9,189.2z"/>
		<path class="st0" d="M515.8,198.7h-15.1c0.1,1.4,0.4,2.6,1,3.5s1.4,1.7,2.4,2.2c1,0.5,2,0.8,3.2,0.8c1.5,0,2.8-0.4,3.8-1.1
			c1-0.7,1.7-1.7,2.1-3h2.5c-0.4,1.8-1.4,3.2-2.9,4.4c-1.5,1.1-3.3,1.7-5.5,1.7c-1.7,0-3.3-0.4-4.6-1.2c-1.4-0.8-2.4-1.9-3.2-3.3
			s-1.2-3.1-1.2-5c0-1.9,0.4-3.6,1.1-5c0.8-1.4,1.8-2.5,3.2-3.3c1.4-0.8,2.9-1.1,4.6-1.1s3.3,0.4,4.6,1.1c1.3,0.8,2.3,1.8,3,3.1
			c0.7,1.3,1.1,2.7,1.1,4.3C515.8,197.6,515.8,198.2,515.8,198.7z M512.6,193.3c-0.6-1-1.3-1.7-2.3-2.2c-1-0.5-2-0.7-3.2-0.7
			c-1.7,0-3.2,0.6-4.4,1.7c-1.2,1.1-1.9,2.7-2,4.7h12.8C513.5,195.4,513.2,194.2,512.6,193.3z"/>
		<path class="st0" d="M520.2,192.8c0.8-1.4,1.8-2.5,3.1-3.3c1.3-0.8,2.8-1.2,4.5-1.2c1.6,0,3.1,0.4,4.3,1.2s2.2,1.8,2.8,3v-10.4
			h2.3v24.7H535v-4.1c-0.6,1.3-1.5,2.3-2.7,3.1c-1.3,0.8-2.8,1.2-4.5,1.2c-1.7,0-3.2-0.4-4.5-1.2c-1.3-0.8-2.4-1.9-3.1-3.3
			c-0.7-1.4-1.1-3.1-1.1-4.9C519,195.9,519.4,194.2,520.2,192.8z M534.1,193.9c-0.6-1.1-1.4-2-2.5-2.6c-1-0.6-2.2-0.9-3.4-0.9
			c-1.3,0-2.5,0.3-3.5,0.9c-1,0.6-1.8,1.4-2.4,2.5c-0.6,1.1-0.9,2.4-0.9,3.9c0,1.5,0.3,2.8,0.9,3.9c0.6,1.1,1.4,2,2.4,2.6
			c1,0.6,2.2,0.9,3.5,0.9c1.2,0,2.4-0.3,3.4-0.9c1-0.6,1.9-1.5,2.5-2.6c0.6-1.1,0.9-2.4,0.9-3.9C535,196.3,534.7,195,534.1,193.9z"
			/>
		<path class="st0" d="M556.9,189.6c1.3-0.8,2.7-1.2,4.5-1.2c1.7,0,3.2,0.4,4.5,1.2c1.3,0.8,2.3,1.9,3.1,3.3
			c0.7,1.4,1.1,3.1,1.1,4.9c0,1.9-0.4,3.5-1.1,4.9c-0.7,1.4-1.8,2.5-3.1,3.3c-1.3,0.8-2.8,1.2-4.5,1.2c-1.7,0-3.2-0.4-4.5-1.2
			c-1.3-0.8-2.2-1.8-2.8-3.1v4h-2.3v-24.7h2.3v10.5C554.7,191.4,555.7,190.4,556.9,189.6z M566.8,193.8c-0.6-1.1-1.4-1.9-2.4-2.5
			c-1-0.6-2.2-0.9-3.5-0.9c-1.2,0-2.4,0.3-3.4,0.9c-1,0.6-1.9,1.5-2.5,2.6c-0.6,1.1-0.9,2.4-0.9,3.9c0,1.5,0.3,2.8,0.9,3.9
			c0.6,1.1,1.4,2,2.5,2.6c1,0.6,2.2,0.9,3.4,0.9c1.3,0,2.4-0.3,3.5-0.9c1-0.6,1.8-1.4,2.4-2.6c0.6-1.1,0.9-2.4,0.9-3.9
			C567.7,196.2,567.4,194.9,566.8,193.8z"/>
		<path class="st0" d="M589.4,188.6l-10.8,26.8h-2.4l3.5-8.7l-7.5-18.1h2.6l6.2,15.6l6-15.6H589.4z"/>
	</g>
</g>
<g id="Camada_2_00000173860343169959815200000011326033889859468207_">
	<g id="Assets">
		<path class="st0" d="M187.8,142.7h43l-7.2,16.3h-66.1l30.6-70h23.1L187.8,142.7z"/>
		<path class="st0" d="M306,159h-20.8l8.7-19.8h-30.1l-8.7,19.8h-20.8l26.5-60.6c1.2-2.8,3.1-5.1,5.6-6.8c2.3-1.7,5.1-2.6,8-2.6
			h48.1c1.7,0,3.3,0.4,4.8,1.1c1.3,0.7,2.4,1.8,3.2,3.1c0.8,1.4,1.2,2.9,1.2,4.4c0,1.8-0.4,3.6-1.2,5.2L306,159z M301.1,122.8
			l6.4-14.7c0.3-0.6,0.3-1.3,0-1.9c-0.3-0.6-0.9-0.9-1.6-0.9h-25.3c-1.2-0.1-2.4,0.7-2.7,1.9l-6.9,15.6H301.1z"/>
		<path class="st0" d="M369.2,114.7L395,89h24.3l-44.2,42l-11.9,28h-22.6l12-28l-12-42h22L369.2,114.7z"/>
		<path class="st0" d="M478.2,159h-76.5l30.6-70h66.9c1.6,0,3.3,0.4,4.7,1.1c1.3,0.7,2.4,1.8,3.1,3.1c0.7,1.4,1.1,2.9,1.2,4.4
			c0,1.8-0.3,3.6-1,5.2l-4.9,11.3c-1,2.2-2.5,4-4.5,5.3c-1.9,1.4-4.1,2.1-6.4,2.1h1.5c1.3,0,2.6,0.3,3.8,1c1,0.6,1.9,1.5,2.5,2.5
			c0.6,1.1,1,2.3,1,3.5c0,1.4-0.3,2.8-0.9,4.1l-7.3,16.8c-1.2,2.8-3.1,5.1-5.6,6.8C483.8,158.1,481,159,478.2,159z M436.8,128.7
			l-6.1,14h41.4c1.2,0,2.3-0.7,2.6-1.9l4.1-9.3c0.3-0.6,0.3-1.3,0-1.9c-0.3-0.6-0.9-0.9-1.6-0.8L436.8,128.7z M479.2,114.7
			c1.2,0.1,2.4-0.7,2.7-1.9l2.1-4.7c0.3-0.6,0.3-1.3,0-1.9c-0.3-0.6-0.9-0.9-1.6-0.9h-35.3l-4.1,9.4H479.2z"/>
		<path class="st0" d="M569.6,159h-20.8l8.7-19.8h-30.1l-8.7,19.8h-20.8l26.5-60.6c1.2-2.8,3.1-5.1,5.6-6.8c2.3-1.7,5.1-2.6,8-2.6
			h48.1c1.7,0,3.3,0.4,4.8,1.1c1.3,0.7,2.4,1.8,3.2,3.1c0.8,1.4,1.2,2.9,1.2,4.4c0,1.8-0.4,3.6-1.2,5.2L569.6,159z M564.7,122.8
			l6.4-14.7c0.3-0.6,0.3-1.3,0-1.9c-0.3-0.6-0.9-0.9-1.6-0.9h-25.3c-1.2-0.1-2.4,0.7-2.7,1.9l-6.9,15.6H564.7z"/>
		<path class="st0" d="M613.6,142.7h24.8c1.2,0.1,2.4-0.7,2.7-1.9l2.3-5.1h20.8l-6.1,13.9c-1.2,2.8-3.1,5.1-5.6,6.8
			c-2.3,1.7-5.1,2.6-8,2.6h-49.3c-1.5,0-2.9-0.3-4.2-1c-1.2-0.6-2.2-1.6-2.8-2.7c-0.7-1.2-1-2.6-1-3.9c0-1.6,0.3-3.2,1-4.6
			l21.2-48.3c1.2-2.8,3.1-5.1,5.6-6.8c2.3-1.7,5.1-2.6,8-2.6h48.1c1.7,0,3.3,0.4,4.8,1.1c1.3,0.7,2.4,1.8,3.1,3.1
			c0.7,1.4,1.1,2.9,1.2,4.4c0,1.8-0.3,3.6-1,5.2l-4.1,9.4h-20.8l1.9-4.2c0.3-0.6,0.3-1.3,0-1.9c-0.3-0.6-0.9-0.9-1.6-0.9H629
			c-1.2,0-2.1,0.6-2.7,1.9L612,139.9c-0.3,0.6-0.3,1.3,0,1.9C612.3,142.4,612.9,142.8,613.6,142.7z"/>
		<path class="st0" d="M690.7,159h-20.8l30.7-70h20.8l-11,25.1L750.3,89h24.3l-44.4,29.1l17.3,40.9h-24.3l-12-28.4l-11.1,7.3
			L690.7,159z"/>
		<polygon class="st1" points="8,183.6 79.6,183.6 90.3,158.9 48.9,158.9 78.9,89.6 68.6,43.7 		"/>
		<polygon class="st2" points="168.8,64.7 97.1,64.7 86.5,89.4 127.9,89.4 97.9,158.7 108.1,204.6 		"/>
	</g>
</g>
</svg>
