<?xml version="1.0" encoding="utf-8"?>
<!-- Generator: Adobe Illustrator 27.9.0, SVG Export Plug-In . SVG Version: 6.00 Build 0)  -->
<svg version="1.1" id="Camada_1" xmlns="http://www.w3.org/2000/svg" xmlns:xlink="http://www.w3.org/1999/xlink" x="0px" y="0px"
	 viewBox="0 0 782.5 259.2" style="enable-background:new 0 0 782.5 259.2;" xml:space="preserve">
<style type="text/css">
	.st0{enable-background:new    ;}
	.st1{fill:#F8DB1C;}
	.st2{fill:#FFFFFF;}
</style>
<g>
	<g id="Camada_3">
		<g id="Grupo_558_00000055688254127799571590000001441230512348502424_" transform="translate(-33 11.683)">
			<g id="Grupo_532_00000078741379651176864980000012417448260826876315_">
				<g class="st0">
					<path class="st1" d="M366.8,164.6c2.6,0,4.5,0.7,5.9,2c1.3,1.3,2,3.1,2,5.4c0,2.3-0.7,4.1-2,5.5c-1.3,1.3-3.2,2-5.9,1.9h-7.8
						v10.2h-3.4v-24.8H366.8L366.8,164.6z M365.7,176.6c2,0,3.3-0.3,4.3-1.1c0.9-0.8,1.4-2,1.4-3.4s-0.4-2.6-1.4-3.4
						c-0.9-0.8-2.3-1.2-4.3-1.2h-6.7v9.1H365.7L365.7,176.6z"/>
					<path class="st1" d="M377.9,176.8c0.3-1.1,0.9-2.1,1.7-3s1.7-1.5,2.8-2c1.1-0.4,2.4-0.8,3.8-0.8c1.5,0,2.8,0.3,3.9,0.8
						c1.1,0.5,2,1.2,2.8,2c0.8,0.9,1.4,1.9,1.7,3c0.3,1.1,0.6,2.4,0.6,3.7s-0.2,2.6-0.6,3.7c-0.3,1.1-0.9,2.1-1.7,3
						c-0.8,0.9-1.7,1.5-2.8,2c-1.1,0.5-2.4,0.7-3.9,0.7c-1.5,0-2.7-0.3-3.8-0.7c-1.1-0.5-2-1.1-2.8-2c-0.8-0.9-1.4-1.9-1.7-3
						s-0.6-2.4-0.6-3.7S377.5,177.9,377.9,176.8z M381,183.4c0.3,0.9,0.7,1.5,1.2,2.1c0.5,0.6,1.1,1,1.9,1.3
						c0.7,0.3,1.5,0.4,2.2,0.4s1.5-0.2,2.2-0.4c0.7-0.3,1.3-0.8,1.9-1.3c0.5-0.6,0.9-1.3,1.2-2.1c0.3-0.9,0.4-1.8,0.4-2.9
						c0-1.1-0.2-2-0.4-2.9c-0.3-0.9-0.7-1.5-1.2-2.1c-0.5-0.6-1.1-1-1.9-1.4c-0.7-0.3-1.5-0.4-2.2-0.4s-1.5,0.2-2.2,0.4
						c-0.7,0.3-1.3,0.8-1.9,1.4c-0.5,0.6-0.9,1.3-1.2,2.1c-0.3,0.9-0.4,1.8-0.4,2.9C380.6,181.6,380.7,182.5,381,183.4z"/>
					<path class="st1" d="M414,189.5l-3.8-14.3h-0.1l-3.8,14.3h-3.3l-6-18h3.3l4.2,14.8h0.1l3.8-14.8h3.3l3.8,14.8h0.1l4.2-14.8h3.2
						l-5.9,18H414L414,189.5z"/>
					<path class="st1" d="M439.1,188.3c-1.4,1-3.2,1.5-5.2,1.5c-1.5,0-2.7-0.3-3.8-0.7c-1.1-0.4-2-1.1-2.7-2c-0.8-0.9-1.3-1.9-1.6-3
						c-0.3-1.2-0.6-2.4-0.6-3.8c0-1.4,0.3-2.6,0.7-3.8c0.4-1.1,1-2.1,1.8-3s1.7-1.5,2.7-2c1-0.4,2.2-0.7,3.5-0.7c1.6,0,3,0.3,4.1,1
						s2,1.5,2.6,2.6c0.7,1,1.1,2.1,1.4,3.3s0.3,2.4,0.3,3.4h-13.8c0,0.8,0.1,1.5,0.3,2.2c0.3,0.7,0.6,1.4,1,1.9
						c0.5,0.5,1.1,1,1.8,1.3c0.8,0.3,1.6,0.5,2.6,0.5c1.3,0,2.3-0.3,3.2-0.9c0.9-0.6,1.4-1.5,1.6-2.6h3
						C441.4,185.8,440.5,187.3,439.1,188.3z M438.3,176.7c-0.3-0.6-0.7-1.2-1.1-1.6c-0.4-0.4-1-0.9-1.6-1.1c-0.6-0.3-1.4-0.4-2-0.4
						c-0.8,0-1.5,0.2-2.1,0.4c-0.6,0.3-1.2,0.6-1.6,1.1c-0.4,0.4-0.8,1-1.1,1.6c-0.3,0.6-0.4,1.3-0.4,2h10.7
						C438.8,178.1,438.7,177.4,438.3,176.7z"/>
					<path class="st1" d="M448,171.5v3.8h0.1c0.8-1.5,1.6-2.6,2.7-3.2s2.4-1,4.1-0.9v3.2c-1.2,0-2.2,0.2-3.2,0.5
						c-0.9,0.3-1.5,0.8-2,1.5c-0.5,0.6-0.9,1.4-1.1,2.3c-0.3,0.9-0.3,2-0.3,3.1v8h-3.1v-18.2H448L448,171.5z"/>
					<path class="st1" d="M469.6,188.3c-1.4,1-3.2,1.5-5.2,1.5c-1.5,0-2.7-0.3-3.8-0.7c-1.1-0.4-2-1.1-2.7-2c-0.8-0.9-1.3-1.9-1.6-3
						c-0.3-1.2-0.6-2.4-0.6-3.8c0-1.4,0.3-2.6,0.7-3.8c0.4-1.1,1-2.1,1.8-3s1.7-1.5,2.7-2c1-0.4,2.2-0.7,3.5-0.7c1.6,0,3,0.3,4.1,1
						c1.1,0.7,2,1.5,2.6,2.6c0.7,1,1.1,2.1,1.4,3.3c0.3,1.2,0.3,2.4,0.3,3.4h-13.8c0,0.8,0.1,1.5,0.3,2.2c0.3,0.7,0.6,1.4,1,1.9
						c0.4,0.5,1.1,1,1.8,1.3c0.8,0.3,1.6,0.5,2.6,0.5c1.3,0,2.3-0.3,3.2-0.9c0.9-0.6,1.4-1.5,1.6-2.6h3
						C471.9,185.8,470.9,187.3,469.6,188.3z M468.9,176.7c-0.3-0.6-0.7-1.2-1.1-1.6s-1-0.9-1.6-1.1c-0.6-0.3-1.4-0.4-2-0.4
						c-0.8,0-1.5,0.2-2.1,0.4c-0.6,0.3-1.2,0.6-1.6,1.1c-0.4,0.4-0.8,1-1.1,1.6c-0.3,0.6-0.4,1.3-0.4,2h10.7
						C469.3,178.1,469.1,177.4,468.9,176.7z"/>
					<path class="st1" d="M489.2,189.5V187h-0.1c-0.5,1-1.3,1.7-2.4,2.1c-1.1,0.4-2.2,0.7-3.6,0.7c-1.5,0-2.6-0.3-3.8-0.8
						c-1-0.5-2-1.2-2.6-2c-0.7-0.9-1.2-1.9-1.6-3c-0.3-1.1-0.5-2.3-0.5-3.6s0.2-2.5,0.5-3.6c0.3-1.1,0.9-2.1,1.5-3
						c0.7-0.9,1.6-1.5,2.6-2c1-0.5,2.3-0.8,3.7-0.8c0.5,0,1,0.1,1.5,0.2c0.5,0.1,1.1,0.3,1.6,0.5c0.5,0.3,1,0.5,1.5,0.9
						c0.5,0.3,0.9,0.8,1.2,1.4h0.1v-9.3h3.1v24.9L489.2,189.5L489.2,189.5z M478.3,183.1c0.3,0.8,0.6,1.5,1,2.1
						c0.4,0.6,1,1.1,1.8,1.5c0.8,0.3,1.5,0.6,2.6,0.6s1.9-0.2,2.6-0.6c0.7-0.4,1.3-0.9,1.8-1.5c0.4-0.6,0.8-1.4,1-2.2
						c0.2-0.9,0.3-1.6,0.3-2.5c0-0.9-0.1-1.7-0.3-2.6c-0.3-0.9-0.5-1.5-1-2.2c-0.4-0.6-1-1.1-1.8-1.5c-0.8-0.4-1.6-0.6-2.6-0.6
						c-1,0-1.9,0.2-2.6,0.6c-0.7,0.4-1.3,0.9-1.7,1.5c-0.4,0.7-0.8,1.4-0.9,2.2c-0.2,0.9-0.3,1.7-0.3,2.6
						C477.9,181.5,478,182.3,478.3,183.1z"/>
					<path class="st1" d="M510,164.6v9.3h0.1c0.5-1,1.3-1.7,2.4-2.2c1.1-0.4,2.2-0.7,3.6-0.7c1.5,0,2.6,0.3,3.8,0.8
						c1,0.5,2,1.2,2.6,2c0.7,0.9,1.2,1.9,1.6,3c0.3,1.1,0.5,2.4,0.5,3.6c0,1.3-0.2,2.5-0.5,3.6c-0.3,1.1-0.9,2.1-1.5,3
						c-0.7,0.9-1.6,1.5-2.6,2c-1,0.4-2.3,0.8-3.7,0.8c-0.4,0-0.9-0.1-1.5-0.2c-0.6-0.1-1.1-0.3-1.6-0.4c-0.5-0.2-1-0.5-1.5-0.9
						c-0.5-0.3-0.9-0.8-1.2-1.4h-0.1v2.4h-3.1v-24.7H510L510,164.6z M520.9,177.9c-0.3-0.8-0.6-1.5-1-2.1c-0.4-0.6-1-1.1-1.8-1.5
						c-0.8-0.4-1.5-0.6-2.6-0.6c-1,0-1.9,0.2-2.6,0.6c-0.7,0.4-1.3,0.9-1.8,1.5c-0.4,0.6-0.8,1.4-1,2.2c-0.2,0.9-0.3,1.6-0.3,2.5
						s0.1,1.7,0.3,2.6c0.3,0.9,0.5,1.5,1,2.2c0.4,0.6,1,1.1,1.8,1.5c0.8,0.4,1.6,0.6,2.6,0.6c1,0,2-0.2,2.6-0.6
						c0.7-0.4,1.3-0.9,1.7-1.5c0.4-0.6,0.8-1.4,0.9-2.2s0.3-1.7,0.3-2.6C521.2,179.5,521.2,178.7,520.9,177.9z"/>
					<path class="st1" d="M535.3,191.9c-0.3,0.9-0.7,1.6-1,2.2s-0.8,1.1-1.1,1.5c-0.4,0.4-0.9,0.7-1.4,0.9c-0.5,0.2-1.1,0.3-1.8,0.3
						c-0.3,0-0.7,0-1.1-0.1c-0.3-0.1-0.7-0.2-1-0.3v-2.7c0.3,0.1,0.6,0.3,0.9,0.3c0.3,0.1,0.6,0.1,0.9,0.1c0.6,0,1.1-0.2,1.5-0.4
						c0.4-0.3,0.8-0.7,0.9-1.3l1.3-3.1l-7.3-17.9h3.4l5.4,14.8h0.1l5.2-14.8h3.2L535.3,191.9z"/>
				</g>
				<g id="Betfair_logo_00000065061037423241364260000013636431806824640900_" transform="translate(88 39.211)">
					<path id="Caminho_26_00000073706596059484406440000007400115227518122369_" class="st1" d="M509.3,135.2
						c1.6-1.8,3.9-2.6,6.4-2.5c2.6-0.2,5.2,0.1,7.7,0.7c2.6,0.7,4.4,2.8,4.7,5.5c0.3,3.2,0.3,6.5,0.2,9.7c0,3.2-2.5,6.1-5.8,6.6
						c-2.8,0.6-5.7,0.7-8.5,0.3c-1.7-0.3-3.3-1.2-4.5-2.5c0,0.7-0.1,1.3-0.1,1.9h-4.5v-30.6h4.5L509.3,135.2z M523.8,144.2h-0.2
						c0-1,0.1-2.1,0-3.2c-0.2-2.6-1.3-4.1-3.8-4.3c-2.4-0.2-4.8-0.2-7.1,0c-2,0.2-3.5,1.8-3.4,3.8c-0.1,2.4-0.1,4.8,0,7.1
						c-0.1,1.6,1,3.1,2.6,3.5c2.9,0.9,6.1,0.9,9,0.1c1.4-0.3,2.4-1.5,2.6-2.9C523.7,147,523.8,145.6,523.8,144.2L523.8,144.2z"/>
					<path id="Caminho_27_00000034784490637160812650000015841254919940811653_" class="st1" d="M603.2,142.6
						c-0.1-1.3-0.1-2.6-0.3-3.9c-0.1-1-0.9-1.8-2-1.8c-2.6-0.1-5.1-0.1-7.6,0.1c-1.3,0.1-2.4,1-2.6,2.3c-1.3-0.4-2.6-0.9-3.8-1.4
						c-0.3-0.3-0.4-0.5-0.3-0.9c0.3-1.1,0.9-2.1,2-2.7c1.8-1.1,3.8-1.5,6-1.5c2.6,0,5.3,0.2,7.9,0.5c3.3,0.5,5.6,3.5,5.4,6.7
						c0.1,4.9,0,10,0,15c0,0.2-0.1,0.4-0.1,0.6h-4.4c0-0.6-0.1-1.2-0.1-2.1c-1.6,2.6-3.9,2.1-6.1,2.2c-2.5,0.1-4.9,0-7.3-0.3
						c-2.9-0.3-4.9-2.9-4.7-5.7c0-0.9,0-1.9,0-2.7c-0.1-2.2,1.3-4.3,3.4-5c1.2-0.4,2.4-0.7,3.7-0.8c2.6-0.1,5.2-0.1,7.8,0.2
						C601,141.5,602.1,142,603.2,142.6z M595.7,151.8c1.6-0.1,3.2-0.2,4.7-0.4c2.2-0.3,2.9-1.3,2.7-3.6c0-1.5-1.3-2.7-2.7-2.7
						c-2.4-0.3-4.8-0.4-7.2-0.3c-3.2,0.2-3.7,0.9-3.6,4.3c0,1.5,0.4,2.1,1.9,2.5C592.8,151.7,594.3,151.7,595.7,151.8L595.7,151.8z"
						/>
					<path id="Caminho_28_00000107569566368982819640000012501389821133367733_" class="st1" d="M553.7,146H551c-4.9,0-9.6,0-14.5,0
						c-1,0-1.3,0.3-1.1,1.3c0.1,0.4,0.1,0.9,0.2,1.4c0.3,1.9,1.3,2.8,3.8,3c2.5,0.1,4.9,0,7.3-0.1c1.1-0.1,2.1-0.8,2.6-1.7
						c0.2-0.3,0.5-0.3,0.8-0.3c1.1,0.3,2.3,0.7,3.5,1.1c-0.2,1.5-1,2.8-2.3,3.6c-1.7,1-3.7,1.5-5.7,1.4c-2.8,0.1-5.7,0-8.5-0.3
						c-3.3-0.4-5.7-3.1-5.8-6.3c-0.3-3.2-0.3-6.3,0-9.5c0.1-3,2.3-5.5,5.4-6.1c3.8-0.9,7.8-0.9,11.8-0.2c3.1,0.5,5.4,3.1,5.4,6.1
						C553.9,141.4,553.7,143.6,553.7,146z M549.3,142.1c0.3-4.2-0.8-5.2-3.8-5.5c-2.2-0.2-4.4-0.2-6.7,0.1c-2.7,0.3-4,2.5-3.3,5.4
						H549.3L549.3,142.1z"/>
					<path id="Caminho_29_00000120539280854496641680000006001678664183002255_" class="st1" d="M502.3,130.7L490,145.6l-12.4-15
						c0.3-0.1,0.6-0.1,0.9-0.1c1.4,0,2.7,0,4.1,0s1.4,0,1.4-1.5c0-1.3,0-2.6,0-3.9c0-0.4,0-0.9,0.6-0.9c3.7,0,7.3,0,11,0
						c0.1,0,0.2,0.1,0.3,0.2v6.1h6.1L502.3,130.7z"/>
					<path id="Caminho_30_00000112599951318948041000000004073667797528870813_" class="st1" d="M486.5,149.1h-6.4v6.2h-12v-6.3
						h-6.5L474,134L486.5,149.1z"/>
					<path id="Caminho_31_00000059992583674812271470000011101953023383519393_" class="st1" d="M587,127.6c-0.9,0-1.8,0-2.6,0
						s-1.8,0-2.6,0.1c-1.8,0.1-3.2,1.6-3,3.3v0.1c0,0.6,0,1.2,0,2h6.2c0,1.2,0,2.2,0,3.2c0,0.3-0.5,0.5-0.7,0.6
						c-1.5,0.1-2.9,0-4.3,0c-0.3,0-0.7,0-1.2,0.1v18.4h-4.6v-18.5h-2.4v-3.8h2.4c0-0.8,0-1.5,0-2.2c-0.4-3.4,2.1-6.5,5.6-6.8
						c0.2,0,0.3,0,0.5,0c2.2-0.2,4.5,0,6.8,0L587,127.6z"/>
					<path id="Caminho_32_00000079443553357185101660000009561548154892486570_" class="st1" d="M570.6,151.7v3.8
						c-0.1,0.1-0.3,0.1-0.3,0.2c-2.1,0-4.4,0-6.5-0.2c-3.2-0.2-5.6-2.7-5.5-5.9c-0.2-3.7-0.1-7.3-0.1-11c0-0.4,0-0.9,0-1.5l-2.5-0.1
						v-3.8h2.5v-9.1h4.5v9h6.3v3.8c-1.7,0-3.4,0.1-5.1,0c-0.9,0-1.2,0.3-1.1,1.2c0.1,3.3,0,6.6,0,9.9c0,2.6,0.9,3.6,3.4,3.7
						C567.5,151.7,569,151.7,570.6,151.7z"/>
					<path id="Caminho_33_00000064336408172960964330000003885972439331599784_" class="st1" d="M625.3,155.5h-4.5v-22.8h4.3v2.7
						c0.2,0,0.3,0,0.3,0c2.4-2.9,6.6-3.8,9.9-2c0.3,0.2,0.7,0.3,0.9,0.6c1.5,1.2,1.5,1.7-0.1,2.8l-1.4,0.9c-1.6-1.5-3.8-1.9-5.9-1.2
						c-2.2,0.5-3.8,2.6-3.6,4.8c0,4.3,0,8.5,0,12.9L625.3,155.5z"/>
					<path id="Caminho_34_00000070085354017147306350000001163891192675942055_" class="st1" d="M612,132.8h4.5
						c0,0.4,0.1,0.8,0.1,1.1c0,6.9,0,13.7,0,20.6c0,0.9-0.3,1.3-1.1,1.2c-1.1-0.1-2.2,0-3.4,0L612,132.8L612,132.8z"/>
					<path id="Caminho_35_00000095308098574014905780000011806325173334984886_" class="st1" d="M616.4,128.8H612v-4.7h4.4V128.8z"
						/>
				</g>
			</g>
		</g>
	</g>
	<g>
		<g transform="translate(192.135169, 439.994126)">
			<g>
				<path class="st2" d="M-88.7-281.8l-13.2-106.9h20.4l7.8,72.7l7-72.7h20.4l-13.2,106.9H-88.7z"/>
			</g>
		</g>
	</g>
	<g>
		<g transform="translate(233.265247, 439.994126)">
			<g>
				<path class="st2" d="M-81.4-281.8v-106.8h42.8v20.6h-21v20.8h20.1v20.1h-20.1v24.5h22.4v20.8H-81.4z"/>
			</g>
		</g>
	</g>
	<g>
		<g transform="translate(269.396567, 439.994126)">
			<g>
				<path class="st2" d="M-66.3-388.6h32.8c5.2,0,9.3,1.2,12.1,3.5c2.9,2.4,4.8,5.7,5.8,10c1,4.3,1.5,9.7,1.5,16.3
					c0,6-0.8,10.8-2.4,14.2c-1.6,3.4-4.3,5.8-8.2,7.1c3.2,0.7,5.6,2.3,7,4.9c1.4,2.6,2.2,6.1,2.2,10.5l-0.2,40.4h-20.9v-41.8
					c0-3-0.6-4.9-1.7-5.7c-1.2-0.8-3.3-1.2-6.3-1.2v48.7h-21.6V-388.6z M-39.5-349c3,0,4.5-3.2,4.5-9.7c0-2.8-0.1-4.9-0.4-6.3
					c-0.3-1.4-0.7-2.4-1.4-2.9c-0.7-0.5-1.6-0.8-2.9-0.8h-5v19.8H-39.5z"/>
			</g>
		</g>
	</g>
	<g>
		<g transform="translate(311.228212, 439.994126)">
			<g>
				<path class="st2" d="M-48.9-388.6h29.5c7.6,0,13.3,2.1,17.1,6.4c3.8,4.2,5.8,10.5,5.8,18.8l0.2,50C4-302.9,2.1-295-1.6-289.7
					c-3.7,5.3-9.9,8-18.5,8h-28.7V-388.6z M-23.6-300.7c3.9,0,5.8-1.9,5.8-5.7v-55.1c0-2.4-0.2-4.2-0.6-5.4c-0.4-1.2-1.1-2-2.1-2.4
					c-1-0.4-2.5-0.6-4.6-0.6h-2.4v69.3H-23.6z"/>
			</g>
		</g>
	</g>
	<g>
		<g transform="translate(354.463018, 439.994126)">
			<g>
				<path class="st2" d="M-31.8-281.8v-106.8h20.6v106.8H-31.8z"/>
			</g>
		</g>
	</g>
	<g>
		<g transform="translate(374.370329, 439.994126)">
			<g>
				<path class="st2" d="M-22.5-281.8v-106.8h22l9.8,51.1v-51.1H30v106.8H9.1l-10.7-53.5v53.5H-22.5z"/>
			</g>
		</g>
	</g>
	<g>
		<g transform="translate(418.043625, 439.994126)">
			<g>
				<path class="st2" d="M-4.2-281.8v-106.8H17v38.2h10.1v-38.2h21.3v106.8H27.1v-48.5H17v48.5H-4.2z"/>
			</g>
		</g>
	</g>
	<g>
		<g transform="translate(461.804613, 439.994126)">
			<g>
				<path class="st2" d="M11.2-281.8l10.3-106.8h36.2l10.2,106.8H47.6L46.1-299H33.2l-1.2,17.3H11.2z M34.8-316.1h9.7l-4.7-54.3h-1
					L34.8-316.1z"/>
			</g>
		</g>
	</g>
	<g>
		<g transform="translate(504.367826, 439.994126)">
			<g>
				<path class="st1" d="M66.6-280.8c-6,0-10.2-3.6-12.8-10.7v9.7H31.4v-107.4h22.4v20.8c3.5-3.6,7.5-5.4,12.2-5.4
					c7,0,12.1,2.1,15.2,6.3c3.1,4.2,4.6,10.2,4.6,18.1v43.9c0,7.5-1.6,13.4-4.7,18S73.1-280.8,66.6-280.8z M59.3-297.7
					c1.5,0,2.5-0.5,3.2-1.4c0.6-1,1-2.2,1.1-3.6c0.1-1.4,0.2-3.7,0.2-6.8v-37.9c0-3.2-0.3-5.6-0.9-7.2c-0.6-1.6-1.8-2.4-3.7-2.4
					c-2.1,0-3.5,0.8-4.2,2.4c-0.7,1.6-1.1,3.9-1.1,7v38.2c0,4,0.3,7,1,8.9S57-297.7,59.3-297.7z"/>
			</g>
		</g>
	</g>
	<g>
		<g transform="translate(548.304213, 439.994126)">
			<g>
				<path class="st1" d="M75.3-280.8c-9.4,0-16.1-2.6-20.1-7.7c-4.1-5.1-6.1-12.8-6.1-23V-348c0-8.4,2.4-14.8,7.2-19.1
					c4.8-4.4,11.5-6.6,20.2-6.6c17.5,0,26.2,8.6,26.2,25.7v6.6c0,6.6-0.1,12-0.2,16.1H70.8v17.7c0,3.2,0.3,5.6,1,7.4
					c0.7,1.8,2.1,2.7,4.2,2.7c1.7,0,2.8-0.5,3.5-1.5c0.7-1,1.1-2.1,1.2-3.4c0.1-1.3,0.2-3.2,0.2-5.6v-8.8h21.6v5.2
					c0,10.6-2.1,18.4-6.2,23.5C92.4-283.3,85.3-280.8,75.3-280.8z M81-336.1v-11.7c0-6.5-1.6-9.8-4.9-9.8c-3.6,0-5.5,3.3-5.5,9.8
					v11.7H81z"/>
			</g>
		</g>
	</g>
	<g>
		<g transform="translate(591.10053, 439.994126)">
			<g>
				<path class="st1" d="M86.4-280.8c-5.7,0-9.7-1.2-11.8-3.6c-2.2-2.4-3.2-6.3-3.2-11.6v-56.8h-6.1v-16.5h6.1v-19.3h21.1v19.3h6.2
					v16.5h-6.2v51.1c0,1.6,0.1,2.7,0.4,3.5c0.2,0.7,0.9,1.1,2,1.1c0.8,0,1.6,0,2.3-0.1c0.8-0.1,1.3-0.1,1.5-0.1v14.9
					c-1.2,0.3-3,0.7-5.4,1C91-281,88.7-280.8,86.4-280.8z"/>
			</g>
		</g>
	</g>
</g>
</svg>
