<?xml version="1.0" encoding="utf-8"?>
<!-- Generator: Adobe Illustrator 27.0.0, SVG Export Plug-In . SVG Version: 6.00 Build 0)  -->
<svg version="1.1" id="Camada_1" xmlns="http://www.w3.org/2000/svg" xmlns:xlink="http://www.w3.org/1999/xlink" x="0px" y="0px"
	 viewBox="0 0 824 268" style="enable-background:new 0 0 824 268;" xml:space="preserve">
<style type="text/css">
	.st0{fill:#FCAB75;}
	.st1{fill:#FA9F68;}
	.st2{fill:#F8925B;}
	.st3{fill:#F5864E;}
	.st4{fill:#F37A41;}
	.st5{fill:#F16D34;}
	.st6{fill:#EF6127;}
	.st7{fill:#EC551A;}
	.st8{fill:#EA480D;}
	.st9{fill:#E83C00;}
	.st10{fill:#FFFFFF;}
	.st11{fill:#F9F9F9;}
	.st12{fill:#DEEFEC;}
	.st13{fill:#C3E5DF;}
	.st14{fill:#A8DBD2;}
	.st15{fill:#8DD1C5;}
	.st16{fill:#71C8B7;}
	.st17{fill:#56BEAA;}
	.st18{fill:#3BB49D;}
	.st19{fill:#20AA90;}
	.st20{fill:#05A083;}
	.st21{enable-background:new    ;}
	.st22{fill:#02352C;}
	.st23{fill:#047C66;}
	.st24{fill:#01120F;}
	.st25{fill:#01241D;}
	.st26{fill:#02473A;}
	.st27{fill:#035949;}
	.st28{fill:#036B57;}
	.st29{fill:#048E74;}
</style>
<g>
	<path class="st10" d="M769.26,41.62c-10.44,12.82-20.75,25.49-31.29,38.44c0.96,0,1.48,0,2.01,0c14.07,0,28.15-0.02,42.22,0.03
		c1.2,0,1.95-0.35,2.7-1.28c6.37-7.9,12.8-15.75,19.21-23.63c3.66-4.49,7.31-8.99,10.98-13.51c-0.2-0.28-0.33-0.51-0.5-0.71
		c-10-12.29-20-24.58-30.04-36.83c-0.42-0.52-1.34-0.88-2.03-0.89c-14.34-0.05-28.69-0.04-43.03-0.03c-0.39,0-0.79,0.08-1.39,0.15
		C748.56,16.2,758.86,28.85,769.26,41.62z M683.52,3.22c10.58,13,20.9,25.68,31.27,38.41c-10.43,12.81-20.74,25.48-31.29,38.44
		c4.78,0,9.12-0.03,13.46,0.02c1.07,0.01,1.77-0.31,2.45-1.15c7.74-9.56,15.52-19.09,23.29-28.63c2.34-2.87,4.67-5.74,6.99-8.6
		c-0.12-0.23-0.17-0.38-0.27-0.5c-10.1-12.42-20.2-24.83-30.33-37.23c-0.3-0.37-0.86-0.73-1.31-0.73
		C693.16,3.19,688.55,3.22,683.52,3.22z M710.58,80.06c4.68,0,8.91-0.05,13.15,0.03c1.31,0.03,2.16-0.37,2.98-1.4
		c6.2-7.7,12.46-15.34,18.7-23.01c3.79-4.66,7.58-9.33,11.36-13.98c-0.12-0.22-0.18-0.38-0.27-0.5
		c-10.1-12.42-20.2-24.84-30.34-37.22c-0.37-0.45-1.17-0.73-1.78-0.74c-3.38-0.06-6.77-0.02-10.15-0.01c-1.05,0-2.1,0-3.59,0
		c10.57,12.99,20.85,25.63,31.23,38.39C731.5,54.36,721.17,67.05,710.58,80.06z M702.83,41.65c-0.43-0.55-0.76-0.97-1.09-1.38
		c-8.72-10.71-17.43-21.41-26.15-32.11c-1.32-1.62-2.39-3.84-4.11-4.64c-1.78-0.83-4.21-0.29-6.35-0.3
		c-2.72-0.02-5.43-0.01-8.53-0.01c10.57,12.99,20.89,25.67,31.27,38.42c-10.4,12.77-20.73,25.47-31.28,38.44
		c4.83,0,9.18-0.04,13.53,0.03c1.1,0.02,1.75-0.38,2.41-1.2c5.98-7.39,11.99-14.76,18-22.13C694.6,51.77,698.67,46.77,702.83,41.65z
		"/>
	<path class="st20" d="M769.26,41.62c-10.4-12.77-20.7-25.42-31.15-38.26c0.6-0.07,0.99-0.15,1.39-0.15
		c14.34-0.01,28.69-0.02,43.03,0.03c0.69,0,1.61,0.37,2.03,0.89c10.05,12.25,20.04,24.54,30.04,36.83c0.16,0.2,0.3,0.43,0.5,0.71
		c-3.67,4.52-7.33,9.02-10.98,13.51c-6.41,7.87-12.84,15.73-19.21,23.63c-0.75,0.93-1.51,1.28-2.7,1.28
		c-14.07-0.04-28.15-0.03-42.22-0.03c-0.53,0-1.05,0-2.01,0C748.51,67.12,758.82,54.45,769.26,41.62z"/>
	<path class="st15" d="M683.52,3.22c5.03,0,9.65-0.02,14.26,0.03c0.45,0.01,1.01,0.37,1.31,0.73c10.13,12.4,20.23,24.81,30.33,37.23
		c0.1,0.12,0.15,0.28,0.27,0.5c-2.32,2.85-4.65,5.73-6.99,8.6c-7.77,9.54-15.55,19.07-23.29,28.63c-0.68,0.84-1.38,1.16-2.45,1.15
		c-4.34-0.06-8.68-0.02-13.46-0.02c10.54-12.96,20.86-25.63,31.29-38.44C704.42,28.89,694.1,16.21,683.52,3.22z"/>
	<path class="st18" d="M710.58,80.06c10.59-13.01,20.92-25.7,31.28-38.43c-10.38-12.76-20.66-25.4-31.23-38.39c1.49,0,2.54,0,3.59,0
		c3.38-0.01,6.77-0.05,10.15,0.01c0.61,0.01,1.42,0.3,1.78,0.74c10.14,12.38,20.24,24.8,30.34,37.22c0.1,0.12,0.15,0.27,0.27,0.5
		c-3.78,4.65-7.56,9.32-11.36,13.98c-6.24,7.67-12.5,15.31-18.7,23.01c-0.83,1.03-1.67,1.43-2.98,1.4
		C719.49,80.01,715.25,80.06,710.58,80.06z"/>
	<path class="st11" d="M702.83,41.65c-4.17,5.12-8.23,10.12-12.3,15.11c-6,7.37-12.02,14.73-18,22.13c-0.66,0.82-1.31,1.22-2.41,1.2
		c-4.35-0.07-8.7-0.03-13.53-0.03c10.55-12.97,20.89-25.67,31.28-38.44c-10.38-12.75-20.7-25.43-31.27-38.42
		c3.1,0,5.81-0.02,8.53,0.01c2.14,0.02,4.57-0.52,6.35,0.3c1.72,0.8,2.79,3.02,4.11,4.64c8.72,10.7,17.44,21.41,26.15,32.11
		C702.08,40.68,702.4,41.1,702.83,41.65z"/>
</g>
<g>
	<path class="st11" d="M18.7,193.44H5.56l34.01-81.73h13.26l34.01,81.73H73.8l-10.72-25.59H29.31L18.7,193.44z M33.92,156.67h24.55
		l-12.22-29.51L33.92,156.67z"/>
	<path class="st12" d="M128.09,111.71c3.23,0,6.26,0.62,9.11,1.84c2.84,1.23,5.32,2.88,7.44,4.96c2.11,2.07,3.78,4.52,5.01,7.32
		c1.23,2.81,1.85,5.82,1.85,9.05c0,3.23-0.61,6.26-1.84,9.11c-1.23,2.84-2.89,5.3-5,7.38s-4.58,3.71-7.42,4.9
		c-2.84,1.19-5.86,1.79-9.08,1.79L107,158.16v35.27H94.9v-81.73H128.09z M128.14,146.98c1.61,0,3.12-0.33,4.54-0.98
		c1.41-0.66,2.66-1.53,3.73-2.61c1.07-1.08,1.92-2.37,2.53-3.88c0.61-1.51,0.92-3.11,0.92-4.81c0-1.7-0.31-3.28-0.92-4.75
		c-0.61-1.47-1.45-2.76-2.53-3.88c-1.07-1.12-2.32-2.01-3.73-2.66c-1.42-0.66-2.93-0.99-4.54-0.99H107v24.55H128.14z"/>
	<path class="st13" d="M200.14,110.56c5.53,0,10.76,1.11,15.68,3.34c4.92,2.23,9.2,5.24,12.85,9.05c3.65,3.8,6.55,8.26,8.7,13.37
		c2.15,5.11,3.23,10.51,3.23,16.2c0,5.76-1.08,11.18-3.23,16.25c-2.15,5.07-5.07,9.51-8.76,13.31c-3.69,3.8-7.99,6.82-12.91,9.05
		c-4.92,2.23-10.14,3.34-15.68,3.34s-10.76-1.11-15.68-3.34c-4.92-2.23-9.2-5.24-12.85-9.05c-3.65-3.8-6.53-8.24-8.65-13.31
		c-2.11-5.07-3.17-10.49-3.17-16.25c0-5.69,1.06-11.08,3.17-16.2c2.11-5.11,5.01-9.57,8.7-13.37c3.69-3.8,7.99-6.82,12.91-9.05
		C189.38,111.67,194.61,110.56,200.14,110.56z M200.08,183.06c3.93,0,7.6-0.79,11.03-2.36c3.43-1.57,6.41-3.75,8.95-6.51
		c2.54-2.77,4.54-6.01,6.01-9.74c1.46-3.73,2.19-7.7,2.19-11.93c0-4.23-0.73-8.18-2.19-11.87c-1.46-3.69-3.47-6.92-6.01-9.68
		c-2.54-2.77-5.53-4.94-8.95-6.51c-3.43-1.57-7.1-2.36-11.03-2.36c-3.93,0-7.61,0.79-11.03,2.36c-3.43,1.58-6.41,3.75-8.95,6.51
		c-2.54,2.77-4.56,5.99-6.06,9.68c-1.5,3.69-2.25,7.65-2.25,11.87c0,4.23,0.75,8.2,2.25,11.93c1.5,3.73,3.52,6.97,6.06,9.74
		c2.54,2.77,5.53,4.94,8.95,6.51C192.47,182.28,196.15,183.06,200.08,183.06z"/>
	<path class="st14" d="M305.15,170.5c0,3.46-0.69,6.67-2.07,9.63c-1.38,2.96-3.42,5.55-6.11,7.78c-5.3,4.46-12.1,6.69-20.4,6.69
		c-6.46,0-12.3-1.31-17.52-3.94c-5.23-2.62-9.07-6.15-11.53-10.59l10.26-5.3c1.54,2.77,3.98,4.9,7.32,6.4
		c3.34,1.5,7.17,2.25,11.47,2.25c11.14,0,16.71-4.27,16.71-12.81c0-1.62-0.29-3-0.86-4.16c-0.58-1.15-1.44-2.23-2.59-3.23
		c-2.77-2.31-7.72-4.39-14.87-6.23c-4.3-1.08-7.95-2.27-10.95-3.58c-3-1.31-5.5-2.85-7.49-4.62c-4.84-3.93-7.26-9.12-7.26-15.59
		c0-3.23,0.63-6.25,1.9-9.06c1.27-2.81,3.06-5.25,5.36-7.33c2.38-2.08,5.17-3.64,8.36-4.67c3.19-1.04,6.7-1.56,10.55-1.56
		c5.61,0,10.78,1.08,15.5,3.23c4.73,2.15,8.32,5.19,10.78,9.11l-9.34,5.76c-2.23-2.69-4.8-4.59-7.72-5.71
		c-2.92-1.11-5.99-1.67-9.22-1.67c-2.31,0-4.42,0.39-6.34,1.15c-1.92,0.77-3.54,1.69-4.84,2.77c-1.08,0.92-1.87,2.06-2.36,3.4
		c-0.5,1.35-0.75,2.79-0.75,4.32c0,1,0.15,2.02,0.46,3.06c0.31,1.04,1.04,2.11,2.19,3.23c1.15,1.12,2.84,2.19,5.07,3.23
		s5.26,2.06,9.11,3.06c4.61,1.15,8.49,2.4,11.64,3.75c3.15,1.35,5.8,2.94,7.95,4.78C302.62,158.16,305.15,163.66,305.15,170.5z"/>
	<path class="st15" d="M333.74,122.54h-22.13v-10.84h56.48v10.84h-22.25v70.89h-12.1V122.54z"/>
	<path class="st16" d="M385.61,193.44h-13.14l34.01-81.73h13.26l34.01,81.73h-13.03l-10.72-25.59h-33.78L385.61,193.44z
		 M400.83,156.67h24.55l-12.22-29.51L400.83,156.67z"/>
	<path class="st17" d="M516.56,170.5c0,3.46-0.69,6.67-2.07,9.63c-1.38,2.96-3.42,5.55-6.11,7.78c-5.3,4.46-12.1,6.69-20.4,6.69
		c-6.46,0-12.3-1.31-17.52-3.94c-5.23-2.62-9.07-6.15-11.53-10.59l10.26-5.3c1.54,2.77,3.98,4.9,7.32,6.4
		c3.34,1.5,7.16,2.25,11.47,2.25c11.14,0,16.71-4.27,16.71-12.81c0-1.62-0.29-3-0.86-4.16c-0.58-1.15-1.44-2.23-2.59-3.23
		c-2.77-2.31-7.72-4.39-14.87-6.23c-4.3-1.08-7.95-2.27-10.95-3.58c-3-1.31-5.49-2.85-7.49-4.62c-4.84-3.93-7.26-9.12-7.26-15.59
		c0-3.23,0.63-6.25,1.9-9.06c1.27-2.81,3.06-5.25,5.36-7.33c2.38-2.08,5.17-3.64,8.36-4.67c3.19-1.04,6.7-1.56,10.55-1.56
		c5.61,0,10.78,1.08,15.5,3.23c4.73,2.15,8.32,5.19,10.78,9.11l-9.34,5.76c-2.23-2.69-4.8-4.59-7.72-5.71
		c-2.92-1.11-5.99-1.67-9.22-1.67c-2.31,0-4.42,0.39-6.34,1.15c-1.92,0.77-3.54,1.69-4.84,2.77c-1.08,0.92-1.86,2.06-2.36,3.4
		c-0.5,1.35-0.75,2.79-0.75,4.32c0,1,0.15,2.02,0.46,3.06c0.3,1.04,1.04,2.11,2.19,3.23c1.15,1.12,2.84,2.19,5.07,3.23
		c2.23,1.04,5.26,2.06,9.11,3.06c4.61,1.15,8.49,2.4,11.64,3.75c3.15,1.35,5.8,2.94,7.95,4.78
		C514.02,158.16,516.56,163.66,516.56,170.5z"/>
	<path class="st18" d="M583.76,111.71h17.52v81.73h-16.71l-39.19-53.37v53.37h-17.52v-81.73h16.37l39.54,53.72V111.71z"/>
	<path class="st19" d="M650.62,110.56c5.53,0,10.76,1.11,15.68,3.34c4.92,2.23,9.2,5.26,12.85,9.11c3.65,3.84,6.53,8.3,8.65,13.37
		c2.11,5.07,3.17,10.49,3.17,16.25c0,5.69-1.06,11.11-3.17,16.25c-2.11,5.15-5,9.64-8.65,13.49c-3.65,3.84-7.93,6.9-12.85,9.16
		c-4.92,2.27-10.14,3.4-15.68,3.4c-5.53,0-10.76-1.13-15.68-3.4c-4.92-2.27-9.18-5.32-12.8-9.16c-3.61-3.84-6.47-8.34-8.59-13.49
		c-2.11-5.15-3.17-10.57-3.17-16.25c0-5.76,1.06-11.18,3.17-16.25c2.11-5.07,4.98-9.53,8.59-13.37c3.61-3.84,7.88-6.88,12.8-9.11
		C639.86,111.67,645.09,110.56,650.62,110.56z M650.68,177.53c3.14,0,6.09-0.65,8.85-1.96c2.76-1.31,5.18-3.09,7.24-5.36
		c2.07-2.27,3.7-4.9,4.88-7.9c1.19-3,1.78-6.22,1.78-9.68c0-3.46-0.59-6.7-1.78-9.74c-1.19-3.03-2.82-5.69-4.88-7.95
		c-2.07-2.27-4.49-4.05-7.24-5.36c-2.76-1.31-5.71-1.96-8.85-1.96c-3.14,0-6.09,0.65-8.85,1.96c-2.76,1.31-5.17,3.09-7.24,5.36
		c-2.07,2.27-3.7,4.92-4.89,7.95c-1.19,3.04-1.78,6.28-1.78,9.74c0,3.46,0.59,6.69,1.78,9.68c1.19,3,2.82,5.63,4.89,7.9
		c2.07,2.27,4.49,4.05,7.24,5.36C644.58,176.88,647.53,177.53,650.68,177.53z"/>
	<path class="st20" d="M801.17,111.71h18.21l-23.06,81.73h-21.67l-16.83-54.98L741,193.44h-21.44l-23.06-81.73h18.21l16.14,61.79
		l18.56-61.79h16.83l18.67,62.25L801.17,111.71z"/>
</g>
<g class="st21">
	<path class="st10" d="M376.17,227.68c3.14,0,5.52,0.81,7.14,2.42c1.62,1.62,2.42,3.88,2.42,6.79c0,2.91-0.81,5.18-2.42,6.81
		s-3.99,2.43-7.14,2.4h-9.52v12.75h-4.15v-31.17H376.17z M374.78,242.61c2.36,0.03,4.08-0.45,5.17-1.44
		c1.09-0.99,1.64-2.42,1.64-4.28s-0.54-3.28-1.64-4.26c-1.09-0.97-2.82-1.46-5.17-1.46h-8.12v11.44H374.78z"/>
	<path class="st10" d="M389.66,242.94c0.47-1.44,1.16-2.69,2.1-3.75c0.93-1.06,2.08-1.9,3.45-2.51c1.37-0.61,2.94-0.92,4.71-0.92
		c1.8,0,3.38,0.31,4.74,0.92c1.35,0.61,2.5,1.45,3.43,2.51c0.93,1.06,1.63,2.31,2.09,3.75s0.7,2.99,0.7,4.65
		c0,1.66-0.23,3.2-0.7,4.63s-1.16,2.67-2.09,3.73c-0.93,1.06-2.07,1.89-3.43,2.49c-1.35,0.6-2.93,0.9-4.74,0.9
		c-1.78,0-3.35-0.3-4.71-0.9c-1.37-0.6-2.52-1.42-3.45-2.49c-0.93-1.06-1.63-2.31-2.1-3.73s-0.7-2.97-0.7-4.63
		C388.96,245.93,389.2,244.38,389.66,242.94z M393.44,251.23c0.36,1.06,0.87,1.95,1.51,2.66c0.64,0.71,1.39,1.26,2.25,1.64
		c0.86,0.38,1.77,0.57,2.73,0.57c0.96,0,1.87-0.19,2.73-0.57c0.86-0.38,1.61-0.92,2.25-1.64c0.64-0.71,1.14-1.6,1.51-2.66
		c0.36-1.06,0.55-2.28,0.55-3.64c0-1.37-0.18-2.58-0.55-3.64c-0.36-1.06-0.87-1.96-1.51-2.68c-0.64-0.73-1.39-1.28-2.25-1.66
		c-0.86-0.38-1.77-0.57-2.73-0.57c-0.96,0-1.87,0.19-2.73,0.57c-0.86,0.38-1.61,0.93-2.25,1.66c-0.64,0.73-1.14,1.62-1.51,2.68
		c-0.36,1.06-0.55,2.28-0.55,3.64C392.89,248.95,393.07,250.17,393.44,251.23z"/>
	<path class="st10" d="M433.66,258.85l-4.58-17.94h-0.09l-4.54,17.94h-4.02l-7.25-22.57h4.1l5.11,18.46h0.09l4.54-18.46h4.06
		l4.71,18.46h0.09l5.06-18.46h3.84l-7.2,22.57H433.66z"/>
	<path class="st10" d="M464.3,257.41c-1.69,1.28-3.81,1.92-6.37,1.92c-1.8,0-3.37-0.29-4.69-0.87c-1.32-0.58-2.44-1.4-3.34-2.44
		c-0.9-1.05-1.58-2.3-2.03-3.75s-0.71-3.04-0.76-4.76c0-1.72,0.26-3.29,0.79-4.71c0.52-1.43,1.26-2.66,2.2-3.71
		c0.95-1.05,2.07-1.86,3.36-2.44c1.29-0.58,2.71-0.87,4.26-0.87c2.01,0,3.67,0.41,5,1.24c1.32,0.83,2.39,1.88,3.19,3.16
		c0.8,1.28,1.35,2.68,1.66,4.19c0.31,1.51,0.43,2.95,0.37,4.32h-16.89c-0.03,0.99,0.09,1.93,0.35,2.82
		c0.26,0.89,0.68,1.67,1.27,2.36c0.58,0.68,1.32,1.23,2.23,1.64c0.9,0.41,1.96,0.61,3.19,0.61c1.57,0,2.86-0.36,3.86-1.09
		s1.67-1.83,1.99-3.32h3.67C467.08,254.22,465.99,256.13,464.3,257.41z M463.41,242.91c-0.33-0.79-0.79-1.46-1.35-2.03
		s-1.24-1.02-2.01-1.35c-0.77-0.33-1.62-0.5-2.55-0.5c-0.96,0-1.83,0.17-2.6,0.5c-0.77,0.33-1.43,0.79-1.99,1.38
		c-0.55,0.58-0.99,1.26-1.31,2.03c-0.32,0.77-0.51,1.59-0.57,2.47H464C463.94,244.53,463.74,243.7,463.41,242.91z"/>
	<path class="st10" d="M475.13,236.28v4.76h0.09c0.9-1.83,2.01-3.19,3.32-4.06s2.97-1.28,4.98-1.22v3.93c-1.48,0-2.75,0.2-3.8,0.61
		c-1.05,0.41-1.89,1-2.53,1.79c-0.64,0.79-1.11,1.74-1.4,2.86c-0.29,1.12-0.44,2.41-0.44,3.86v10.04h-3.71v-22.57H475.13z"/>
	<path class="st10" d="M501.49,257.41c-1.69,1.28-3.81,1.92-6.37,1.92c-1.8,0-3.37-0.29-4.69-0.87c-1.32-0.58-2.44-1.4-3.34-2.44
		c-0.9-1.05-1.58-2.3-2.03-3.75s-0.71-3.04-0.76-4.76c0-1.72,0.26-3.29,0.79-4.71c0.52-1.43,1.26-2.66,2.2-3.71
		c0.95-1.05,2.07-1.86,3.36-2.44c1.29-0.58,2.71-0.87,4.26-0.87c2.01,0,3.67,0.41,5,1.24c1.32,0.83,2.39,1.88,3.19,3.16
		c0.8,1.28,1.35,2.68,1.66,4.19c0.31,1.51,0.43,2.95,0.37,4.32h-16.89c-0.03,0.99,0.09,1.93,0.35,2.82
		c0.26,0.89,0.68,1.67,1.27,2.36c0.58,0.68,1.32,1.23,2.23,1.64c0.9,0.41,1.96,0.61,3.19,0.61c1.57,0,2.86-0.36,3.86-1.09
		s1.67-1.83,1.99-3.32h3.67C504.27,254.22,503.18,256.13,501.49,257.41z M500.6,242.91c-0.33-0.79-0.79-1.46-1.35-2.03
		s-1.24-1.02-2.01-1.35c-0.77-0.33-1.62-0.5-2.55-0.5c-0.96,0-1.83,0.17-2.6,0.5c-0.77,0.33-1.43,0.79-1.99,1.38
		c-0.55,0.58-0.99,1.26-1.31,2.03c-0.32,0.77-0.51,1.59-0.57,2.47h12.96C501.13,244.53,500.93,243.7,500.6,242.91z"/>
	<path class="st10" d="M525.41,258.85v-3.06h-0.09c-0.61,1.25-1.57,2.15-2.88,2.71c-1.31,0.55-2.75,0.83-4.32,0.83
		c-1.75,0-3.27-0.32-4.56-0.96s-2.37-1.5-3.23-2.58c-0.86-1.08-1.51-2.33-1.94-3.75s-0.66-2.94-0.66-4.54s0.21-3.11,0.63-4.54
		s1.06-2.67,1.92-3.73c0.86-1.06,1.93-1.91,3.23-2.53c1.29-0.63,2.8-0.94,4.52-0.94c0.58,0,1.21,0.06,1.88,0.17
		c0.67,0.12,1.34,0.31,2.01,0.59c0.67,0.28,1.3,0.64,1.9,1.09c0.6,0.45,1.1,1.01,1.51,1.68h0.09v-11.61h3.71v31.17H525.41z
		 M512.08,250.84c0.28,1,0.7,1.9,1.27,2.68c0.57,0.79,1.29,1.41,2.18,1.88c0.89,0.47,1.93,0.7,3.12,0.7c1.25,0,2.31-0.25,3.19-0.74
		c0.87-0.49,1.58-1.14,2.14-1.94c0.55-0.8,0.95-1.71,1.2-2.73c0.25-1.02,0.37-2.05,0.37-3.1c0-1.11-0.13-2.17-0.39-3.21
		c-0.26-1.03-0.68-1.94-1.24-2.73s-1.3-1.42-2.21-1.9c-0.9-0.48-1.99-0.72-3.27-0.72c-1.25,0-2.31,0.25-3.19,0.74
		c-0.87,0.5-1.57,1.15-2.09,1.96c-0.52,0.82-0.9,1.75-1.13,2.79c-0.23,1.05-0.35,2.12-0.35,3.23
		C511.66,248.81,511.8,249.83,512.08,250.84z"/>
	<path class="st10" d="M550.82,227.68v11.65h0.09c0.61-1.25,1.57-2.16,2.88-2.73c1.31-0.57,2.75-0.85,4.32-0.85
		c1.75,0,3.27,0.32,4.56,0.96c1.29,0.64,2.37,1.51,3.23,2.6c0.86,1.09,1.51,2.35,1.94,3.78s0.66,2.94,0.66,4.54
		s-0.21,3.11-0.63,4.54c-0.42,1.43-1.06,2.67-1.92,3.73s-1.94,1.9-3.23,2.51s-2.8,0.92-4.52,0.92c-0.55,0-1.17-0.06-1.86-0.17
		c-0.68-0.12-1.36-0.31-2.03-0.57c-0.67-0.26-1.3-0.62-1.9-1.07c-0.6-0.45-1.1-1.01-1.51-1.68h-0.09v3.01h-3.71v-31.17H550.82z
		 M564.15,244.29c-0.28-1-0.7-1.9-1.27-2.68c-0.57-0.79-1.29-1.41-2.18-1.88c-0.89-0.46-1.93-0.7-3.12-0.7
		c-1.25,0-2.31,0.25-3.19,0.74c-0.87,0.5-1.59,1.14-2.14,1.94c-0.55,0.8-0.95,1.71-1.2,2.73c-0.25,1.02-0.37,2.05-0.37,3.1
		c0,1.11,0.13,2.18,0.39,3.21s0.68,1.94,1.24,2.73c0.57,0.79,1.3,1.42,2.2,1.9c0.9,0.48,1.99,0.72,3.27,0.72
		c1.28,0,2.35-0.25,3.21-0.74c0.86-0.49,1.55-1.15,2.07-1.96c0.52-0.81,0.9-1.75,1.13-2.79c0.23-1.05,0.35-2.12,0.35-3.23
		C564.57,246.32,564.43,245.29,564.15,244.29z"/>
	<path class="st10" d="M581.72,261.86c-0.44,1.11-0.87,2.04-1.29,2.79c-0.42,0.76-0.89,1.38-1.4,1.85c-0.51,0.48-1.08,0.83-1.7,1.05
		c-0.63,0.22-1.35,0.33-2.16,0.33c-0.44,0-0.87-0.03-1.31-0.09c-0.44-0.06-0.86-0.16-1.27-0.31v-3.4c0.32,0.15,0.69,0.27,1.11,0.37
		c0.42,0.1,0.78,0.15,1.07,0.15c0.76,0,1.39-0.18,1.9-0.55c0.51-0.36,0.89-0.88,1.16-1.55l1.53-3.8l-8.95-22.44h4.19l6.59,18.46
		h0.09l6.33-18.46h3.93L581.72,261.86z"/>
</g>
<g id="Betfair_logo_00000141437973325806307380000012841837516892200355_" transform="translate(88 38.672)">
	<path id="Path_26_00000150077295108037209410000004879527070544542107_" class="st10" d="M569.37,198.9
		c1.95-2.21,4.83-3.37,7.77-3.12c3.15-0.18,6.31,0.1,9.38,0.83c3.16,0.81,5.45,3.54,5.67,6.8c0.39,4.05,0.46,8.13,0.21,12.2
		c-0.04,4.1-3.03,7.58-7.08,8.25c-3.41,0.78-6.94,0.9-10.39,0.35c-2.12-0.39-4.05-1.48-5.48-3.09c-0.05,0.85-0.09,1.56-0.14,2.37
		h-5.49v-38.41h5.53L569.37,198.9z M587.14,210.25h-0.19c0-1.31,0.06-2.67,0-3.99c-0.18-3.26-1.61-5.09-4.63-5.36
		c-2.89-0.23-5.79-0.21-8.67,0.04c-2.41,0.2-4.24,2.26-4.15,4.68c-0.14,2.97-0.14,5.94,0.02,8.91c-0.08,2.03,1.24,3.86,3.19,4.43
		c3.58,1.01,7.36,1.04,10.95,0.07c1.69-0.43,2.93-1.88,3.08-3.62C586.97,213.69,587.01,211.96,587.14,210.25L587.14,210.25z"/>
	<path id="Path_27_00000044142448214973877950000014140731677191781280_" class="st10" d="M683.96,208.18
		c-0.12-1.58-0.16-3.29-0.44-4.96c-0.14-1.26-1.19-2.23-2.46-2.28c-3.09-0.1-6.2-0.11-9.29,0.07c-1.6,0.11-2.92,1.29-3.21,2.86
		c-1.59-0.56-3.13-1.06-4.63-1.68c-0.32-0.28-0.48-0.69-0.44-1.11c0.26-1.43,1.13-2.67,2.38-3.4c2.19-1.33,4.73-1.98,7.29-1.84
		c3.23-0.05,6.46,0.18,9.65,0.68c4.05,0.67,6.91,4.35,6.55,8.44c0.1,6.26,0.03,12.51,0.02,18.77c-0.02,0.24-0.06,0.48-0.11,0.72
		h-5.34c-0.04-0.77-0.08-1.54-0.14-2.7c-1.96,3.17-4.84,2.66-7.44,2.73c-2.98,0.12-5.97-0.02-8.93-0.44
		c-3.54-0.43-6.09-3.61-5.73-7.16c-0.03-1.16-0.03-2.32,0-3.46c-0.13-2.78,1.57-5.32,4.19-6.27c1.44-0.55,2.95-0.88,4.48-0.96
		c3.19-0.13,6.38-0.06,9.56,0.21C681.36,206.77,682.72,207.38,683.96,208.18z M674.84,219.77c1.96-0.16,3.82-0.21,5.67-0.48
		c2.7-0.4,3.56-1.64,3.37-4.52c-0.02-1.87-1.51-3.38-3.38-3.44c-2.9-0.4-5.84-0.54-8.77-0.4c-3.93,0.23-4.44,1.05-4.39,5.29
		c0.03,1.89,0.53,2.72,2.29,3.06C671.4,219.61,673.14,219.62,674.84,219.77L674.84,219.77z"/>
	<path id="Path_28_00000067932428245704013950000015765078192219995534_" class="st10" d="M623.58,212.4h-3.33
		c-5.9,0-11.79,0.03-17.69-0.03c-1.24,0-1.55,0.44-1.34,1.63c0.09,0.57,0.07,1.15,0.17,1.72c0.4,2.4,1.59,3.58,4.58,3.76
		c2.98,0.11,5.97,0.05,8.94-0.16c1.4-0.1,2.63-0.93,3.25-2.18c0.22-0.3,0.59-0.47,0.96-0.44c1.4,0.39,2.76,0.9,4.22,1.39
		c-0.23,1.85-1.27,3.51-2.84,4.51c-2.08,1.27-4.5,1.88-6.94,1.75c-3.48,0.1-6.95-0.05-10.41-0.44c-4.01-0.5-7.03-3.88-7.07-7.92
		c-0.33-3.93-0.34-7.89-0.03-11.82c0.13-3.78,2.86-6.98,6.57-7.7c4.71-1.09,9.6-1.17,14.35-0.24c3.8,0.59,6.59,3.88,6.55,7.73
		C623.76,206.71,623.58,209.46,623.58,212.4z M618.11,207.55c0.44-5.27-0.91-6.52-4.6-6.85c-2.69-0.23-5.39-0.19-8.07,0.1
		c-3.37,0.35-4.93,3.14-4.05,6.75H618.11z"/>
	<path id="Path_29_00000141438098107656129070000003297877142570934950_" class="st10" d="M560.83,193.27l-14.97,18.67l-15.07-18.8
		c0.35-0.07,0.71-0.12,1.07-0.14c1.66,0,3.32,0,4.98,0c1.66,0,1.71,0,1.71-1.89c0-1.64,0-3.28,0-4.92c0-0.58,0.03-1.05,0.77-1.05
		c4.48,0.02,8.96,0.02,13.44,0.04c0.11,0,0.22,0.09,0.46,0.2v7.58h7.42L560.83,193.27z"/>
	<path id="Path_30_00000132049639759882402210000004570691995460486552_" class="st10" d="M541.56,216.39h-7.83v7.83h-14.68v-7.86
		h-7.86l15.19-18.92L541.56,216.39z"/>
	<path id="Path_31_00000166657053087371709220000001793632776724801954_" class="st10" d="M664.29,189.49c-1.09,0-2.18,0-3.23,0
		c-1.04,0-2.18,0-3.23,0.12c-2.18,0.14-3.83,2.03-3.69,4.21c0,0.04,0.01,0.08,0.01,0.11c0,0.75,0,1.5,0,2.43h7.61
		c0,1.48,0.05,2.8-0.04,4.11c0,0.27-0.58,0.69-0.87,0.7c-1.75,0.07-3.49,0.03-5.24,0.04c-0.44,0-0.87,0.04-1.46,0.07v23.13h-5.6
		v-23.19h-2.96v-4.8h2.93c0-1.01,0-1.92,0-2.83c-0.47-4.27,2.61-8.11,6.88-8.58c0.2-0.02,0.4-0.04,0.6-0.04
		c2.72-0.16,5.47-0.03,8.29-0.03L664.29,189.49z"/>
	<path id="Path_32_00000059300812255861148830000009330237316118478503_" class="st10" d="M644.22,219.62v4.7
		c-0.14,0.08-0.3,0.14-0.46,0.17c-2.65-0.05-5.32,0-7.95-0.21c-3.86-0.2-6.86-3.46-6.74-7.33c-0.21-4.6-0.1-9.22-0.14-13.83
		c0-0.57,0-1.13,0-1.83l-3-0.15v-4.68h2.99v-11.43h5.55v11.32h7.66v4.86c-2.11,0-4.18,0.07-6.24-0.03c-1.1-0.05-1.41,0.33-1.39,1.5
		c0.07,4.12,0,8.25,0.03,12.38c0,3.3,1.1,4.48,4.2,4.55C640.49,219.66,642.27,219.62,644.22,219.62z"/>
	<path id="Path_33_00000143588609219960578910000010877290063423111345_" class="st10" d="M710.99,224.44h-5.55v-28.56h5.24v3.44
		c0.22,0,0.33,0.03,0.36,0c2.91-3.62,7.98-4.68,12.1-2.54c0.42,0.21,0.81,0.47,1.16,0.77c1.82,1.54,1.8,2.18-0.07,3.54l-1.67,1.2
		c-1.94-1.77-4.69-2.33-7.17-1.48c-2.73,0.63-4.59,3.16-4.39,5.95c-0.03,5.37,0,10.74,0,16.11L710.99,224.44z"/>
	<path id="Path_34_00000019665572759877324050000004670652082924190614_" class="st10" d="M694.69,195.87h5.47
		c0.02,0.52,0.06,0.95,0.06,1.38c0,8.6,0,17.21,0.03,25.81c0,1.19-0.31,1.55-1.39,1.47c-1.36-0.1-2.72-0.02-4.17-0.02L694.69,195.87
		z"/>
	<path id="Path_35_00000181070978897808815180000018280143732370353314_" class="st10" d="M700.13,190.96h-5.45v-5.93h5.45V190.96z"
		/>
</g>
</svg>
