<?xml version="1.0" encoding="utf-8"?>
<!-- Generator: Adobe Illustrator 27.5.0, SVG Export Plug-In . SVG Version: 6.00 Build 0)  -->
<svg version="1.1" id="Camada_1" xmlns="http://www.w3.org/2000/svg" xmlns:xlink="http://www.w3.org/1999/xlink" x="0px" y="0px"
	 viewBox="0 0 782.5 197.6" style="enable-background:new 0 0 782.5 197.6;" xml:space="preserve">
<style type="text/css">
	.st0{display:none;fill:#FFFFFF;}
	.st1{display:none;fill:#05A083;}
	.st2{display:none;}
	.st3{display:inline;fill:#F9F9F9;}
	.st4{display:inline;fill:#DEEFEC;}
	.st5{display:inline;fill:#C3E5DF;}
	.st6{display:inline;fill:#A8DBD2;}
	.st7{display:inline;fill:#8DD1C5;}
	.st8{display:inline;fill:#71C8B7;}
	.st9{display:inline;fill:#56BEAA;}
	.st10{display:inline;fill:#3BB49D;}
	.st11{display:inline;fill:#20AA90;}
	.st12{display:inline;fill:#05A083;}
	.st13{display:none;enable-background:new    ;}
	.st14{display:inline;fill:#FFFFFF;}
	.st15{fill:#FFFFFF;}
	.st16{enable-background:new    ;}
	.st17{fill:#183B53;}
	.st18{fill:#F0C830;}
	.st19{display:inline;fill:#F0C830;}
	.st20{display:inline;}
</style>
<g id="SvgjsG3351" transform="matrix(2.87828947368421,0,0,-2.87828947368421,13,92.10526315789473)">
	<g class="st2">
		<rect x="-644.07" y="370.85" class="st19" width="3838.93" height="-1914.06"/>
	</g>
</g>
<g id="SvgjsG3352" transform="matrix(3.3216736072835387,0,0,3.3216736072835387,108.21329411508545,0.2238120472089875)">
	<path class="st18" d="M52.83,36.84v5.82H33.79V17.04h6.28v19.8L52.83,36.84L52.83,36.84z M56.02,17.04h19.05v5.82H62.29v4.1h10.26
		v5.82H62.29v4.06h12.77v5.82H56.02V17.04z M96.33,17.04h6.87L92.94,42.66h-6.28L76.4,17.04h6.82L89.8,35.5L96.33,17.04z
		 M105.87,17.04h19.05v5.82h-12.77v4.1h10.26v5.82h-10.26v4.06h12.77v5.82h-19.05V17.04z M147.36,29.52
		c1.84,1.3,2.93,3.22,2.93,5.48c0,4.35-4.02,7.66-8.2,7.66h-13.61V17.04h12.77c3.35,0,6.11,1.8,7.58,4.77
		c0.42,0.96,0.63,1.93,0.63,2.93C149.45,26.63,148.7,28.18,147.36,29.52L147.36,29.52z M134.76,22.86v4.1h6.49
		c1.09,0,1.93-1.05,1.93-2.09c0-1.09-0.8-2.01-1.93-2.01H134.76z M134.76,32.78v4.06h7.33c1.13,0,1.93-0.92,1.93-2.01
		c0-0.54-0.21-1.05-0.59-1.47c-0.38-0.38-0.84-0.59-1.34-0.59L134.76,32.78L134.76,32.78z M153.85,17.04h19.05v5.82h-12.77v4.1
		h10.26v5.82h-10.26v4.06h12.77v5.82h-19.05V17.04z M174.94,17.04h21.35v5.82h-7.54v19.8h-6.28v-19.8h-7.54V17.04z"/>
</g>
<g>
	<g>
		<path class="st18" d="M13.23,98.66l96.25-96.25l96.54,96.54l-96.25,96.25L13.23,98.66z M109.55,54.54l-44.2,44.2l88.52,0.13
			L109.55,54.54z"/>
	</g>
</g>
</svg>
